SplineFontDB: 3.0
FontName: FairfaxEVAHD
FullName: Fairfax EVA HD
FamilyName: Fairfax EVA HD
Weight: Medium
Copyright: Fairfax EVA HD copyright (c) Kreative Software 2019 under the Open Font License.
UComments: "2017-9-17: Created with FontForge (http://fontforge.org)"
Version: 2019.06.24
ItalicAngle: 0
UnderlinePosition: -120
UnderlineWidth: 60
Ascent: 900
Descent: 300
InvalidEm: 0
LayerCount: 2
Layer: 0 0 "Back" 1
Layer: 1 0 "Fore" 0
XUID: [1021 743 -2085470654 8038404]
FSType: 0
OS2Version: 0
OS2_WeightWidthSlopeOnly: 0
OS2_UseTypoMetrics: 1
CreationTime: 1505697156
ModificationTime: 1561435625
PfmFamily: 49
TTFWeight: 500
TTFWidth: 5
LineGap: 0
VLineGap: 0
OS2TypoAscent: 900
OS2TypoAOffset: 0
OS2TypoDescent: -300
OS2TypoDOffset: 0
OS2TypoLinegap: 0
OS2WinAscent: 900
OS2WinAOffset: 0
OS2WinDescent: 300
OS2WinDOffset: 0
HheadAscent: 900
HheadAOffset: 0
HheadDescent: -300
HheadDOffset: 0
OS2XHeight: 500
OS2Vendor: 'KrKo'
MarkAttachClasses: 1
DEI: 91125
Encoding: UnicodeFull
UnicodeInterp: none
NameList: AGL For New Fonts
DisplaySize: -24
AntiAlias: 1
FitToEm: 1
WinInfo: 0 32 20
BeginPrivate: 0
EndPrivate
Grid
-1200 700 m 0
 2400 700 l 1024
EndSplineSet
BeginChars: 1114112 743

StartChar: exclam
Encoding: 33 33 1
Width: 600
VWidth: 0
Flags: HW
LayerCount: 2
Fore
SplineSet
210 200 m 1
 210 700 l 1
 290 700 l 1
 290 200 l 1
 210 200 l 1
200 50 m 0
 200 78 222 100 250 100 c 0
 278 100 300 78 300 50 c 0
 300 22 278 0 250 0 c 0
 222 0 200 22 200 50 c 0
EndSplineSet
EndChar

StartChar: quotedbl
Encoding: 34 34 2
Width: 600
VWidth: 0
Flags: HW
LayerCount: 2
Fore
SplineSet
600 500 m 1
 600 420 l 1
 0 420 l 1
 0 500 l 1
 183 500 l 1
 197 515 223 545 248 580 c 0
 295 646 320 705 320 750 c 0
 320 802 284 820 250 820 c 0
 211 820 180 789 180 750 c 0
 180 739 183 728 188 718 c 1
 116 682 l 1
 105 703 100 726 100 750 c 0
 100 833 167 900 250 900 c 0
 337 900 400 837 400 750 c 0
 400 688 371 615 313 533 c 0
 305 521 296 510 288 500 c 1
 600 500 l 1
EndSplineSet
EndChar

StartChar: numbersign
Encoding: 35 35 3
Width: 600
VWidth: 0
Flags: HW
LayerCount: 2
Fore
SplineSet
500 510 m 1
 390 510 l 1
 390 390 l 1
 500 390 l 1
 500 310 l 1
 390 310 l 1
 390 200 l 1
 310 200 l 1
 310 310 l 1
 190 310 l 1
 190 200 l 1
 110 200 l 1
 110 310 l 1
 0 310 l 1
 0 390 l 1
 110 390 l 1
 110 510 l 1
 0 510 l 1
 0 590 l 1
 110 590 l 1
 110 700 l 1
 190 700 l 1
 190 590 l 1
 310 590 l 1
 310 700 l 1
 390 700 l 1
 390 590 l 1
 500 590 l 1
 500 510 l 1
310 390 m 1
 310 510 l 1
 190 510 l 1
 190 390 l 1
 310 390 l 1
EndSplineSet
EndChar

StartChar: dollar
Encoding: 36 36 4
Width: 600
VWidth: 0
Flags: HW
LayerCount: 2
Fore
SplineSet
290 389 m 1
 334 379 377 367 412 346 c 0
 471 312 500 261 500 195 c 0
 500 86 404 15 290 2 c 1
 290 -100 l 1
 210 -100 l 1
 210 3 l 1
 127 14 56 56 22 115 c 0
 8 140 0 167 0 195 c 1
 80 195 l 1
 80 135 145 96 210 84 c 1
 210 325 l 1
 165 335 120 348 83 368 c 0
 28 399 0 445 0 505 c 0
 0 614 96 685 210 698 c 1
 210 800 l 1
 290 800 l 1
 290 697 l 1
 373 686 444 644 478 585 c 0
 492 560 500 533 500 505 c 1
 420 505 l 1
 420 565 355 604 290 616 c 1
 290 389 l 1
210 408 m 1
 210 617 l 1
 142 607 80 570 80 505 c 0
 80 452 121 430 210 408 c 1
290 306 m 1
 290 83 l 1
 358 93 420 130 420 195 c 0
 420 258 378 282 290 306 c 1
EndSplineSet
EndChar

StartChar: percent
Encoding: 37 37 5
Width: 600
VWidth: 0
Flags: HW
LayerCount: 2
Fore
SplineSet
150 400 m 0
 67 400 0 467 0 550 c 0
 0 633 67 700 150 700 c 0
 233 700 300 633 300 550 c 0
 300 467 233 400 150 400 c 0
150 620 m 0
 111 620 80 589 80 550 c 0
 80 511 111 480 150 480 c 0
 189 480 220 511 220 550 c 0
 220 589 189 620 150 620 c 0
350 0 m 0
 267 0 200 67 200 150 c 0
 200 233 267 300 350 300 c 0
 433 300 500 233 500 150 c 0
 500 67 433 0 350 0 c 0
350 220 m 0
 311 220 280 189 280 150 c 0
 280 111 311 80 350 80 c 0
 389 80 420 111 420 150 c 0
 420 189 389 220 350 220 c 0
2 158 m 1
 442 598 l 1
 498 542 l 1
 58 102 l 1
 2 158 l 1
EndSplineSet
EndChar

StartChar: ampersand
Encoding: 38 38 6
Width: 600
VWidth: 0
Flags: HW
LayerCount: 2
Fore
SplineSet
300 550 m 0
 300 474 238 421 184 367 c 1
 218 325 263 274 323 214 c 0
 341 196 359 180 376 163 c 1
 404 200 420 247 420 300 c 1
 500 300 l 1
 500 227 477 160 434 107 c 1
 485 60 528 22 553 0 c 1
 433 0 l 1
 415 16 395 34 375 53 c 1
 325 19 265 0 200 0 c 0
 88 0 0 88 0 200 c 0
 0 247 15 291 46 335 c 0
 56 349 67 362 78 374 c 1
 26 447 0 493 0 550 c 0
 0 631 69 700 150 700 c 0
 231 700 300 631 300 550 c 0
150 620 m 0
 112 620 80 588 80 550 c 0
 80 520 90 490 135 431 c 1
 179 472 220 512 220 550 c 0
 220 588 188 620 150 620 c 0
315 110 m 1
 252 173 176 252 128 310 c 1
 100 277 80 242 80 200 c 0
 80 132 132 80 200 80 c 0
 243 80 282 91 315 110 c 1
EndSplineSet
EndChar

StartChar: quotesingle
Encoding: 39 39 7
Width: 600
VWidth: 0
Flags: HW
LayerCount: 2
Fore
SplineSet
250 900 m 0
 337 900 400 837 400 750 c 0
 400 688 371 615 313 533 c 0
 272 475 230 434 228 432 c 1
 172 488 l 1
 172 488 210 527 248 580 c 0
 295 646 320 705 320 750 c 0
 320 802 284 820 250 820 c 0
 211 820 180 789 180 750 c 0
 180 739 183 728 188 718 c 1
 116 682 l 1
 105 703 100 726 100 750 c 0
 100 833 167 900 250 900 c 0
EndSplineSet
EndChar

StartChar: parenleft
Encoding: 40 40 8
Width: 600
VWidth: 0
Flags: HW
LayerCount: 2
Fore
SplineSet
391 -135 m 1
 218 -42 100 140 100 350 c 0
 100 560 218 742 391 835 c 1
 429 765 l 1
 281 686 180 530 180 350 c 0
 180 170 281 14 429 -65 c 1
 391 -135 l 1
EndSplineSet
EndChar

StartChar: parenright
Encoding: 41 41 9
Width: 600
VWidth: 0
Flags: HW
LayerCount: 2
Fore
SplineSet
109 -135 m 1
 71 -65 l 1
 219 14 320 170 320 350 c 0
 320 530 219 686 71 765 c 1
 109 835 l 1
 282 742 400 560 400 350 c 0
 400 140 282 -42 109 -135 c 1
EndSplineSet
EndChar

StartChar: asterisk
Encoding: 42 42 10
Width: 600
VWidth: 2048
Flags: HW
LayerCount: 2
Fore
SplineSet
-64 256 m 0
 -64 264 -46 273 -38 273 c 0
 -33 273 -13 270 -8 270 c 0
 -1 270 5 271 13 273 c 1
 2 268 -7 260 -14 248 c 0
 -18 240 -35 234 -47 234 c 0
 -61 234 -64 246 -64 256 c 0
-56 616 m 1
 -55 621 -48 625 -38 628 c 1
 -30 628 -24 620 -18 603 c 0
 -13 589 -9 581 -1 570 c 1
 -7 574 -19 580 -36 588 c 1
 -49 593 -56 600 -56 616 c 1
359 248 m 0
 359 229 332 202 312 202 c 0
 288 202 272 226 271 243 c 128
 270 259 260 267 241 267 c 0
 214 267 200 254 200 228 c 0
 200 221 201 218 201 213 c 0
 201 189 178 171 154 171 c 0
 132 171 121 192 121 215 c 0
 121 233 129 244 145 247 c 128
 161 250 177 270 177 289 c 0
 177 324 135 331 101 331 c 0
 81 331 67 328 52 322 c 128
 44 319 37 317 30 317 c 0
 8 317 -8 334 -8 355 c 0
 -8 374 6 388 26 388 c 0
 30 388 37 387 46 385 c 0
 78 377 100 373 111 373 c 0
 143 373 163 384 175 407 c 0
 175 408 176 408 176 409 c 0
 176 415 167 428 151 448 c 0
 130 474 120 494 120 510 c 0
 120 538 151 564 178 564 c 0
 207 564 214 502 222 473 c 1
 229 462 238 436 254 436 c 0
 258 436 262 437 268 440 c 0
 295 454 314 476 325 506 c 128
 336 536 346 567 357 598 c 1
 366 602 376 603 384 603 c 0
 411 603 432 585 432 558 c 0
 432 550 430 542 426 534 c 1
 395 505 374 482 362 466 c 128
 350 450 344 437 344 427 c 0
 344 417 351 410 357 405 c 0
 390 375 407 360 409 358 c 0
 417 349 421 342 423 336 c 1
 407 340 390 343 374 343 c 0
 349 343 330 337 330 314 c 130
 330 311 l 2
 330 305 335 297 344 287 c 128
 353 277 359 264 359 248 c 0
64 454 m 0
 42 454 -6 474 -6 496 c 0
 -6 504 4 511 13 512 c 0
 28 512 77 481 77 462 c 0
 77 458 74 454 64 454 c 0
86 206 m 0
 86 198 80 174 71 174 c 0
 69 174 64 175 60 178 c 1
 57 184 54 192 54 198 c 0
 54 208 70 214 75 215 c 0
 82 215 86 211 86 206 c 0
67 626 m 2
 67 635 l 130
 67 639 70 641 78 643 c 0
 81 643 86 640 92 633 c 0
 102 620 109 596 115 578 c 1
 97 594 85 606 77 614 c 0
 71 620 67 624 67 626 c 2
111 104 m 1
 111 113 130 139 144 139 c 0
 155 139 159 126 159 113 c 0
 159 96 153 80 137 80 c 0
 117 80 116 85 111 104 c 1
163 702 m 0
 188 702 191 689 191 660 c 0
 191 659 192 658 192 656 c 0
 192 652 189 646 186 640 c 0
 174 617 168 603 168 597 c 0
 168 594 169 592 169 590 c 1
 162 611 152 639 140 649 c 0
 137 651 136 656 136 664 c 0
 136 683 144 702 163 702 c 0
222 115 m 0
 213 115 203 128 203 138 c 0
 203 147 216 157 225 157 c 0
 233 157 244 143 244 134 c 0
 244 126 230 115 222 115 c 0
357 92 m 0
 335 92 314 111 314 138 c 0
 314 161 327 180 350 180 c 0
 376 180 394 155 394 129 c 0
 394 109 379 92 357 92 c 0
419 635 m 0
 402 636 387 654 387 672 c 0
 387 692 402 702 422 702 c 0
 441 702 454 693 454 674 c 0
 454 655 438 635 419 635 c 0
422 178 m 0
 409 178 390 195 390 209 c 0
 390 222 402 226 416 226 c 0
 432 226 441 216 443 201 c 1
 443 189 434 178 422 178 c 0
492 327 m 0
 509 327 518 325 518 308 c 0
 518 294 509 268 495 268 c 0
 482 268 472 281 465 294 c 0
 456 310 449 321 444 329 c 1
 448 327 456 326 464 326 c 0
 469 326 487 327 492 327 c 0
EndSplineSet
EndChar

StartChar: plus
Encoding: 43 43 11
Width: 600
VWidth: 0
Flags: HW
LayerCount: 2
Fore
SplineSet
250 900 m 0
 348 900 400 814 400 710 c 0
 400 649 382 578 347 500 c 1
 600 500 l 1
 600 420 l 1
 306 420 l 1
 296 402 286 384 274 365 c 0
 213 267 153 197 150 194 c 1
 90 246 l 1
 91 247 154 322 214 420 c 1
 0 420 l 1
 0 500 l 1
 258 500 l 1
 293 570 320 644 320 710 c 0
 320 743 313 820 250 820 c 0
 211 820 180 789 180 750 c 0
 180 739 183 728 188 718 c 1
 116 682 l 1
 105 703 100 726 100 750 c 0
 100 831 169 900 250 900 c 0
EndSplineSet
EndChar

StartChar: comma
Encoding: 44 44 12
Width: 600
VWidth: 0
Flags: HW
LayerCount: 2
Fore
SplineSet
300 100 m 0
 300 99 300 98 300 97 c 0
 299 -63 168 -188 168 -188 c 1
 112 -132 l 1
 112 -132 168 -80 198 0 c 1
 144 1 100 45 100 100 c 0
 100 155 145 200 200 200 c 0
 255 200 300 155 300 100 c 0
EndSplineSet
EndChar

StartChar: hyphen
Encoding: 45 45 13
Width: 600
VWidth: 0
Flags: HW
LayerCount: 2
Fore
SplineSet
0 310 m 1
 0 390 l 1
 500 390 l 1
 500 310 l 1
 0 310 l 1
EndSplineSet
EndChar

StartChar: period
Encoding: 46 46 14
Width: 600
VWidth: 0
Flags: HW
LayerCount: 2
Fore
SplineSet
100 100 m 0
 100 155 145 200 200 200 c 0
 255 200 300 155 300 100 c 0
 300 45 255 0 200 0 c 0
 145 0 100 45 100 100 c 0
EndSplineSet
EndChar

StartChar: slash
Encoding: 47 47 15
Width: 600
VWidth: 0
Flags: HW
LayerCount: 2
Fore
SplineSet
-32 -124 m 1
 460 860 l 1
 532 824 l 1
 40 -160 l 1
 -32 -124 l 1
EndSplineSet
EndChar

StartChar: zero
Encoding: 48 48 16
Width: 600
VWidth: 0
Flags: HW
LayerCount: 2
Fore
SplineSet
250 700 m 0
 334 700 395 648 432 592 c 0
 476 527 500 441 500 350 c 0
 500 212 443 87 353 30 c 0
 321 10 286 0 250 0 c 0
 166 0 105 52 68 108 c 0
 24 173 0 259 0 350 c 0
 0 488 57 613 147 670 c 0
 179 690 214 700 250 700 c 0
375 532 m 1
 345 582 298 620 250 620 c 0
 208 620 167 594 135 547 c 0
 100 495 80 425 80 350 c 0
 80 315 84 281 92 249 c 1
 375 532 l 1
125 168 m 1
 155 118 202 80 250 80 c 0
 292 80 333 106 365 153 c 0
 400 205 420 275 420 350 c 0
 420 385 416 419 408 451 c 1
 125 168 l 1
EndSplineSet
EndChar

StartChar: one
Encoding: 49 49 17
Width: 600
VWidth: 0
Flags: HW
LayerCount: 2
Fore
SplineSet
208 700 m 1
 290 700 l 1
 290 80 l 1
 490 80 l 1
 490 0 l 1
 10 0 l 1
 10 80 l 1
 210 80 l 1
 210 604 l 1
 53 497 l 1
 7 563 l 1
 208 700 l 1
EndSplineSet
EndChar

StartChar: two
Encoding: 50 50 18
Width: 600
VWidth: 0
Flags: HW
LayerCount: 2
Fore
SplineSet
250 700 m 0
 378 700 500 621 500 500 c 0
 500 358 325 239 227 170 c 0
 181 138 139 110 109 80 c 1
 500 80 l 1
 500 0 l 1
 0 0 l 1
 0 40 l 2
 0 107 79 164 180 236 c 0
 239 278 301 321 348 368 c 0
 397 417 420 460 420 500 c 0
 420 577 332 620 250 620 c 0
 168 620 80 578 80 500 c 1
 0 500 l 1
 0 621 122 700 250 700 c 0
EndSplineSet
EndChar

StartChar: three
Encoding: 51 51 19
Width: 600
VWidth: 0
Flags: HW
LayerCount: 2
Fore
SplineSet
410 350 m 1
 465 317 500 262 500 200 c 0
 500 79 378 0 250 0 c 0
 122 0 0 79 0 200 c 1
 80 200 l 1
 80 122 168 80 250 80 c 0
 332 80 420 122 420 200 c 0
 420 238 397 262 377 276 c 0
 346 298 301 310 250 310 c 2
 160 310 l 1
 160 390 l 1
 250 390 l 2
 301 390 346 402 377 424 c 0
 397 438 420 462 420 500 c 0
 420 578 332 620 250 620 c 0
 168 620 80 577 80 500 c 1
 0 500 l 1
 0 621 122 700 250 700 c 0
 378 700 500 621 500 500 c 0
 500 438 465 383 410 350 c 1
EndSplineSet
EndChar

StartChar: four
Encoding: 52 52 20
Width: 600
VWidth: 0
Flags: HW
LayerCount: 2
Fore
SplineSet
308 700 m 1
 390 700 l 1
 390 290 l 1
 500 290 l 1
 500 210 l 1
 390 210 l 1
 390 0 l 1
 310 0 l 1
 310 210 l 1
 0 210 l 1
 0 290 l 1
 308 700 l 1
310 290 m 1
 310 570 l 1
 100 290 l 1
 310 290 l 1
EndSplineSet
EndChar

StartChar: five
Encoding: 53 53 21
Width: 600
VWidth: 0
Flags: HW
LayerCount: 2
Fore
SplineSet
500 245 m 0
 500 110 386 0 250 0 c 0
 117 0 24 79 1 192 c 1
 79 208 l 1
 95 128 159 80 250 80 c 0
 344 80 420 154 420 245 c 0
 420 336 344 410 250 410 c 2
 8 410 l 1
 22 700 l 1
 500 700 l 1
 500 620 l 1
 98 620 l 1
 92 490 l 1
 250 490 l 2
 386 490 500 380 500 245 c 0
EndSplineSet
EndChar

StartChar: six
Encoding: 54 54 22
Width: 600
VWidth: 0
Flags: HW
LayerCount: 2
Fore
SplineSet
250 490 m 0
 386 490 500 380 500 245 c 0
 500 110 386 0 250 0 c 0
 114 0 0 110 0 245 c 2
 0 400 l 2
 0 598 102 700 300 700 c 2
 400 700 l 1
 400 620 l 1
 300 620 l 2
 154 620 88 562 81 425 c 1
 127 467 187 490 250 490 c 0
250 80 m 0
 344 80 420 154 420 245 c 0
 420 336 344 410 250 410 c 0
 156 410 80 336 80 245 c 0
 80 154 156 80 250 80 c 0
EndSplineSet
EndChar

StartChar: seven
Encoding: 55 55 23
Width: 600
VWidth: 0
Flags: HW
LayerCount: 2
Fore
SplineSet
210 0 m 1
 210 243 316 464 414 620 c 1
 0 620 l 1
 0 700 l 1
 500 700 l 1
 500 605 l 1
 478 572 441 515 405 442 c 0
 353 336 290 172 290 0 c 1
 210 0 l 1
EndSplineSet
EndChar

StartChar: eight
Encoding: 56 56 24
Width: 600
VWidth: 0
Flags: HW
LayerCount: 2
Fore
SplineSet
402 350 m 1
 453 321 500 268 500 195 c 0
 500 131 463 84 422 53 c 0
 376 19 315 0 250 0 c 0
 151 0 61 47 22 115 c 0
 8 140 0 167 0 195 c 0
 0 268 47 321 98 350 c 1
 47 379 0 432 0 505 c 0
 0 569 37 616 78 647 c 0
 124 681 185 700 250 700 c 0
 349 700 439 653 478 585 c 0
 492 560 500 533 500 505 c 0
 500 432 453 379 402 350 c 1
80 505 m 0
 80 433 174 390 250 390 c 0
 326 390 420 433 420 505 c 0
 420 577 326 620 250 620 c 0
 174 620 80 577 80 505 c 0
250 80 m 0
 326 80 420 123 420 195 c 0
 420 267 326 310 250 310 c 0
 174 310 80 267 80 195 c 0
 80 123 174 80 250 80 c 0
EndSplineSet
EndChar

StartChar: nine
Encoding: 57 57 25
Width: 600
VWidth: 0
Flags: HW
LayerCount: 2
Fore
SplineSet
250 210 m 0
 114 210 0 320 0 455 c 0
 0 590 114 700 250 700 c 0
 386 700 500 590 500 455 c 2
 500 300 l 2
 500 102 398 0 200 0 c 2
 100 0 l 1
 100 80 l 1
 200 80 l 2
 346 80 412 138 419 275 c 1
 373 233 313 210 250 210 c 0
250 620 m 0
 156 620 80 546 80 455 c 0
 80 364 156 290 250 290 c 0
 344 290 420 364 420 455 c 0
 420 546 344 620 250 620 c 0
EndSplineSet
EndChar

StartChar: colon
Encoding: 58 58 26
Width: 600
VWidth: 0
Flags: HW
LayerCount: 2
Fore
SplineSet
100 400 m 0
 100 455 145 500 200 500 c 0
 255 500 300 455 300 400 c 0
 300 345 255 300 200 300 c 0
 145 300 100 345 100 400 c 0
100 100 m 0
 100 155 145 200 200 200 c 0
 255 200 300 155 300 100 c 0
 300 45 255 0 200 0 c 0
 145 0 100 45 100 100 c 0
EndSplineSet
EndChar

StartChar: semicolon
Encoding: 59 59 27
Width: 600
VWidth: 0
Flags: HW
LayerCount: 2
Fore
SplineSet
100 400 m 0
 100 455 145 500 200 500 c 0
 255 500 300 455 300 400 c 0
 300 345 255 300 200 300 c 0
 145 300 100 345 100 400 c 0
300 100 m 0
 300 99 300 98 300 97 c 0
 299 -63 168 -188 168 -188 c 1
 112 -132 l 1
 112 -132 168 -80 198 0 c 1
 144 1 100 45 100 100 c 0
 100 155 145 200 200 200 c 0
 255 200 300 155 300 100 c 0
EndSplineSet
EndChar

StartChar: less
Encoding: 60 60 28
Width: 600
VWidth: 0
Flags: HW
LayerCount: 2
Fore
SplineSet
460 85 m 1
 0 350 l 1
 460 615 l 1
 500 545 l 1
 160 350 l 1
 500 155 l 1
 460 85 l 1
EndSplineSet
EndChar

StartChar: equal
Encoding: 61 61 29
Width: 600
VWidth: 0
Flags: HW
LayerCount: 2
Fore
SplineSet
0 210 m 1
 0 290 l 1
 500 290 l 1
 500 210 l 1
 0 210 l 1
0 410 m 1
 0 490 l 1
 500 490 l 1
 500 410 l 1
 0 410 l 1
EndSplineSet
EndChar

StartChar: greater
Encoding: 62 62 30
Width: 600
VWidth: 0
Flags: HW
LayerCount: 2
Fore
SplineSet
40 85 m 1
 0 155 l 1
 340 350 l 1
 0 545 l 1
 40 615 l 1
 500 350 l 1
 40 85 l 1
EndSplineSet
EndChar

StartChar: question
Encoding: 63 63 31
Width: 600
VWidth: 0
Flags: HW
LayerCount: 2
Fore
SplineSet
250 620 m 0
 172 620 80 575 80 500 c 1
 0 500 l 1
 0 564 36 614 77 645 c 0
 124 680 185 700 250 700 c 0
 349 700 440 652 478 582 c 0
 492 556 500 528 500 500 c 0
 500 457 486 419 458 385 c 0
 435 358 406 337 378 317 c 0
 323 278 290 252 290 200 c 1
 210 200 l 1
 210 243 224 281 252 315 c 0
 275 342 304 363 332 383 c 0
 387 422 420 448 420 500 c 0
 420 574 327 620 250 620 c 0
200 50 m 0
 200 78 222 100 250 100 c 0
 278 100 300 78 300 50 c 0
 300 22 278 0 250 0 c 0
 222 0 200 22 200 50 c 0
EndSplineSet
EndChar

StartChar: at
Encoding: 64 64 32
Width: 600
VWidth: 0
Flags: HW
LayerCount: 2
Fore
SplineSet
250 700 m 0
 410 700 500 566 500 400 c 0
 500 336 489 290 468 258 c 0
 447 227 416 210 380 210 c 0
 353 210 328 220 307 239 c 1
 292 220 271 210 250 210 c 0
 191 210 160 282 160 350 c 0
 160 418 191 490 250 490 c 2
 340 490 l 1
 340 350 l 2
 340 318 359 290 380 290 c 0
 390 290 396 293 402 302 c 0
 409 312 420 339 420 400 c 0
 420 536 355 620 250 620 c 0
 208 620 167 594 135 547 c 0
 100 495 80 425 80 350 c 0
 80 275 100 205 135 153 c 0
 167 106 208 80 250 80 c 2
 400 80 l 1
 400 0 l 1
 250 0 l 2
 166 0 105 52 68 108 c 0
 24 173 0 259 0 350 c 0
 0 488 57 613 147 670 c 0
 179 690 214 700 250 700 c 0
250 298 m 0
 260 300 260 326 260 350 c 2
 260 410 l 1
 255 410 l 2
 240 410 240 383 240 350 c 0
 240 326 240 300 250 298 c 0
EndSplineSet
EndChar

StartChar: A
Encoding: 65 65 33
Width: 600
VWidth: 0
Flags: HW
LayerCount: 2
Fore
SplineSet
250 420 m 2
 156 420 80 344 80 250 c 0
 80 156 156 80 250 80 c 0
 295 80 337 98 369 129 c 1
 341 198 316 293 311 420 c 1
 250 420 l 2
452 -8 m 1
 450 -6 430 14 406 55 c 1
 362 20 307 0 250 0 c 0
 183 0 120 26 73 73 c 0
 26 120 0 183 0 250 c 0
 0 317 26 380 73 427 c 0
 120 474 183 500 250 500 c 2
 600 500 l 1
 600 420 l 1
 391 420 l 1
 396 291 424 200 449 145 c 0
 477 82 505 51 508 48 c 1
 452 -8 l 1
EndSplineSet
EndChar

StartChar: B
Encoding: 66 66 34
Width: 600
VWidth: 0
Flags: HW
LayerCount: 2
Fore
SplineSet
-36 785 m 1
 13 848 95 900 200 900 c 0
 301 900 370 851 416 787 c 0
 471 709 500 596 500 450 c 0
 500 258 465 95 345 28 c 0
 311 9 272 0 230 0 c 0
 171 0 112 27 68 74 c 0
 24 122 0 184 0 250 c 0
 0 317 26 380 73 427 c 0
 120 474 183 500 250 500 c 0
 274 500 298 497 321 490 c 1
 299 413 l 1
 283 418 267 420 250 420 c 0
 156 420 80 344 80 250 c 0
 80 159 150 80 230 80 c 0
 356 80 420 204 420 450 c 0
 420 577 396 678 351 741 c 0
 314 794 263 820 200 820 c 0
 132 820 69 789 27 735 c 1
 -36 785 l 1
EndSplineSet
EndChar

StartChar: C
Encoding: 67 67 35
Width: 600
VWidth: 0
Flags: HW
LayerCount: 2
Fore
SplineSet
490 179 m 1
 462 83 369 0 250 0 c 0
 183 0 120 26 73 73 c 0
 26 120 0 183 0 250 c 0
 0 317 26 380 73 427 c 0
 120 474 183 500 250 500 c 2
 600 500 l 1
 600 420 l 1
 250 420 l 2
 156 420 80 344 80 250 c 0
 80 156 156 80 250 80 c 0
 325 80 392 130 413 201 c 1
 490 179 l 1
EndSplineSet
EndChar

StartChar: D
Encoding: 68 68 36
Width: 600
VWidth: 0
Flags: HW
LayerCount: 2
Fore
SplineSet
500 220 m 0
 500 93 388 0 250 0 c 0
 112 0 0 93 0 220 c 0
 0 287 29 340 88 377 c 0
 132 405 187 420 241 435 c 1
 217 465 200 503 200 550 c 0
 200 633 267 700 350 700 c 0
 433 700 500 633 500 550 c 0
 500 502 481 461 443 431 c 0
 429 420 413 411 397 403 c 1
 418 385 439 366 456 344 c 0
 486 306 500 266 500 220 c 0
131 309 m 0
 95 286 80 260 80 220 c 0
 80 151 144 80 250 80 c 0
 356 80 420 151 420 220 c 0
 420 288 363 328 309 371 c 1
 308 371 l 1
 247 354 177 338 131 309 c 0
327 460 m 1
 369 475 420 497 420 550 c 0
 420 589 389 620 350 620 c 0
 311 620 280 589 280 550 c 0
 280 514 298 487 327 460 c 1
EndSplineSet
EndChar

StartChar: E
Encoding: 69 69 37
Width: 600
VWidth: 0
Flags: HW
LayerCount: 2
Fore
SplineSet
270 0 m 0
 115 0 0 104 0 250 c 0
 0 317 26 380 73 427 c 0
 120 474 183 500 250 500 c 0
 274 500 298 497 321 490 c 1
 299 413 l 1
 283 418 267 420 250 420 c 0
 156 420 80 344 80 250 c 0
 80 150 158 80 270 80 c 0
 448 80 607 273 609 275 c 1
 671 225 l 1
 669 223 625 168 555 113 c 0
 481 56 383 0 270 0 c 0
EndSplineSet
EndChar

StartChar: F
Encoding: 70 70 38
Width: 600
VWidth: 0
Flags: HW
LayerCount: 2
Fore
SplineSet
600 500 m 1
 600 420 l 1
 290 420 l 1
 290 0 l 1
 210 0 l 1
 210 420 l 1
 0 420 l 1
 0 500 l 1
 210 500 l 1
 210 610 l 1
 100 610 l 2
 89 610 80 601 80 590 c 0
 80 586 81 583 83 580 c 1
 13 540 l 1
 4 555 0 572 0 590 c 0
 0 645 45 690 100 690 c 2
 210 690 l 1
 210 1060 l 1
 290 1060 l 1
 290 996 334 928 410 897 c 1
 410 950 l 2
 410 1030 472 1100 550 1100 c 0
 630 1100 690 1040 690 960 c 0
 690 867 597 800 500 800 c 2
 490 800 l 1
 490 750 l 2
 490 673 427 610 350 610 c 2
 290 610 l 1
 290 500 l 1
 600 500 l 1
500 880 m 2
 552 880 610 910 610 960 c 0
 610 995 585 1020 550 1020 c 0
 517 1020 490 989 490 950 c 2
 490 880 l 1
 500 880 l 2
410 750 m 2
 410 813 l 1
 365 826 323 849 290 881 c 1
 290 690 l 1
 350 690 l 2
 383 690 410 717 410 750 c 2
EndSplineSet
EndChar

StartChar: G
Encoding: 71 71 39
Width: 600
VWidth: 0
Flags: HW
LayerCount: 2
Fore
SplineSet
347 -209 m 1
 329 -189 311 -171 293 -151 c 1
 294 -150 398 -51 417 65 c 1
 363 22 299 0 230 -0 c 0
 168 0 109 24 65 68 c 0
 23 110 0 165 0 220 c 0
 0 287 29 340 88 377 c 0
 130 403 181 419 232 433 c 1
 213 467 200 505 200 550 c 0
 200 633 267 700 350 700 c 0
 433 700 500 633 500 550 c 0
 500 492 473 446 419 414 c 0
 402 404 384 396 364 389 c 1
 397 351 430 313 456 266 c 0
 485 214 500 159 500 100 c 0
 500 -66 353 -203 347 -209 c 1
410 172 m 1
 388 248 329 304 281 363 c 1
 196 340 80 319 80 220 c 0
 80 154 142 80 230 80 c 0
 282 80 329 96 369 129 c 0
 390 146 403 162 410 172 c 1
350 620 m 0
 311 620 280 589 280 550 c 0
 280 515 292 485 311 456 c 1
 385 480 420 502 420 550 c 0
 420 589 389 620 350 620 c 0
EndSplineSet
EndChar

StartChar: H
Encoding: 72 72 40
Width: 600
VWidth: 0
Flags: HW
LayerCount: 2
Fore
SplineSet
490 179 m 1
 462 83 369 0 250 0 c 0
 183 0 120 26 73 73 c 0
 26 120 0 183 0 250 c 0
 0 314 23 374 66 420 c 1
 0 420 l 1
 0 500 l 1
 600 500 l 1
 600 420 l 1
 250 420 l 2
 156 420 80 344 80 250 c 0
 80 156 156 80 250 80 c 0
 325 80 392 130 413 201 c 1
 490 179 l 1
EndSplineSet
EndChar

StartChar: I
Encoding: 73 73 41
Width: 600
VWidth: 0
Flags: HW
LayerCount: 2
Fore
SplineSet
600 500 m 1
 600 420 l 1
 220 420 l 1
 221 418 222 417 223 415 c 0
 248 372 269 316 288 263 c 0
 319 177 353 80 400 80 c 1
 400 0 l 1
 340 0 303 41 277 85 c 0
 252 128 231 184 212 237 c 0
 181 323 147 420 100 420 c 2
 0 420 l 1
 0 500 l 1
 600 500 l 1
EndSplineSet
EndChar

StartChar: J
Encoding: 74 74 42
Width: 600
VWidth: 0
Flags: HW
LayerCount: 2
Fore
SplineSet
500 200 m 0
 500 93 424 0 320 0 c 0
 252 0 208 42 178 89 c 0
 148 135 127 194 106 251 c 0
 86 305 49 420 -0 420 c 1
 -0 500 l 1
 80 500 119 428 146 368 c 1
 175 377 219 391 264 411 c 1
 229 446 200 489 200 550 c 0
 200 633 267 700 350 700 c 0
 433 700 500 633 500 550 c 0
 500 504 478 461 434 421 c 0
 425 413 415 405 404 397 c 1
 453 353 500 295 500 200 c 0
331 354 m 1
 283 330 213 305 175 294 c 1
 211 197 250 80 320 80 c 0
 377 80 420 132 420 200 c 0
 420 274 380 313 331 354 c 1
350 620 m 0
 311 620 280 589 280 550 c 0
 280 510 302 482 340 450 c 1
 392 483 420 518 420 550 c 0
 420 589 389 620 350 620 c 0
EndSplineSet
EndChar

StartChar: K
Encoding: 75 75 43
Width: 600
VWidth: -200
Flags: HW
LayerCount: 2
Fore
SplineSet
600 500 m 1
 600 420 l 1
 390 420 l 1
 390 0 l 1
 310 0 l 1
 310 420 l 1
 190 420 l 1
 190 0 l 1
 110 0 l 1
 110 420 l 1
 0 420 l 1
 0 500 l 1
 110 500 l 1
 110 860 l 1
 190 860 l 1
 190 796 234 728 310 697 c 1
 310 750 l 2
 310 830 372 900 450 900 c 0
 530 900 590 840 590 760 c 0
 590 667 497 600 400 600 c 2
 390 600 l 1
 390 500 l 1
 600 500 l 1
400 680 m 2
 452 680 510 710 510 760 c 0
 510 795 485 820 450 820 c 0
 417 820 390 789 390 750 c 2
 390 680 l 1
 400 680 l 2
190 500 m 1
 310 500 l 1
 310 613 l 1
 265 626 223 649 190 681 c 1
 190 500 l 1
EndSplineSet
EndChar

StartChar: L
Encoding: 76 76 44
Width: 600
VWidth: 0
Flags: HW
LayerCount: 2
Fore
SplineSet
167 -205 m 1
 93 -175 l 1
 200 79 l 1
 155 98 117 121 87 144 c 0
 29 189 0 241 0 300 c 0
 0 359 30 412 85 450 c 0
 131 481 191 500 250 500 c 0
 338 500 405 467 408 466 c 2
 441 449 l 1
 306 125 l 1
 408 92 504 80 505 80 c 2
 495 0 l 1
 490 1 386 15 275 51 c 1
 167 -205 l 1
250 420 m 0
 207 420 162 407 130 385 c 0
 107 369 80 341 80 300 c 0
 80 229 167 181 231 153 c 1
 337 407 l 1
 315 413 285 420 250 420 c 0
EndSplineSet
EndChar

StartChar: M
Encoding: 77 77 45
Width: 600
VWidth: 0
Flags: HW
LayerCount: 2
Fore
SplineSet
500 550 m 0
 500 481 452 406 389 359 c 1
 413 331 436 301 456 266 c 0
 485 214 500 159 500 100 c 0
 500 -66 353 -203 347 -209 c 1
 293 -151 l 1
 294 -150 420 -30 420 100 c 0
 420 197 372 258 318 320 c 1
 286 307 253 300 220 300 c 0
 203 300 186 302 172 306 c 1
 203 223 245 80 300 80 c 1
 300 0 l 1
 240 0 203 41 177 85 c 0
 152 128 131 184 112 237 c 0
 82 321 48 420 0 420 c 1
 0 500 l 1
 107 500 118 380 220 380 c 0
 234 380 249 382 263 386 c 1
 228 432 200 483 200 550 c 0
 200 633 267 700 350 700 c 0
 433 700 500 633 500 550 c 0
337 420 m 1
 380 451 420 506 420 550 c 0
 420 589 389 620 350 620 c 0
 311 620 280 589 280 550 c 0
 280 501 304 461 337 420 c 1
EndSplineSet
EndChar

StartChar: N
Encoding: 78 78 46
Width: 600
VWidth: 0
Flags: HW
LayerCount: 2
Fore
SplineSet
-36 785 m 1
 13 848 95 900 200 900 c 0
 301 900 370 851 416 787 c 0
 471 709 500 596 500 450 c 0
 500 309 482 198 446 120 c 0
 399 16 334 0 300 0 c 0
 240 0 203 41 177 85 c 0
 152 128 131 184 112 237 c 0
 81 323 47 420 0 420 c 1
 0 500 l 1
 60 500 97 459 123 415 c 0
 148 372 169 316 188 263 c 0
 219 177 253 80 300 80 c 0
 326 80 353 107 374 153 c 0
 395 200 420 289 420 450 c 0
 420 577 396 678 351 741 c 0
 314 794 263 820 200 820 c 0
 132 820 69 789 27 735 c 1
 -36 785 l 1
EndSplineSet
EndChar

StartChar: O
Encoding: 79 79 47
Width: 600
VWidth: 0
Flags: HW
LayerCount: 2
Fore
SplineSet
250 0 m 0
 183 0 120 26 73 73 c 0
 26 120 0 183 0 250 c 0
 0 317 26 380 73 427 c 0
 120 474 183 500 250 500 c 2
 600 500 l 1
 600 420 l 1
 434 420 l 1
 477 374 500 314 500 250 c 0
 500 183 474 120 427 73 c 0
 380 26 317 0 250 0 c 0
250 420 m 0
 156 420 80 344 80 250 c 0
 80 156 156 80 250 80 c 0
 344 80 420 156 420 250 c 0
 420 344 344 420 250 420 c 0
EndSplineSet
EndChar

StartChar: P
Encoding: 80 80 48
Width: 600
VWidth: 0
Flags: HW
LayerCount: 2
Fore
SplineSet
600 500 m 1
 600 420 l 1
 290 420 l 1
 290 0 l 1
 210 0 l 1
 210 420 l 1
 0 420 l 1
 0 500 l 1
 210 500 l 1
 210 610 l 1
 100 610 l 2
 89 610 80 601 80 590 c 0
 80 586 81 583 83 580 c 1
 13 540 l 1
 4 555 0 572 0 590 c 0
 0 645 45 690 100 690 c 2
 210 690 l 1
 210 810 l 1
 0 810 l 1
 0 887 l 1
 213 1100 l 1
 290 1100 l 1
 290 890 l 1
 410 890 l 1
 410 955 l 2
 410 1035 473 1100 550 1100 c 0
 627 1100 690 1035 690 955 c 0
 690 875 627 810 550 810 c 2
 490 810 l 1
 490 750 l 2
 490 673 427 610 350 610 c 2
 290 610 l 1
 290 500 l 1
 600 500 l 1
410 810 m 1
 290 810 l 1
 290 690 l 1
 350 690 l 2
 383 690 410 717 410 750 c 2
 410 810 l 1
490 955 m 2
 490 890 l 1
 550 890 l 2
 583 890 610 919 610 955 c 0
 610 991 583 1020 550 1020 c 0
 517 1020 490 991 490 955 c 2
210 890 m 1
 210 983 l 1
 117 890 l 1
 210 890 l 1
EndSplineSet
EndChar

StartChar: Q
Encoding: 81 81 49
Width: 600
VWidth: 0
Flags: HW
LayerCount: 2
Fore
SplineSet
213 700 m 1
 290 700 l 1
 290 500 l 1
 600 500 l 1
 600 420 l 1
 290 420 l 1
 290 -200 l 1
 210 -200 l 1
 210 420 l 1
 0 420 l 1
 0 487 l 1
 213 700 l 1
210 500 m 1
 210 583 l 1
 127 500 l 1
 210 500 l 1
EndSplineSet
EndChar

StartChar: R
Encoding: 82 82 50
Width: 600
VWidth: 0
Flags: HW
LayerCount: 2
Fore
SplineSet
-36 785 m 1
 13 848 95 900 200 900 c 0
 280 900 355 869 412 812 c 0
 469 755 500 680 500 600 c 0
 500 511 461 438 414 389 c 0
 360 333 289 300 220 300 c 0
 203 300 186 302 172 306 c 1
 203 223 245 80 300 80 c 1
 300 0 l 1
 240 0 203 41 177 85 c 0
 152 128 131 184 112 237 c 0
 82 321 48 420 0 420 c 1
 0 500 l 1
 107 500 118 380 220 380 c 0
 268 380 317 403 356 444 c 0
 397 487 420 542 420 600 c 0
 420 721 321 820 200 820 c 0
 132 820 69 789 27 735 c 1
 -36 785 l 1
EndSplineSet
EndChar

StartChar: S
Encoding: 83 83 51
Width: 600
VWidth: 0
Flags: HW
LayerCount: 2
Fore
SplineSet
500 900 m 0
 587 900 650 837 650 750 c 0
 650 688 621 615 563 533 c 0
 555 521 546 510 538 500 c 1
 600 500 l 1
 600 420 l 1
 250 420 l 2
 156 420 80 344 80 250 c 0
 80 156 156 80 250 80 c 0
 325 80 392 130 413 201 c 1
 490 179 l 1
 462 83 369 0 250 0 c 0
 183 0 120 26 73 73 c 0
 26 120 0 183 0 250 c 0
 0 317 26 380 73 427 c 0
 120 474 183 500 250 500 c 2
 433 500 l 1
 447 515 473 544 498 580 c 0
 545 646 570 705 570 750 c 0
 570 802 534 820 500 820 c 0
 461 820 430 789 430 750 c 0
 430 739 433 728 438 718 c 1
 366 682 l 1
 355 703 350 726 350 750 c 0
 350 833 417 900 500 900 c 0
EndSplineSet
EndChar

StartChar: T
Encoding: 84 84 52
Width: 600
VWidth: 0
Flags: HW
LayerCount: 2
Fore
SplineSet
600 500 m 1
 600 420 l 1
 390 420 l 1
 390 0 l 1
 310 0 l 1
 310 420 l 1
 190 420 l 1
 190 0 l 1
 110 0 l 1
 110 420 l 1
 0 420 l 1
 0 500 l 1
 110 500 l 1
 110 610 l 1
 -100 610 l 1
 -100 687 l 1
 113 900 l 1
 190 900 l 1
 190 690 l 1
 310 690 l 1
 310 755 l 2
 310 835 373 900 450 900 c 0
 527 900 590 835 590 755 c 0
 590 675 527 610 450 610 c 2
 390 610 l 1
 390 500 l 1
 600 500 l 1
390 755 m 2
 390 690 l 1
 450 690 l 2
 483 690 510 719 510 755 c 0
 510 791 483 820 450 820 c 0
 417 820 390 791 390 755 c 2
110 690 m 1
 110 783 l 1
 17 690 l 1
 110 690 l 1
190 500 m 1
 310 500 l 1
 310 610 l 1
 190 610 l 1
 190 500 l 1
EndSplineSet
EndChar

StartChar: U
Encoding: 85 85 53
Width: 600
VWidth: 0
Flags: HW
LayerCount: 2
Fore
SplineSet
-36 785 m 1
 13 848 95 900 200 900 c 0
 301 900 370 851 416 787 c 0
 471 709 500 596 500 450 c 0
 500 293 494 193 480 128 c 0
 466 61 439 0 370 0 c 0
 353 0 338 3 325 11 c 1
 301 3 276 0 250 0 c 0
 183 0 120 26 73 73 c 0
 26 120 0 183 0 250 c 0
 0 317 26 380 73 427 c 0
 120 474 183 500 250 500 c 2
 330 500 l 1
 330 460 l 2
 330 311 332 205 343 140 c 0
 349 107 356 92 361 85 c 0
 364 80 366 80 370 80 c 0
 387 80 398 125 402 144 c 0
 414 204 420 298 420 450 c 0
 420 577 396 678 351 741 c 0
 314 794 263 820 200 820 c 0
 132 820 69 789 27 735 c 1
 -36 785 l 1
80 250 m 0
 80 156 156 80 250 80 c 0
 258 80 267 81 275 82 c 1
 271 95 267 110 264 127 c 0
 253 191 250 287 250 420 c 1
 156 420 80 344 80 250 c 0
EndSplineSet
EndChar

StartChar: V
Encoding: 86 86 54
Width: 600
VWidth: 0
Flags: HW
LayerCount: 2
Fore
SplineSet
294 500 m 1
 530 0 l 1
 442 0 l 1
 250 406 l 1
 58 0 l 1
 -30 0 l 1
 206 500 l 1
 294 500 l 1
EndSplineSet
EndChar

StartChar: W
Encoding: 87 87 55
Width: 600
VWidth: 0
Flags: HW
LayerCount: 2
Fore
SplineSet
60 700 m 0
 60 815 154 900 270 900 c 0
 401 900 469 806 491 694 c 1
 508 712 518 724 518 724 c 1
 582 676 l 1
 579 673 550 634 500 593 c 1
 496 435 367 300 220 300 c 0
 203 300 186 302 172 306 c 1
 203 223 245 80 300 80 c 1
 300 0 l 1
 240 0 203 41 177 85 c 0
 152 128 131 184 112 237 c 0
 82 321 48 420 0 420 c 1
 0 500 l 1
 107 500 118 380 220 380 c 0
 305 380 387 457 410 534 c 1
 369 514 321 500 270 500 c 0
 154 500 60 585 60 700 c 0
270 580 m 0
 327 580 380 605 419 632 c 1
 411 750 356 820 270 820 c 0
 195 820 140 770 140 700 c 0
 140 630 195 580 270 580 c 0
EndSplineSet
EndChar

StartChar: X
Encoding: 88 88 56
Width: 600
VWidth: 0
Flags: HW
LayerCount: 2
Fore
SplineSet
500 500 m 1
 500 420 l 1
 291 420 l 1
 302 232 394 80 500 80 c 1
 500 0 l 1
 400 0 332 72 289 143 c 0
 274 168 261 196 250 225 c 1
 222 150 176 80 120 40 c 0
 82 13 42 0 0 0 c 1
 0 80 l 1
 106 80 198 232 209 420 c 1
 0 420 l 1
 0 500 l 1
 500 500 l 1
EndSplineSet
EndChar

StartChar: Y
Encoding: 89 89 57
Width: 600
VWidth: 0
Flags: HW
LayerCount: 2
Fore
SplineSet
80 250 m 0
 80 156 156 80 250 80 c 0
 344 80 420 156 420 250 c 0
 420 344 344 420 250 420 c 0
 156 420 80 344 80 250 c 0
500 250 m 0
 500 130 433 20 372 -64 c 0
 311 -148 251 -207 248 -209 c 0
 230 -190 210 -170 192 -151 c 0
 193 -150 265 -81 328 12 c 1
 303 4 277 0 250 0 c 0
 183 0 120 26 73 73 c 0
 26 120 0 183 0 250 c 0
 0 317 26 380 73 427 c 0
 120 474 183 500 250 500 c 2
 600 500 l 1
 600 420 l 1
 434 420 l 1
 477 374 500 314 500 250 c 0
EndSplineSet
EndChar

StartChar: Z
Encoding: 90 90 58
Width: 600
VWidth: 0
Flags: HW
LayerCount: 2
Fore
SplineSet
455 600 m 0
 530 600 590 545 590 470 c 0
 590 416 556 370 495 339 c 0
 465 324 430 314 390 307 c 1
 390 0 l 1
 310 0 l 1
 310 300 l 1
 300 300 l 2
 221 300 144 323 90 363 c 1
 90 0 l 1
 10 0 l 1
 10 500 l 1
 90 500 l 1
 90 443 180 380 300 380 c 2
 310 380 l 1
 310 455 l 2
 310 535 375 600 455 600 c 0
460 411 m 0
 483 422 510 442 510 470 c 0
 510 500 488 520 455 520 c 0
 419 520 390 491 390 455 c 2
 390 388 l 1
 416 393 440 401 460 411 c 0
EndSplineSet
EndChar

StartChar: bracketleft
Encoding: 91 91 59
Width: 600
VWidth: 0
Flags: HW
LayerCount: 2
Fore
SplineSet
400 -100 m 1
 110 -100 l 1
 110 800 l 1
 400 800 l 1
 400 720 l 1
 190 720 l 1
 190 -20 l 1
 400 -20 l 1
 400 -100 l 1
EndSplineSet
EndChar

StartChar: backslash
Encoding: 92 92 60
Width: 600
VWidth: 0
Flags: HW
LayerCount: 2
Fore
SplineSet
532 -124 m 1
 460 -160 l 1
 -32 824 l 1
 40 860 l 1
 532 -124 l 1
EndSplineSet
EndChar

StartChar: bracketright
Encoding: 93 93 61
Width: 600
VWidth: 0
Flags: HW
LayerCount: 2
Fore
SplineSet
100 -100 m 1
 100 -20 l 1
 310 -20 l 1
 310 720 l 1
 100 720 l 1
 100 800 l 1
 390 800 l 1
 390 -100 l 1
 100 -100 l 1
EndSplineSet
EndChar

StartChar: asciicircum
Encoding: 94 94 62
Width: 600
VWidth: 0
Flags: HW
LayerCount: 2
Fore
SplineSet
452 392 m 1
 250 593 l 1
 48 392 l 1
 -8 448 l 1
 250 707 l 1
 508 448 l 1
 452 392 l 1
EndSplineSet
EndChar

StartChar: underscore
Encoding: 95 95 63
Width: 600
VWidth: 0
Flags: HW
LayerCount: 2
Fore
SplineSet
0 -200 m 1
 0 -120 l 1
 500 -120 l 1
 500 -200 l 1
 0 -200 l 1
EndSplineSet
EndChar

StartChar: grave
Encoding: 96 96 64
Width: 600
VWidth: 0
Flags: HW
LayerCount: 2
Fore
SplineSet
352 492 m 1
 92 752 l 1
 148 808 l 1
 408 548 l 1
 352 492 l 1
EndSplineSet
EndChar

StartChar: a
Encoding: 97 97 65
Width: 600
VWidth: 0
Flags: HW
LayerCount: 2
Fore
SplineSet
452 -8 m 1
 450 -6 430 14 406 55 c 1
 362 20 307 0 250 0 c 0
 183 0 120 26 73 73 c 0
 26 120 0 183 0 250 c 0
 0 317 26 380 73 427 c 0
 120 474 183 500 250 500 c 2
 390 500 l 1
 390 460 l 2
 390 310 422 206 449 145 c 0
 477 82 505 51 508 48 c 1
 452 -8 l 1
250 420 m 2
 156 420 80 344 80 250 c 0
 80 156 156 80 250 80 c 0
 295 80 337 98 369 129 c 1
 341 198 316 293 311 420 c 1
 250 420 l 2
EndSplineSet
EndChar

StartChar: b
Encoding: 98 98 66
Width: 600
VWidth: 0
Flags: HW
LayerCount: 2
Fore
SplineSet
-36 785 m 1
 13 848 95 900 200 900 c 0
 301 900 370 851 416 787 c 0
 471 709 500 596 500 450 c 0
 500 258 465 95 345 28 c 0
 311 9 272 0 230 0 c 0
 171 0 112 27 68 74 c 0
 24 122 0 184 0 250 c 0
 0 317 26 380 73 427 c 0
 120 474 183 500 250 500 c 0
 274 500 298 497 321 490 c 1
 299 413 l 1
 283 418 267 420 250 420 c 0
 156 420 80 344 80 250 c 0
 80 159 150 80 230 80 c 0
 356 80 420 204 420 450 c 0
 420 577 396 678 351 741 c 0
 314 794 263 820 200 820 c 0
 132 820 69 789 27 735 c 1
 -36 785 l 1
EndSplineSet
EndChar

StartChar: c
Encoding: 99 99 67
Width: 600
VWidth: 0
Flags: HW
LayerCount: 2
Fore
SplineSet
490 179 m 1
 462 83 369 0 250 0 c 0
 183 0 120 26 73 73 c 0
 26 120 0 183 0 250 c 0
 0 317 26 380 73 427 c 0
 120 474 183 500 250 500 c 2
 600 500 l 1
 600 420 l 1
 250 420 l 2
 156 420 80 344 80 250 c 0
 80 156 156 80 250 80 c 0
 325 80 392 130 413 201 c 1
 490 179 l 1
EndSplineSet
EndChar

StartChar: d
Encoding: 100 100 68
Width: 600
VWidth: 0
Flags: HW
LayerCount: 2
Fore
SplineSet
500 220 m 0
 500 93 388 0 250 0 c 0
 112 0 0 93 0 220 c 0
 0 287 29 340 88 377 c 0
 132 405 187 420 241 435 c 1
 217 465 200 503 200 550 c 0
 200 633 267 700 350 700 c 0
 433 700 500 633 500 550 c 0
 500 502 481 461 443 431 c 0
 429 420 413 411 397 403 c 1
 418 385 439 366 456 344 c 0
 486 306 500 266 500 220 c 0
131 309 m 0
 95 286 80 260 80 220 c 0
 80 151 144 80 250 80 c 0
 356 80 420 151 420 220 c 0
 420 288 363 328 309 371 c 1
 308 371 l 1
 247 354 177 338 131 309 c 0
327 460 m 1
 369 475 420 497 420 550 c 0
 420 589 389 620 350 620 c 0
 311 620 280 589 280 550 c 0
 280 514 298 487 327 460 c 1
EndSplineSet
EndChar

StartChar: e
Encoding: 101 101 69
Width: 600
VWidth: 0
Flags: HW
LayerCount: 2
Fore
SplineSet
490 179 m 1
 462 83 369 0 250 0 c 0
 183 0 120 26 73 73 c 0
 26 120 0 183 0 250 c 0
 0 317 26 380 73 427 c 0
 120 474 183 500 250 500 c 0
 274 500 298 497 321 490 c 1
 299 413 l 1
 283 418 267 420 250 420 c 0
 156 420 80 344 80 250 c 0
 80 156 156 80 250 80 c 0
 325 80 392 130 413 201 c 1
 490 179 l 1
EndSplineSet
EndChar

StartChar: f
Encoding: 102 102 70
Width: 600
VWidth: 0
Flags: HW
LayerCount: 2
Fore
SplineSet
410 950 m 2
 410 1030 472 1100 550 1100 c 0
 630 1100 690 1040 690 960 c 0
 690 867 597 800 500 800 c 2
 490 800 l 1
 490 750 l 2
 490 673 427 610 350 610 c 2
 290 610 l 1
 290 0 l 1
 210 0 l 1
 210 610 l 1
 100 610 l 2
 89 610 80 601 80 590 c 0
 80 586 81 583 83 580 c 1
 13 540 l 1
 4 555 0 572 0 590 c 0
 0 645 45 690 100 690 c 2
 210 690 l 1
 210 1060 l 1
 290 1060 l 1
 290 996 334 928 410 897 c 1
 410 950 l 2
410 750 m 2
 410 813 l 1
 365 826 323 849 290 881 c 1
 290 690 l 1
 350 690 l 2
 383 690 410 717 410 750 c 2
500 880 m 2
 552 880 610 910 610 960 c 0
 610 995 585 1020 550 1020 c 0
 517 1020 490 989 490 950 c 2
 490 880 l 1
 500 880 l 2
EndSplineSet
EndChar

StartChar: g
Encoding: 103 103 71
Width: 600
VWidth: 0
Flags: HW
LayerCount: 2
Fore
SplineSet
347 -209 m 1
 329 -189 311 -171 293 -151 c 1
 294 -150 398 -51 417 65 c 1
 363 22 299 0 230 -0 c 0
 168 0 109 24 65 68 c 0
 23 110 0 165 0 220 c 0
 0 287 29 340 88 377 c 0
 130 403 181 419 232 433 c 1
 213 467 200 505 200 550 c 0
 200 633 267 700 350 700 c 0
 433 700 500 633 500 550 c 0
 500 492 473 446 419 414 c 0
 402 404 384 396 364 389 c 1
 397 351 430 313 456 266 c 0
 485 214 500 159 500 100 c 0
 500 -66 353 -203 347 -209 c 1
410 172 m 1
 388 248 329 304 281 363 c 1
 196 340 80 319 80 220 c 0
 80 154 142 80 230 80 c 0
 282 80 329 96 369 129 c 0
 390 146 403 162 410 172 c 1
350 620 m 0
 311 620 280 589 280 550 c 0
 280 515 292 485 311 456 c 1
 385 480 420 502 420 550 c 0
 420 589 389 620 350 620 c 0
EndSplineSet
EndChar

StartChar: h
Encoding: 104 104 72
Width: 600
VWidth: 0
Flags: HW
LayerCount: 2
Fore
SplineSet
490 179 m 1
 462 83 369 0 250 0 c 0
 183 0 120 26 73 73 c 0
 26 120 0 183 0 250 c 0
 0 314 23 374 66 420 c 1
 0 420 l 1
 0 500 l 1
 300 500 l 1
 300 420 l 1
 250 420 l 2
 156 420 80 344 80 250 c 0
 80 156 156 80 250 80 c 0
 325 80 392 130 413 201 c 1
 490 179 l 1
EndSplineSet
EndChar

StartChar: i
Encoding: 105 105 73
Width: 600
VWidth: 0
Flags: HW
LayerCount: 2
Fore
SplineSet
400 0 m 1
 340 0 303 41 277 85 c 0
 252 128 231 184 212 237 c 0
 181 323 147 420 100 420 c 1
 100 500 l 1
 160 500 197 459 223 415 c 0
 248 372 269 316 288 263 c 0
 319 177 353 80 400 80 c 1
 400 0 l 1
EndSplineSet
EndChar

StartChar: j
Encoding: 106 106 74
Width: 600
VWidth: 0
Flags: HW
LayerCount: 2
Fore
SplineSet
500 200 m 0
 500 93 424 0 320 0 c 0
 252 0 208 42 178 89 c 0
 148 135 127 194 106 251 c 0
 86 305 49 420 -0 420 c 1
 -0 500 l 1
 80 500 119 428 146 368 c 1
 175 377 219 391 264 411 c 1
 229 446 200 489 200 550 c 0
 200 633 267 700 350 700 c 0
 433 700 500 633 500 550 c 0
 500 504 478 461 434 421 c 0
 425 413 415 405 404 397 c 1
 453 353 500 295 500 200 c 0
331 354 m 1
 283 330 213 305 175 294 c 1
 211 197 250 80 320 80 c 0
 377 80 420 132 420 200 c 0
 420 274 380 313 331 354 c 1
350 620 m 0
 311 620 280 589 280 550 c 0
 280 510 302 482 340 450 c 1
 392 483 420 518 420 550 c 0
 420 589 389 620 350 620 c 0
EndSplineSet
EndChar

StartChar: k
Encoding: 107 107 75
Width: 600
VWidth: -200
Flags: HW
LayerCount: 2
Fore
SplineSet
390 0 m 1
 310 0 l 1
 310 613 l 1
 265 626 223 649 190 681 c 1
 190 0 l 1
 110 0 l 1
 110 860 l 1
 190 860 l 1
 190 796 234 728 310 697 c 1
 310 750 l 2
 310 830 372 900 450 900 c 0
 530 900 590 840 590 760 c 0
 590 667 497 600 400 600 c 2
 390 600 l 1
 390 0 l 1
400 680 m 2
 452 680 510 710 510 760 c 0
 510 795 485 820 450 820 c 0
 417 820 390 789 390 750 c 2
 390 680 l 1
 400 680 l 2
EndSplineSet
EndChar

StartChar: l
Encoding: 108 108 76
Width: 600
VWidth: 0
Flags: HW
LayerCount: 2
Fore
SplineSet
167 -205 m 1
 93 -175 l 1
 200 79 l 1
 155 98 117 121 87 144 c 0
 29 189 0 241 0 300 c 0
 0 359 30 412 85 450 c 0
 131 481 191 500 250 500 c 0
 338 500 405 467 408 466 c 2
 441 449 l 1
 306 125 l 1
 408 92 504 80 505 80 c 2
 495 0 l 1
 490 1 386 15 275 51 c 1
 167 -205 l 1
250 420 m 0
 207 420 162 407 130 385 c 0
 107 369 80 341 80 300 c 0
 80 229 167 181 231 153 c 1
 337 407 l 1
 315 413 285 420 250 420 c 0
EndSplineSet
EndChar

StartChar: m
Encoding: 109 109 77
Width: 600
VWidth: 0
Flags: HW
LayerCount: 2
Fore
SplineSet
500 550 m 0
 500 481 452 406 389 359 c 1
 413 331 436 301 456 266 c 0
 485 214 500 159 500 100 c 0
 500 -66 353 -203 347 -209 c 1
 293 -151 l 1
 294 -150 420 -30 420 100 c 0
 420 197 372 258 318 320 c 1
 286 307 253 300 220 300 c 0
 203 300 186 302 172 306 c 1
 203 223 245 80 300 80 c 1
 300 0 l 1
 240 0 203 41 177 85 c 0
 152 128 131 184 112 237 c 0
 82 321 48 420 0 420 c 1
 0 500 l 1
 107 500 118 380 220 380 c 0
 234 380 249 382 263 386 c 1
 228 432 200 483 200 550 c 0
 200 633 267 700 350 700 c 0
 433 700 500 633 500 550 c 0
337 420 m 1
 380 451 420 506 420 550 c 0
 420 589 389 620 350 620 c 0
 311 620 280 589 280 550 c 0
 280 501 304 461 337 420 c 1
EndSplineSet
EndChar

StartChar: n
Encoding: 110 110 78
Width: 600
VWidth: 0
Flags: HW
LayerCount: 2
Fore
SplineSet
-36 785 m 1
 13 848 95 900 200 900 c 0
 301 900 370 851 416 787 c 0
 471 709 500 596 500 450 c 0
 500 309 482 198 446 120 c 0
 399 16 334 0 300 0 c 0
 240 0 203 41 177 85 c 0
 152 128 131 184 112 237 c 0
 81 323 47 420 0 420 c 1
 0 500 l 1
 60 500 97 459 123 415 c 0
 148 372 169 316 188 263 c 0
 219 177 253 80 300 80 c 0
 326 80 353 107 374 153 c 0
 395 200 420 289 420 450 c 0
 420 577 396 678 351 741 c 0
 314 794 263 820 200 820 c 0
 132 820 69 789 27 735 c 1
 -36 785 l 1
EndSplineSet
EndChar

StartChar: o
Encoding: 111 111 79
Width: 600
VWidth: 0
Flags: HW
LayerCount: 2
Fore
SplineSet
250 0 m 0
 183 0 120 26 73 73 c 0
 26 120 0 183 0 250 c 0
 0 317 26 380 73 427 c 0
 120 474 183 500 250 500 c 0
 317 500 380 474 427 427 c 0
 474 380 500 317 500 250 c 0
 500 183 474 120 427 73 c 0
 380 26 317 0 250 0 c 0
250 420 m 0
 156 420 80 344 80 250 c 0
 80 156 156 80 250 80 c 0
 344 80 420 156 420 250 c 0
 420 344 344 420 250 420 c 0
EndSplineSet
EndChar

StartChar: p
Encoding: 112 112 80
Width: 600
VWidth: 0
Flags: HW
LayerCount: 2
Fore
SplineSet
213 1100 m 1
 290 1100 l 1
 290 890 l 1
 410 890 l 1
 410 955 l 2
 410 1035 473 1100 550 1100 c 0
 627 1100 690 1035 690 955 c 0
 690 875 627 810 550 810 c 2
 490 810 l 1
 490 750 l 2
 490 673 427 610 350 610 c 2
 290 610 l 1
 290 0 l 1
 210 0 l 1
 210 610 l 1
 100 610 l 2
 89 610 80 601 80 590 c 0
 80 586 81 583 83 580 c 1
 13 540 l 1
 4 555 0 572 0 590 c 0
 0 645 45 690 100 690 c 2
 210 690 l 1
 210 810 l 1
 0 810 l 1
 0 887 l 1
 213 1100 l 1
210 890 m 1
 210 983 l 1
 117 890 l 1
 210 890 l 1
490 955 m 2
 490 890 l 1
 550 890 l 2
 583 890 610 919 610 955 c 0
 610 991 583 1020 550 1020 c 0
 517 1020 490 991 490 955 c 2
410 810 m 1
 290 810 l 1
 290 690 l 1
 350 690 l 2
 383 690 410 717 410 750 c 2
 410 810 l 1
EndSplineSet
EndChar

StartChar: q
Encoding: 113 113 81
Width: 600
VWidth: 0
Flags: HW
LayerCount: 2
Fore
SplineSet
213 700 m 1
 290 700 l 1
 290 500 l 1
 600 500 l 1
 600 420 l 1
 290 420 l 1
 290 -200 l 1
 210 -200 l 1
 210 420 l 1
 0 420 l 1
 0 487 l 1
 213 700 l 1
210 500 m 1
 210 583 l 1
 127 500 l 1
 210 500 l 1
EndSplineSet
EndChar

StartChar: r
Encoding: 114 114 82
Width: 600
VWidth: 0
Flags: HW
LayerCount: 2
Fore
SplineSet
-36 785 m 1
 13 848 95 900 200 900 c 0
 280 900 355 869 412 812 c 0
 469 755 500 680 500 600 c 0
 500 511 461 438 414 389 c 0
 360 333 289 300 220 300 c 0
 203 300 186 302 172 306 c 1
 203 223 245 80 300 80 c 1
 300 0 l 1
 240 0 203 41 177 85 c 0
 152 128 131 184 112 237 c 0
 82 321 48 420 0 420 c 1
 0 500 l 1
 107 500 118 380 220 380 c 0
 268 380 317 403 356 444 c 0
 397 487 420 542 420 600 c 0
 420 721 321 820 200 820 c 0
 132 820 69 789 27 735 c 1
 -36 785 l 1
EndSplineSet
EndChar

StartChar: s
Encoding: 115 115 83
Width: 600
VWidth: 0
Flags: HW
LayerCount: 2
Fore
SplineSet
490 179 m 1
 462 83 369 0 250 0 c 0
 183 0 120 26 73 73 c 0
 26 120 0 183 0 250 c 0
 0 396 118 438 229 474 c 0
 347 512 420 541 420 650 c 0
 420 745 323 820 200 820 c 0
 132 820 69 789 27 735 c 1
 -36 785 l 1
 13 848 95 900 200 900 c 0
 355 900 500 798 500 650 c 0
 500 565 466 509 415 470 c 0
 368 435 310 416 253 398 c 0
 171 372 80 349 80 250 c 0
 80 156 156 80 250 80 c 0
 325 80 392 130 413 201 c 1
 490 179 l 1
EndSplineSet
EndChar

StartChar: t
Encoding: 116 116 84
Width: 600
VWidth: 0
Flags: HW
LayerCount: 2
Fore
SplineSet
390 0 m 1
 310 0 l 1
 310 610 l 1
 190 610 l 1
 190 0 l 1
 110 0 l 1
 110 610 l 1
 -100 610 l 1
 -100 687 l 1
 113 900 l 1
 190 900 l 1
 190 690 l 1
 310 690 l 1
 310 755 l 2
 310 835 373 900 450 900 c 0
 527 900 590 835 590 755 c 0
 590 675 527 610 450 610 c 2
 390 610 l 1
 390 0 l 1
110 690 m 1
 110 783 l 1
 17 690 l 1
 110 690 l 1
390 755 m 2
 390 690 l 1
 450 690 l 2
 483 690 510 719 510 755 c 0
 510 791 483 820 450 820 c 0
 417 820 390 791 390 755 c 2
EndSplineSet
EndChar

StartChar: u
Encoding: 117 117 85
Width: 600
VWidth: 0
Flags: HW
LayerCount: 2
Fore
SplineSet
-36 785 m 1
 13 848 95 900 200 900 c 0
 301 900 370 851 416 787 c 0
 471 709 500 596 500 450 c 0
 500 293 494 193 480 128 c 0
 466 61 439 0 370 0 c 0
 353 0 338 3 325 11 c 1
 301 3 276 0 250 0 c 0
 183 0 120 26 73 73 c 0
 26 120 0 183 0 250 c 0
 0 317 26 380 73 427 c 0
 120 474 183 500 250 500 c 2
 330 500 l 1
 330 460 l 2
 330 311 332 205 343 140 c 0
 349 107 356 92 361 85 c 0
 364 80 366 80 370 80 c 0
 387 80 398 125 402 144 c 0
 414 204 420 298 420 450 c 0
 420 577 396 678 351 741 c 0
 314 794 263 820 200 820 c 0
 132 820 69 789 27 735 c 1
 -36 785 l 1
80 250 m 0
 80 156 156 80 250 80 c 0
 258 80 267 81 275 82 c 1
 271 95 267 110 264 127 c 0
 253 191 250 287 250 420 c 1
 156 420 80 344 80 250 c 0
EndSplineSet
EndChar

StartChar: v
Encoding: 118 118 86
Width: 600
VWidth: 0
Flags: HW
LayerCount: 2
Fore
SplineSet
294 500 m 1
 530 0 l 1
 442 0 l 1
 250 406 l 1
 58 0 l 1
 -30 0 l 1
 206 500 l 1
 294 500 l 1
EndSplineSet
EndChar

StartChar: w
Encoding: 119 119 87
Width: 600
VWidth: 0
Flags: HW
LayerCount: 2
Fore
SplineSet
455 600 m 0
 530 600 590 545 590 470 c 0
 590 416 556 370 495 339 c 0
 465 324 430 314 390 307 c 1
 390 -0 l 2
 390 -94 317 -149 239 -179 c 0
 172 -204 106 -210 103 -210 c 1
 97 -130 l 2
 98 -130 156 -125 212 -103 c 0
 277 -78 310 -44 310 0 c 2
 310 300 l 1
 300 300 l 2
 221 300 144 323 90 363 c 1
 90 0 l 1
 10 0 l 1
 10 500 l 1
 90 500 l 1
 90 443 180 380 300 380 c 2
 310 380 l 1
 310 455 l 2
 310 535 375 600 455 600 c 0
460 411 m 0
 483 422 510 442 510 470 c 0
 510 500 488 520 455 520 c 0
 419 520 390 491 390 455 c 2
 390 388 l 1
 416 393 440 401 460 411 c 0
EndSplineSet
EndChar

StartChar: x
Encoding: 120 120 88
Width: 600
VWidth: 0
Flags: HW
LayerCount: 2
Fore
SplineSet
500 500 m 1
 500 420 l 1
 291 420 l 1
 302 232 394 80 500 80 c 1
 500 0 l 1
 400 0 332 72 289 143 c 0
 274 168 261 196 250 225 c 1
 222 150 176 80 120 40 c 0
 82 13 42 0 0 0 c 1
 0 80 l 1
 106 80 198 232 209 420 c 1
 0 420 l 1
 0 500 l 1
 500 500 l 1
EndSplineSet
EndChar

StartChar: y
Encoding: 121 121 89
Width: 600
VWidth: 0
Flags: HW
LayerCount: 2
Fore
SplineSet
500 250 m 0
 500 130 433 20 372 -64 c 0
 311 -148 251 -207 248 -209 c 1
 230 -190 210 -170 192 -151 c 1
 193 -150 265 -81 328 12 c 1
 303 4 277 0 250 0 c 0
 183 0 120 26 73 73 c 0
 26 120 0 183 0 250 c 0
 0 317 26 380 73 427 c 0
 120 474 183 500 250 500 c 0
 317 500 380 474 427 427 c 0
 474 380 500 317 500 250 c 0
80 250 m 0
 80 156 156 80 250 80 c 0
 344 80 420 156 420 250 c 0
 420 344 344 420 250 420 c 0
 156 420 80 344 80 250 c 0
EndSplineSet
EndChar

StartChar: z
Encoding: 122 122 90
Width: 600
VWidth: 0
Flags: HW
LayerCount: 2
Fore
SplineSet
455 600 m 0
 530 600 590 545 590 470 c 0
 590 416 556 370 495 339 c 0
 465 324 430 314 390 307 c 1
 390 0 l 1
 310 0 l 1
 310 300 l 1
 300 300 l 2
 221 300 144 323 90 363 c 1
 90 0 l 1
 10 0 l 1
 10 500 l 1
 90 500 l 1
 90 443 180 380 300 380 c 2
 310 380 l 1
 310 455 l 2
 310 535 375 600 455 600 c 0
460 411 m 0
 483 422 510 442 510 470 c 0
 510 500 488 520 455 520 c 0
 419 520 390 491 390 455 c 2
 390 388 l 1
 416 393 440 401 460 411 c 0
EndSplineSet
EndChar

StartChar: braceleft
Encoding: 123 123 91
Width: 600
VWidth: 0
Flags: HW
LayerCount: 2
Fore
SplineSet
218 348 m 1
 262 312 290 257 290 180 c 2
 290 90 l 2
 290 44 307 14 341 -4 c 0
 370 -19 400 -20 400 -20 c 1
 400 -100 l 1
 395 -100 352 -99 307 -77 c 0
 249 -48 210 7 210 90 c 2
 210 180 l 2
 210 234 193 272 158 293 c 0
 130 310 100 310 100 310 c 1
 100 390 l 1
 100 390 130 391 159 406 c 0
 193 424 210 454 210 500 c 2
 210 590 l 2
 210 678 247 741 305 774 c 0
 350 800 395 800 400 800 c 1
 400 720 l 1
 400 720 370 720 342 703 c 0
 307 682 290 644 290 590 c 2
 290 500 l 2
 290 431 261 379 218 348 c 1
EndSplineSet
EndChar

StartChar: bar
Encoding: 124 124 92
Width: 600
VWidth: 0
Flags: HW
LayerCount: 2
Fore
SplineSet
210 -140 m 1
 210 840 l 1
 290 840 l 1
 290 -140 l 1
 210 -140 l 1
EndSplineSet
EndChar

StartChar: braceright
Encoding: 125 125 93
Width: 600
VWidth: 0
Flags: HW
LayerCount: 2
Fore
SplineSet
282 352 m 1
 238 388 210 443 210 520 c 2
 210 610 l 2
 210 656 193 686 159 704 c 0
 130 719 100 720 100 720 c 1
 100 800 l 1
 105 800 148 799 193 777 c 0
 251 748 290 693 290 610 c 2
 290 520 l 2
 290 466 307 428 342 407 c 0
 370 390 400 390 400 390 c 1
 400 310 l 1
 400 310 370 309 341 294 c 0
 307 276 290 246 290 200 c 2
 290 110 l 2
 290 22 253 -41 195 -74 c 0
 150 -100 105 -100 100 -100 c 1
 100 -20 l 1
 100 -20 130 -20 158 -3 c 0
 193 18 210 56 210 110 c 2
 210 200 l 2
 210 269 239 321 282 352 c 1
EndSplineSet
EndChar

StartChar: asciitilde
Encoding: 126 126 94
Width: 600
VWidth: 0
Flags: HW
LayerCount: 2
Fore
SplineSet
350 500 m 0
 295 500 253 541 222 572 c 0
 197 597 173 620 150 620 c 0
 89 620 80 518 80 517 c 2
 0 523 l 1
 0 527 4 566 21 606 c 0
 47 667 93 700 150 700 c 0
 205 700 247 659 278 628 c 0
 303 603 327 580 350 580 c 0
 411 580 420 682 420 683 c 2
 500 677 l 1
 500 673 496 634 479 594 c 0
 453 533 407 500 350 500 c 0
EndSplineSet
EndChar

StartChar: uni007F
Encoding: 127 127 95
Width: 600
VWidth: 0
Flags: HW
LayerCount: 2
Fore
SplineSet
0 500 m 1
 0 600 l 1
 100 600 l 1
 100 500 l 1
 0 500 l 1
200 500 m 1
 200 600 l 1
 300 600 l 1
 300 500 l 1
 200 500 l 1
400 500 m 1
 400 600 l 1
 500 600 l 1
 500 500 l 1
 400 500 l 1
100 400 m 1
 100 500 l 1
 200 500 l 1
 200 400 l 1
 100 400 l 1
300 400 m 1
 300 500 l 1
 400 500 l 1
 400 400 l 1
 300 400 l 1
0 300 m 1
 0 400 l 1
 100 400 l 1
 100 300 l 1
 0 300 l 1
200 300 m 1
 200 400 l 1
 300 400 l 1
 300 300 l 1
 200 300 l 1
400 300 m 1
 400 400 l 1
 500 400 l 1
 500 300 l 1
 400 300 l 1
100 200 m 1
 100 300 l 1
 200 300 l 1
 200 200 l 1
 100 200 l 1
300 200 m 1
 300 300 l 1
 400 300 l 1
 400 200 l 1
 300 200 l 1
0 100 m 1
 0 200 l 1
 100 200 l 1
 100 100 l 1
 0 100 l 1
200 100 m 1
 200 200 l 1
 300 200 l 1
 300 100 l 1
 200 100 l 1
400 100 m 1
 400 200 l 1
 500 200 l 1
 500 100 l 1
 400 100 l 1
EndSplineSet
EndChar

StartChar: uni0082
Encoding: 130 130 96
Width: 600
VWidth: 0
Flags: HW
LayerCount: 2
Fore
SplineSet
350 610 m 2
 290 610 l 1
 290 80 l 1
 450 80 l 2
 527 80 590 17 590 -60 c 0
 590 -137 527 -200 450 -200 c 0
 373 -200 310 -137 310 -60 c 0
 310 -39 315 -18 324 0 c 1
 150 0 l 2
 67 0 0 67 0 150 c 0
 0 233 67 300 150 300 c 2
 210 300 l 1
 210 610 l 1
 100 610 l 2
 89 610 80 601 80 590 c 0
 80 586 81 583 83 580 c 1
 13 540 l 1
 4 555 0 572 0 590 c 0
 0 645 45 690 100 690 c 2
 210 690 l 1
 210 810 l 1
 0 810 l 1
 0 887 l 1
 213 1100 l 1
 290 1100 l 1
 290 890 l 1
 410 890 l 1
 410 955 l 2
 410 1035 473 1100 550 1100 c 0
 627 1100 690 1035 690 955 c 0
 690 875 627 810 550 810 c 2
 490 810 l 1
 490 750 l 2
 490 673 427 610 350 610 c 2
490 955 m 2
 490 890 l 1
 550 890 l 2
 583 890 610 919 610 955 c 0
 610 991 583 1020 550 1020 c 0
 517 1020 490 991 490 955 c 2
290 810 m 1
 290 690 l 1
 350 690 l 2
 383 690 410 717 410 750 c 2
 410 810 l 1
 290 810 l 1
510 -60 m 0
 510 -27 483 0 450 0 c 0
 417 0 390 -27 390 -60 c 0
 390 -93 417 -120 450 -120 c 0
 483 -120 510 -93 510 -60 c 0
117 890 m 1
 210 890 l 1
 210 983 l 1
 117 890 l 1
150 80 m 2
 210 80 l 1
 210 220 l 1
 150 220 l 2
 111 220 80 189 80 150 c 0
 80 111 111 80 150 80 c 2
EndSplineSet
EndChar

StartChar: uni0083
Encoding: 131 131 97
Width: 600
VWidth: 0
Flags: HW
LayerCount: 2
Fore
SplineSet
106 420 m 1
 157 348 200 253 200 140 c 0
 200 41 166 -45 124 -112 c 0
 87 -172 49 -208 47 -209 c 1
 31 -192 16 -176 0 -159 c 1
 0 -143 l 1
 11 -131 34 -105 57 -68 c 0
 99 0 120 70 120 140 c 0
 120 281 33 387 3 420 c 1
 0 420 l 1
 0 500 l 1
 600 500 l 1
 600 420 l 1
 106 420 l 1
EndSplineSet
EndChar

StartChar: uni0084
Encoding: 132 132 98
Width: 600
VWidth: 0
Flags: HW
LayerCount: 2
Fore
SplineSet
600 690 m 1
 600 610 l 1
 290 610 l 1
 290 500 l 1
 600 500 l 1
 600 420 l 1
 290 420 l 1
 290 0 l 1
 210 0 l 1
 210 420 l 1
 0 420 l 1
 0 500 l 1
 210 500 l 1
 210 610 l 1
 0 610 l 1
 0 687 l 1
 213 900 l 1
 290 900 l 1
 290 690 l 1
 600 690 l 1
210 690 m 1
 210 783 l 1
 117 690 l 1
 210 690 l 1
EndSplineSet
EndChar

StartChar: uni0085
Encoding: 133 133 99
Width: 600
VWidth: 0
Flags: HW
LayerCount: 2
Fore
SplineSet
290 755 m 2
 290 690 l 1
 350 690 l 2
 383 690 410 719 410 755 c 0
 410 791 383 820 350 820 c 0
 317 820 290 791 290 755 c 2
0 500 m 1
 210 500 l 1
 210 610 l 1
 0 610 l 1
 0 690 l 1
 210 690 l 1
 210 755 l 2
 210 835 273 900 350 900 c 0
 427 900 490 835 490 755 c 0
 490 675 427 610 350 610 c 2
 290 610 l 1
 290 500 l 1
 600 500 l 1
 600 420 l 1
 290 420 l 1
 290 0 l 1
 210 0 l 1
 210 420 l 1
 0 420 l 1
 0 500 l 1
EndSplineSet
EndChar

StartChar: uni0086
Encoding: 134 134 100
Width: 600
VWidth: 0
Flags: HW
LayerCount: 2
Fore
SplineSet
600 500 m 1
 600 420 l 1
 390 420 l 1
 390 -0 l 1
 310 -0 l 1
 310 420 l 1
 190 420 l 1
 190 -0 l 1
 110 -0 l 1
 110 420 l 1
 0 420 l 1
 0 500 l 1
 110 500 l 1
 110 690 l 1
 310 690 l 1
 310 890 l 1
 510 890 l 1
 510 955 l 2
 510 1035 575 1100 655 1100 c 0
 735 1100 800 1035 800 955 c 0
 800 875 735 810 655 810 c 2
 590 810 l 1
 590 610 l 1
 390 610 l 1
 390 500 l 1
 600 500 l 1
590 890 m 1
 655 890 l 2
 691 890 720 919 720 955 c 0
 720 991 691 1020 655 1020 c 0
 619 1020 590 991 590 955 c 2
 590 890 l 1
390 690 m 1
 510 690 l 1
 510 810 l 1
 390 810 l 1
 390 690 l 1
190 500 m 1
 310 500 l 1
 310 610 l 1
 190 610 l 1
 190 500 l 1
EndSplineSet
EndChar

StartChar: uni0087
Encoding: 135 135 101
Width: 600
VWidth: 0
Flags: HW
LayerCount: 2
Fore
SplineSet
250 620 m 0
 172 620 80 575 80 500 c 1
 0 500 l 1
 0 565 36 614 77 645 c 0
 124 680 185 700 250 700 c 0
 349 700 439 652 478 582 c 0
 492 556 500 528 500 500 c 0
 500 415 441 359 380 329 c 1
 417 294 440 245 440 190 c 0
 440 85 355 0 250 0 c 0
 203 0 158 17 123 48 c 1
 177 108 l 1
 197 90 223 80 250 80 c 0
 311 80 360 129 360 190 c 0
 360 251 311 300 250 300 c 1
 250 380 l 1
 328 380 420 425 420 500 c 0
 420 575 328 620 250 620 c 0
EndSplineSet
EndChar

StartChar: uni0088
Encoding: 136 136 102
Width: 600
VWidth: 0
Flags: HW
LayerCount: 2
Fore
SplineSet
342 460 m 2
 342 360 372 287 408 248 c 1
 352 192 l 1
 351 193 341 203 328 222 c 1
 305 208 278 200 250 200 c 0
 167 200 100 267 100 350 c 0
 100 433 167 500 250 500 c 2
 342 500 l 1
 342 460 l 2
250 420 m 2
 211 420 180 389 180 350 c 0
 180 311 211 280 250 280 c 0
 265 280 279 285 291 294 c 1
 278 328 268 369 264 420 c 1
 250 420 l 2
EndSplineSet
EndChar

StartChar: uni0089
Encoding: 137 137 103
Width: 600
VWidth: 0
Flags: HW
LayerCount: 2
Fore
SplineSet
310 750 m 2
 310 830 372 900 450 900 c 0
 530 900 590 840 590 760 c 0
 590 667 497 600 400 600 c 2
 390 600 l 1
 390 -0 l 1
 310 -0 l 1
 310 300 l 2
 310 305 308 319 303 335 c 1
 276 316 239 302 190 300 c 1
 190 -0 l 1
 110 -0 l 1
 110 307 l 1
 60 317 0 344 0 400 c 0
 0 456 60 483 110 493 c 1
 110 860 l 1
 190 860 l 1
 190 796 234 728 310 697 c 1
 310 750 l 2
85 400 m 1
 90 397 99 392 110 389 c 1
 110 411 l 1
 99 408 90 403 85 400 c 1
190 380 m 1
 216 381 238 388 256 400 c 1
 238 412 216 419 190 420 c 1
 190 380 l 1
303 465 m 1
 308 481 310 495 310 500 c 2
 310 613 l 1
 265 626 223 649 190 681 c 1
 190 500 l 1
 239 498 276 484 303 465 c 1
400 680 m 2
 452 680 510 710 510 760 c 0
 510 795 485 820 450 820 c 0
 417 820 390 789 390 750 c 2
 390 680 l 1
 400 680 l 2
EndSplineSet
EndChar

StartChar: uni008A
Encoding: 138 138 104
Width: 600
VWidth: 0
Flags: HW
LayerCount: 2
Fore
SplineSet
250 620 m 0
 172 620 80 575 80 500 c 0
 80 425 156 405 217 383 c 0
 258 368 301 352 335 327 c 0
 378 295 400 253 400 200 c 0
 400 153 382 111 347 77 c 0
 319 49 284 29 253 12 c 0
 208 -13 180 -30 180 -50 c 0
 180 -58 192 -77 235 -101 c 0
 269 -120 303 -132 303 -132 c 1
 277 -208 l 1
 275 -207 235 -194 195 -171 c 0
 132 -135 100 -94 100 -50 c 0
 100 18 164 54 214 82 c 0
 280 119 320 145 320 200 c 0
 320 255 281 274 190 307 c 0
 147 322 103 338 67 365 c 0
 22 399 0 444 0 500 c 0
 0 565 36 614 77 645 c 0
 124 680 185 700 250 700 c 0
 349 700 439 652 478 582 c 0
 492 556 500 528 500 500 c 1
 420 500 l 1
 420 575 328 620 250 620 c 0
EndSplineSet
EndChar

StartChar: uni008B
Encoding: 139 139 105
Width: 600
VWidth: 0
Flags: HW
LayerCount: 2
Fore
SplineSet
600 500 m 1
 600 420 l 1
 290 420 l 1
 290 -200 l 1
 210 -200 l 1
 210 420 l 1
 0 420 l 1
 0 500 l 1
 210 500 l 1
 210 700 l 1
 290 700 l 1
 290 500 l 1
 600 500 l 1
EndSplineSet
EndChar

StartChar: uni008C
Encoding: 140 140 106
Width: 600
VWidth: 0
Flags: HW
LayerCount: 2
Fore
SplineSet
250 300 m 0
 184 300 122 332 85 387 c 1
 151 433 l 1
 173 400 210 380 250 380 c 0
 316 380 370 434 370 500 c 0
 370 566 316 620 250 620 c 0
 210 620 173 600 151 567 c 1
 85 613 l 1
 122 668 184 700 250 700 c 0
 360 700 450 610 450 500 c 0
 450 390 360 300 250 300 c 0
EndSplineSet
EndChar

StartChar: uni008D
Encoding: 141 141 107
Width: 600
VWidth: 0
Flags: HW
LayerCount: 2
Fore
SplineSet
210 617 m 1
 149 606 80 563 80 500 c 1
 0 500 l 1
 0 565 36 614 77 645 c 0
 114 673 160 691 210 697 c 1
 210 800 l 1
 290 800 l 1
 290 697 l 1
 372 687 444 644 478 582 c 0
 492 556 500 528 500 500 c 0
 500 437 471 384 414 343 c 0
 377 317 333 297 290 281 c 1
 290 0 l 1
 210 0 l 1
 210 67 l 1
 141 84 60 121 60 200 c 0
 60 238 81 270 123 296 c 0
 148 311 178 324 210 336 c 1
 210 617 l 1
140 200 m 0
 140 173 189 156 210 150 c 1
 210 250 l 1
 172 234 140 217 140 200 c 0
367 408 m 0
 404 434 420 463 420 500 c 0
 420 563 351 606 290 617 c 1
 290 367 l 1
 318 379 345 392 367 408 c 0
EndSplineSet
EndChar

StartChar: uni008E
Encoding: 142 142 108
Width: 600
VWidth: 0
Flags: HW
LayerCount: 2
Fore
SplineSet
349 -7 m 1
 291 47 l 1
 292 48 400 168 400 300 c 0
 400 404 358 543 336 608 c 1
 24 493 l 1
 -4 567 l 1
 383 711 l 1
 397 674 l 2
 400 665 480 456 480 300 c 0
 480 136 354 -1 349 -7 c 1
EndSplineSet
EndChar

StartChar: uni008F
Encoding: 143 143 109
Width: 600
VWidth: 0
Flags: HW
LayerCount: 2
Fore
SplineSet
-36 785 m 1
 13 848 95 900 200 900 c 0
 280 900 355 869 412 812 c 0
 469 755 500 680 500 600 c 0
 500 502 456 445 418 415 c 0
 376 381 319 362 258 360 c 1
 272 328 281 293 289 259 c 0
 314 155 332 80 500 80 c 1
 500 0 l 1
 398 0 326 26 279 79 c 0
 238 126 224 185 211 241 c 0
 196 305 184 358 138 389 c 1
 105 405 69 420 -0 420 c 1
 -0 500 l 1
 73 500 132 487 176 459 c 0
 199 448 217 440 250 440 c 0
 278 440 420 448 420 600 c 0
 420 721 321 820 200 820 c 0
 132 820 69 789 27 735 c 1
 -36 785 l 1
EndSplineSet
EndChar

StartChar: uni0090
Encoding: 144 144 110
Width: 600
VWidth: 0
Flags: HW
LayerCount: 2
Fore
SplineSet
480 300 m 0
 547 300 600 239 600 170 c 0
 600 101 555 59 503 35 c 0
 455 13 390 1 311 0 c 1
 269 -115 194 -201 190 -206 c 1
 130 -154 l 1
 131 -153 190 -84 228 7 c 1
 99 32 -1 115 -6 119 c 1
 46 181 l 1
 47 180 140 103 253 84 c 1
 258 106 260 128 260 150 c 0
 260 179 256 220 238 251 c 0
 219 284 187 300 140 300 c 1
 140 380 l 1
 250 380 420 408 420 500 c 0
 420 575 328 620 250 620 c 0
 172 620 80 575 80 500 c 1
 0 500 l 1
 0 565 36 614 77 645 c 0
 124 680 185 700 250 700 c 0
 349 700 439 652 478 582 c 0
 492 556 500 528 500 500 c 0
 500 387 391 336 291 315 c 1
 297 307 303 299 307 291 c 0
 334 244 340 189 340 150 c 0
 340 127 337 104 333 81 c 1
 348 82 362 82 375 84 c 1
 365 109 360 135 360 160 c 0
 360 235 408 300 480 300 c 0
470 108 m 0
 515 129 520 153 520 170 c 0
 520 198 502 220 480 220 c 0
 456 220 440 195 440 160 c 0
 440 138 447 117 455 102 c 1
 460 104 465 106 470 108 c 0
EndSplineSet
EndChar

StartChar: uni0091
Encoding: 145 145 111
Width: 600
VWidth: 0
Flags: HW
LayerCount: 2
Fore
SplineSet
395 79 m 1
 370 39 328 0 270 0 c 0
 175 0 100 110 100 250 c 0
 100 369 154 500 260 500 c 0
 341 500 410 429 437 366 c 2
 451 333 l 1
 187 185 l 1
 197 141 228 80 270 80 c 0
 297 80 317 106 327 121 c 1
 395 79 l 1
345 365 m 1
 327 389 292 420 260 420 c 0
 235 420 218 394 209 379 c 0
 193 351 184 314 181 273 c 1
 345 365 l 1
EndSplineSet
EndChar

StartChar: uni0092
Encoding: 146 146 112
Width: 600
VWidth: 0
Flags: HW
LayerCount: 2
Fore
SplineSet
190 -0 m 1
 110 -0 l 1
 110 690 l 1
 310 690 l 1
 310 890 l 1
 510 890 l 1
 510 955 l 2
 510 1035 575 1100 655 1100 c 0
 735 1100 800 1035 800 955 c 0
 800 875 735 810 655 810 c 2
 590 810 l 1
 590 610 l 1
 390 610 l 1
 390 -0 l 1
 310 -0 l 1
 310 610 l 1
 190 610 l 1
 190 -0 l 1
390 690 m 1
 510 690 l 1
 510 810 l 1
 390 810 l 1
 390 690 l 1
590 890 m 1
 655 890 l 2
 691 890 720 919 720 955 c 0
 720 991 691 1020 655 1020 c 0
 619 1020 590 991 590 955 c 2
 590 890 l 1
EndSplineSet
EndChar

StartChar: uni0093
Encoding: 147 147 113
Width: 600
VWidth: 0
Flags: HW
LayerCount: 2
Fore
SplineSet
397 564 m 1
 346 523 278 500 200 500 c 0
 73 500 0 573 0 700 c 1
 80 700 l 1
 80 617 117 580 200 580 c 0
 296 580 365 620 406 700 c 1
 503 700 l 1
 378 0 l 1
 297 0 l 1
 397 564 l 1
EndSplineSet
EndChar

StartChar: uni0094
Encoding: 148 148 114
Width: 600
VWidth: 0
Flags: HW
LayerCount: 2
Fore
SplineSet
600 500 m 1
 600 420 l 1
 0 420 l 1
 0 500 l 1
 210 500 l 1
 210 610 l 1
 100 610 l 2
 89 610 80 601 80 590 c 0
 80 586 81 583 83 580 c 1
 13 540 l 1
 4 555 0 572 0 590 c 0
 0 645 45 690 100 690 c 2
 210 690 l 1
 210 810 l 1
 0 810 l 1
 0 887 l 1
 213 1100 l 1
 290 1100 l 1
 290 890 l 1
 410 890 l 1
 410 955 l 2
 410 1035 473 1100 550 1100 c 0
 627 1100 690 1035 690 955 c 0
 690 875 627 810 550 810 c 2
 490 810 l 1
 490 750 l 2
 490 673 427 610 350 610 c 2
 290 610 l 1
 290 500 l 1
 600 500 l 1
410 810 m 1
 290 810 l 1
 290 690 l 1
 350 690 l 2
 383 690 410 717 410 750 c 2
 410 810 l 1
490 955 m 2
 490 890 l 1
 550 890 l 2
 583 890 610 919 610 955 c 0
 610 991 583 1020 550 1020 c 0
 517 1020 490 991 490 955 c 2
210 890 m 1
 210 983 l 1
 117 890 l 1
 210 890 l 1
EndSplineSet
EndChar

StartChar: uni0095
Encoding: 149 149 115
Width: 600
VWidth: 0
Flags: HW
LayerCount: 2
Fore
SplineSet
584 440 m 0
 588 426 590 411 590 396 c 0
 590 376 587 357 580 337 c 0
 569 305 541 271 495 232 c 0
 463 206 435 187 434 186 c 1
 391 254 l 1
 391 254 485 311 504 363 c 0
 508 376 510 386 510 396 c 0
 510 405 509 414 507 420 c 1
 283 420 l 1
 294 399 300 375 300 350 c 0
 300 267 233 200 150 200 c 0
 67 200 0 267 0 350 c 0
 0 433 67 500 150 500 c 2
 552 500 l 1
 564 484 l 2
 566 481 577 465 584 440 c 0
EndSplineSet
EndChar

StartChar: uni0096
Encoding: 150 150 116
Width: 600
VWidth: 0
Flags: HW
LayerCount: 2
Fore
SplineSet
150 200 m 0
 67 200 0 267 0 350 c 0
 0 433 67 500 150 500 c 2
 590 500 l 1
 590 300 l 1
 510 300 l 1
 510 420 l 1
 150 420 l 2
 111 420 80 389 80 350 c 0
 80 311 111 280 150 280 c 0
 176 280 200 294 212 318 c 1
 284 282 l 1
 258 232 207 200 150 200 c 0
EndSplineSet
EndChar

StartChar: uni0097
Encoding: 151 151 117
Width: 600
VWidth: 0
Flags: HW
LayerCount: 2
Fore
SplineSet
-50 900 m 0
 42 900 90 792 98 690 c 1
 310 690 l 1
 310 890 l 1
 710 890 l 1
 710 955 l 2
 710 1035 775 1100 855 1100 c 0
 935 1100 1000 1035 1000 955 c 0
 1000 875 935 810 855 810 c 2
 790 810 l 1
 790 610 l 1
 590 610 l 1
 590 410 l 1
 390 410 l 1
 390 -0 l 1
 310 -0 l 1
 310 410 l 1
 190 410 l 1
 190 -0 l 1
 110 -0 l 1
 110 490 l 1
 310 490 l 1
 310 610 l 1
 98 610 l 1
 89 499 30 400 -80 400 c 0
 -146 400 -200 453 -200 520 c 0
 -200 625 -91 674 18 686 c 1
 15 722 7 754 -5 779 c 0
 -14 798 -29 820 -50 820 c 0
 -92 820 -134 754 -144 733 c 1
 -216 767 l 1
 -215 768 -202 799 -176 830 c 0
 -139 876 -95 900 -50 900 c 0
-15 513 m 0
 2 535 12 566 17 605 c 1
 -35 598 -66 585 -84 574 c 0
 -108 559 -120 540 -120 520 c 0
 -120 504 -109 480 -80 480 c 0
 -62 480 -36 485 -15 513 c 0
390 810 m 1
 390 690 l 1
 510 690 l 1
 510 810 l 1
 390 810 l 1
510 490 m 1
 510 610 l 1
 390 610 l 1
 390 490 l 1
 510 490 l 1
710 690 m 1
 710 810 l 1
 590 810 l 1
 590 690 l 1
 710 690 l 1
855 890 m 2
 891 890 920 919 920 955 c 0
 920 991 891 1020 855 1020 c 0
 819 1020 790 991 790 955 c 2
 790 890 l 1
 855 890 l 2
EndSplineSet
EndChar

StartChar: uni0098
Encoding: 152 152 118
Width: 600
VWidth: 0
Flags: HW
LayerCount: 2
Fore
SplineSet
390 0 m 1
 310 0 l 1
 310 320 l 1
 200 320 l 2
 134 320 80 266 80 200 c 0
 80 134 134 80 200 80 c 0
 216 80 231 83 245 89 c 1
 275 15 l 1
 251 5 226 0 200 0 c 0
 90 0 0 90 0 200 c 0
 0 310 90 400 200 400 c 2
 310 400 l 1
 310 460 l 2
 310 537 373 600 450 600 c 0
 527 600 590 537 590 460 c 0
 590 383 527 320 450 320 c 2
 390 320 l 1
 390 0 l 1
390 400 m 1
 450 400 l 2
 483 400 510 427 510 460 c 0
 510 493 483 520 450 520 c 0
 417 520 390 493 390 460 c 2
 390 400 l 1
EndSplineSet
EndChar

StartChar: uni0099
Encoding: 153 153 119
Width: 600
VWidth: 0
Flags: HW
LayerCount: 2
Fore
SplineSet
150 420 m 0
 105 420 74 327 69 302 c 1
 -9 318 l 1
 -9 320 -1 361 20 403 c 0
 60 483 113 500 150 500 c 0
 200 500 235 475 256 443 c 0
 279 409 290 361 290 300 c 2
 290 124 l 1
 341 170 412 202 496 210 c 1
 504 130 l 1
 409 120 330 71 294 0 c 1
 210 0 l 1
 210 300 l 2
 210 356 198 385 189 399 c 0
 179 413 167 420 150 420 c 0
EndSplineSet
EndChar

StartChar: uni009A
Encoding: 154 154 120
Width: 600
VWidth: 0
Flags: HW
LayerCount: 2
Fore
SplineSet
385 384 m 1
 440 334 520 285 520 285 c 1
 480 215 l 1
 477 217 411 256 344 314 c 0
 332 324 320 334 310 344 c 1
 261 321 209 304 175 294 c 1
 211 197 250 80 320 80 c 1
 320 -0 l 1
 252 0 208 42 178 89 c 0
 148 135 127 194 106 251 c 0
 86 305 49 420 -0 420 c 1
 -0 500 l 1
 80 500 119 428 146 368 c 1
 173 376 213 389 255 407 c 1
 219 456 200 504 200 550 c 0
 200 633 267 700 350 700 c 0
 433 700 500 633 500 550 c 0
 500 504 478 461 434 421 c 0
 420 408 404 396 385 384 c 1
328 443 m 1
 388 478 420 516 420 550 c 0
 420 589 389 620 350 620 c 0
 311 620 280 589 280 550 c 0
 280 518 304 473 328 443 c 1
EndSplineSet
EndChar

StartChar: uni009B
Encoding: 155 155 121
Width: 600
VWidth: 0
Flags: HW
LayerCount: 2
Fore
SplineSet
210 890 m 1
 210 983 l 1
 117 890 l 1
 210 890 l 1
210 717 m 1
 181 713 120 694 120 670 c 1
 40 670 l 1
 40 717 75 750 111 769 c 0
 139 784 173 794 210 798 c 1
 210 810 l 1
 0 810 l 1
 0 887 l 1
 213 1100 l 1
 290 1100 l 1
 290 890 l 1
 600 890 l 1
 600 810 l 1
 290 810 l 1
 290 798 l 1
 351 791 408 767 438 730 c 0
 452 712 460 691 460 670 c 0
 460 583 352 556 301 513 c 0
 293 506 290 501 290 500 c 1
 600 500 l 1
 600 420 l 1
 0 420 l 1
 0 500 l 1
 210 500 l 1
 210 717 l 1
290 717 m 1
 290 602 l 1
 297 606 304 610 311 614 c 0
 342 631 380 652 380 670 c 0
 380 694 319 713 290 717 c 1
EndSplineSet
EndChar

StartChar: uni009C
Encoding: 156 156 122
Width: 600
VWidth: 0
Flags: HW
LayerCount: 2
Fore
SplineSet
630 1296 m 0
 630 1358 688 1389 750 1389 c 1
 833 1383 882 1334 889 1251 c 0
 889 1245 888 1239 888 1234 c 1
 966 1200 1036 1155 1112 1119 c 1
 1112 1142 l 1
 1113 1224 1167 1278 1250 1278 c 0
 1324 1278 1379 1226 1379 1153 c 0
 1379 1074 1330 1023 1252 1022 c 1
 1248 1022 l 2
 1221 1022 1199 1027 1177 1033 c 1
 1180 1015 1182 996 1184 977 c 1
 1291 940 1298 796 1299 654 c 1
 1299 645 l 1
 1298 547 1263 476 1203 434 c 0
 1175 415 1144 401 1101 400 c 1
 1097 400 l 1
 1062 401 1030 406 998 411 c 2
 982 414 l 1
 982 349 l 1
 981 270 930 220 851 219 c 1
 848 219 l 1
 773 220 718 273 718 347 c 0
 718 434 773 490 859 490 c 0
 880 490 900 487 918 484 c 1
 918 516 l 1
 759 515 l 1
 744 499 728 484 710 470 c 1
 720 485 730 500 740 515 c 1
 676 515 l 1
 681 494 686 470 686 445 c 0
 686 366 635 313 556 313 c 0
 471 313 415 365 414 449 c 1
 414 452 l 1
 415 532 468 584 548 585 c 1
 580 585 l 1
 578 593 575 602 573 610 c 1
 360 610 l 1
 360 0 l 1
 280 0 l 1
 280 710 l 1
 220 710 l 1
 220 0 l 1
 140 0 l 1
 140 712 l 1
 30 724 -50 788 -50 900 c 0
 -50 1025 50 1100 180 1100 c 0
 300 1100 360 1023 360 900 c 2
 360 790 l 1
 522 790 l 1
 518 808 512 827 512 849 c 2
 512 852 l 1
 513 934 567 989 651 989 c 0
 735 989 789 932 789 848 c 0
 789 764 733 711 650 710 c 1
 622 710 l 1
 634 669 646 627 658 585 c 1
 782 585 l 1
 809 633 836 684 850 744 c 0
 854 763 856 782 856 800 c 0
 856 849 843 894 830 933 c 1
 749 972 684 1032 612 1080 c 1
 589 1044 558 1012 500 1012 c 0
 449 1012 412 1048 412 1100 c 0
 413 1155 451 1187 500 1187 c 0
 535 1187 567 1170 591 1157 c 1
 603 1177 619 1198 651 1198 c 2
 653 1198 l 2
 701 1198 722 1169 769 1169 c 2
 770 1169 l 2
 796 1169 811 1182 820 1199 c 1
 794 1207 770 1210 738 1212 c 0
 690 1215 630 1243 630 1296 c 0
468 1100 m 0
 468 1080 480 1068 500 1068 c 2
 501 1068 l 1
 534 1069 551 1089 564 1110 c 1
 547 1120 524 1132 500 1132 c 0
 480 1132 468 1120 468 1100 c 0
140 1017 m 1
 77 1006 30 969 30 900 c 0
 30 826 83 799 140 792 c 1
 140 1017 l 1
280 790 m 1
 280 900 l 2
 280 977 253 1005 220 1015 c 1
 220 790 l 1
 280 790 l 1
360 690 m 1
 549 690 l 1
 547 697 545 703 543 710 c 1
 360 710 l 1
 360 690 l 1
613 447 m 1
 613 451 l 1
 612 474 605 495 600 515 c 1
 549 515 l 1
 509 514 486 491 486 451 c 2
 486 450 l 1
 487 411 513 385 550 385 c 0
 592 385 612 404 613 447 c 1
648 911 m 0
 617 911 588 889 588 851 c 2
 588 850 l 2
 588 829 595 809 600 790 c 1
 652 790 l 1
 688 791 711 813 711 847 c 0
 711 888 683 911 648 911 c 0
1100 868 m 0
 1119 868 1132 881 1132 900 c 2
 1132 903 l 2
 1132 912 1131 921 1131 930 c 1
 1122 931 1113 932 1103 932 c 2
 1100 932 l 2
 1079 932 1068 915 1068 899 c 0
 1068 883 1079 868 1100 868 c 0
750 1331 m 0
 731 1331 688 1321 688 1301 c 0
 688 1297 690 1293 693 1289 c 0
 711 1266 757 1271 793 1265 c 0
 806 1263 819 1259 831 1255 c 1
 828 1297 795 1330 750 1331 c 0
650 1142 m 1
 650 1142 l 1
851 282 m 0
 889 282 918 306 918 348 c 2
 918 423 l 1
 895 426 875 430 850 430 c 0
 809 430 779 392 779 352 c 0
 779 310 809 282 851 282 c 0
1013 901 m 0
 1013 946 1045 988 1099 988 c 2
 1126 988 l 1
 1123 1010 1121 1031 1118 1054 c 1
 1032 1090 958 1140 874 1178 c 1
 857 1141 823 1111 771 1111 c 2
 769 1111 l 1
 717 1112 697 1142 650 1142 c 0
 646 1140 642 1132 639 1127 c 1
 699 1086 755 1039 816 1001 c 1
 816 1048 850 1085 898 1085 c 0
 953 1085 984 1043 984 998 c 0
 984 958 955 913 903 913 c 0
 898 913 892 914 886 915 c 1
 896 883 902 844 902 806 c 0
 902 781 899 756 893 733 c 0
 877 676 848 627 817 584 c 1
 918 584 l 1
 918 652 l 1
 919 730 969 782 1049 782 c 0
 1129 782 1183 731 1183 650 c 0
 1183 568 1129 517 1048 516 c 0
 1026 516 1004 516 982 516 c 1
 982 474 l 1
 1008 470 l 2
 1038 465 1067 460 1099 460 c 2
 1101 460 l 2
 1170 460 1213 515 1230 569 c 0
 1239 597 1241 631 1241 667 c 0
 1241 694 1240 721 1238 747 c 0
 1234 811 1227 880 1188 911 c 1
 1188 899 l 2
 1188 850 1150 811 1102 811 c 0
 1048 811 1013 853 1013 901 c 0
1051 718 m 0
 1004 718 982 691 982 644 c 2
 982 584 l 1
 1052 584 l 1
 1092 585 1117 609 1117 648 c 0
 1117 691 1093 718 1051 718 c 0
935 997 m 0
 935 1021 922 1036 899 1036 c 0
 878 1036 864 1021 864 1000 c 2
 864 998 l 2
 864 989 866 982 868 974 c 1
 878 970 889 968 900 968 c 0
 919 968 935 975 935 997 c 0
1323 1147 m 0
 1323 1193 1296 1222 1249 1222 c 0
 1200 1222 1169 1190 1168 1141 c 1
 1168 1140 l 2
 1168 1124 1169 1109 1170 1094 c 1
 1194 1086 1218 1079 1248 1078 c 1
 1250 1078 l 2
 1293 1078 1323 1106 1323 1147 c 0
1270 1150 m 0
 1270 1139 1261 1130 1250 1130 c 0
 1239 1130 1230 1139 1230 1150 c 0
 1230 1161 1239 1170 1250 1170 c 0
 1261 1170 1270 1161 1270 1150 c 0
1120 900 m 0
 1120 889 1111 880 1100 880 c 0
 1089 880 1080 889 1080 900 c 0
 1080 911 1089 920 1100 920 c 0
 1111 920 1120 911 1120 900 c 0
880 1000 m 0
 880 1011 889 1020 900 1020 c 0
 911 1020 920 1011 920 1000 c 0
 920 989 911 980 900 980 c 0
 889 980 880 989 880 1000 c 0
770 1300 m 0
 770 1289 761 1280 750 1280 c 0
 739 1280 730 1289 730 1300 c 0
 730 1311 739 1320 750 1320 c 0
 761 1320 770 1311 770 1300 c 0
520 1100 m 0
 520 1089 511 1080 500 1080 c 0
 489 1080 480 1089 480 1100 c 0
 480 1111 489 1120 500 1120 c 0
 511 1120 520 1111 520 1100 c 0
650 830 m 0
 639 830 630 839 630 850 c 0
 630 861 639 870 650 870 c 0
 661 870 670 861 670 850 c 0
 670 839 661 830 650 830 c 0
570 450 m 0
 570 439 561 430 550 430 c 0
 539 430 530 439 530 450 c 0
 530 461 539 470 550 470 c 0
 561 470 570 461 570 450 c 0
870 350 m 0
 870 339 861 330 850 330 c 0
 839 330 830 339 830 350 c 0
 830 361 839 370 850 370 c 0
 861 370 870 361 870 350 c 0
1030 650 m 0
 1030 661 1039 670 1050 670 c 0
 1061 670 1070 661 1070 650 c 0
 1070 639 1061 630 1050 630 c 0
 1039 630 1030 639 1030 650 c 0
EndSplineSet
EndChar

StartChar: uni009D
Encoding: 157 157 123
Width: 600
VWidth: 0
Flags: HW
LayerCount: 2
Fore
SplineSet
600 500 m 1
 600 420 l 1
 0 420 l 1
 0 500 l 1
 210 500 l 1
 210 810 l 1
 0 810 l 1
 0 887 l 1
 213 1100 l 1
 290 1100 l 1
 290 890 l 1
 303 890 l 1
 317 952 379 1000 450 1000 c 0
 530 1000 600 938 600 860 c 0
 600 821 584 785 553 759 c 1
 577 736 590 704 590 670 c 0
 590 633 573 580 493 540 c 0
 451 519 410 511 408 511 c 1
 392 589 l 1
 392 589 426 597 458 613 c 0
 482 625 510 644 510 670 c 0
 510 701 483 720 440 720 c 1
 440 800 l 1
 486 800 520 826 520 860 c 0
 520 893 489 920 450 920 c 0
 411 920 380 893 380 860 c 2
 380 810 l 1
 290 810 l 1
 290 500 l 1
 600 500 l 1
210 890 m 1
 210 983 l 1
 117 890 l 1
 210 890 l 1
EndSplineSet
EndChar

StartChar: uni009E
Encoding: 158 158 124
Width: 600
VWidth: 0
Flags: HW
LayerCount: 2
Fore
SplineSet
600 500 m 1
 600 420 l 1
 295 420 l 1
 277 357 219 310 150 310 c 0
 67 310 0 377 -0 460 c 0
 0 543 67 610 150 610 c 0
 219 610 277 563 295 500 c 1
 600 500 l 1
EndSplineSet
EndChar

StartChar: uni009F
Encoding: 159 159 125
Width: 600
VWidth: 0
Flags: HW
LayerCount: 2
Fore
SplineSet
510 955 m 2
 510 1035 573 1100 650 1100 c 0
 727 1100 790 1035 790 955 c 0
 790 875 727 810 650 810 c 2
 590 810 l 1
 590 750 l 2
 590 673 527 610 450 610 c 2
 390 610 l 1
 390 0 l 1
 310 0 l 1
 310 610 l 1
 190 610 l 1
 190 0 l 1
 110 0 l 1
 110 410 l 1
 50 410 l 2
 -27 410 -90 473 -90 550 c 0
 -90 627 -27 690 50 690 c 2
 310 690 l 1
 310 810 l 1
 100 810 l 1
 100 887 l 1
 313 1100 l 1
 390 1100 l 1
 390 890 l 1
 510 890 l 1
 510 955 l 2
110 490 m 1
 110 610 l 1
 50 610 l 2
 17 610 -10 583 -10 550 c 0
 -10 517 17 490 50 490 c 2
 110 490 l 1
310 890 m 1
 310 983 l 1
 217 890 l 1
 310 890 l 1
510 750 m 2
 510 810 l 1
 390 810 l 1
 390 690 l 1
 450 690 l 2
 483 690 510 717 510 750 c 2
590 955 m 2
 590 890 l 1
 650 890 l 2
 683 890 710 919 710 955 c 0
 710 991 683 1020 650 1020 c 0
 617 1020 590 991 590 955 c 2
EndSplineSet
EndChar

StartChar: exclamdown
Encoding: 161 161 127
Width: 600
VWidth: 0
Flags: HW
LayerCount: 2
Fore
SplineSet
855 1100 m 0
 935 1100 1000 1035 1000 955 c 0
 1000 875 935 810 855 810 c 2
 790 810 l 1
 790 610 l 1
 590 610 l 1
 590 410 l 1
 390 410 l 1
 390 0 l 1
 310 0 l 1
 310 410 l 1
 190 410 l 1
 190 0 l 1
 110 0 l 1
 110 490 l 1
 310 490 l 1
 310 610 l 1
 45 610 l 2
 9 610 -20 581 -20 545 c 0
 -20 527 -13 511 -0 499 c 1
 -56 441 l 1
 -84 469 -100 506 -100 545 c 0
 -100 625 -35 690 45 690 c 2
 310 690 l 1
 310 890 l 1
 710 890 l 1
 710 955 l 2
 710 1035 775 1100 855 1100 c 0
390 810 m 1
 390 690 l 1
 510 690 l 1
 510 810 l 1
 390 810 l 1
510 490 m 1
 510 610 l 1
 390 610 l 1
 390 490 l 1
 510 490 l 1
710 690 m 1
 710 810 l 1
 590 810 l 1
 590 690 l 1
 710 690 l 1
855 890 m 2
 891 890 920 919 920 955 c 0
 920 991 891 1020 855 1020 c 0
 819 1020 790 991 790 955 c 2
 790 890 l 1
 855 890 l 2
EndSplineSet
EndChar

StartChar: cent
Encoding: 162 162 128
Width: 600
VWidth: 0
Flags: HW
LayerCount: 2
Fore
SplineSet
390 810 m 1
 390 500 l 1
 600 500 l 1
 600 420 l 1
 0 420 l 1
 0 500 l 1
 110 500 l 1
 110 750 l 2
 110 827 173 890 250 890 c 2
 310 890 l 1
 310 955 l 2
 310 1035 375 1100 455 1100 c 0
 535 1100 600 1035 600 955 c 0
 600 875 535 810 455 810 c 2
 390 810 l 1
390 955 m 2
 390 890 l 1
 455 890 l 2
 491 890 520 919 520 955 c 0
 520 991 491 1020 455 1020 c 0
 419 1020 390 991 390 955 c 2
190 750 m 2
 190 500 l 1
 310 500 l 1
 310 810 l 1
 250 810 l 2
 217 810 190 783 190 750 c 2
EndSplineSet
EndChar

StartChar: sterling
Encoding: 163 163 129
Width: 600
VWidth: 0
Flags: HW
LayerCount: 2
Fore
SplineSet
250 0 m 0
 184 0 122 32 85 87 c 1
 151 133 l 1
 173 100 210 80 250 80 c 0
 316 80 370 134 370 200 c 0
 370 266 316 320 250 320 c 0
 210 320 173 300 151 267 c 1
 85 313 l 1
 122 368 184 400 250 400 c 0
 360 400 450 310 450 200 c 0
 450 90 360 0 250 0 c 0
EndSplineSet
EndChar

StartChar: currency
Encoding: 164 164 130
Width: 600
VWidth: 0
Flags: HW
LayerCount: 2
Fore
SplineSet
121 310 m 1
 128 206 173 80 270 80 c 0
 375 80 444 199 445 200 c 1
 515 160 l 1
 511 153 421 0 270 0 c 0
 114 0 40 177 40 350 c 2
 40 390 l 1
 300 390 l 2
 371 390 420 435 420 500 c 0
 420 655 362 820 220 820 c 0
 109 820 80 724 80 600 c 1
 0 600 l 1
 0 737 36 836 124 879 c 0
 152 893 184 900 220 900 c 0
 321 900 392 842 434 772 c 0
 476 702 500 605 500 500 c 0
 500 390 411 310 300 310 c 2
 121 310 l 1
EndSplineSet
EndChar

StartChar: yen
Encoding: 165 165 131
Width: 600
VWidth: 0
Flags: HW
LayerCount: 2
Fore
SplineSet
450 700 m 0
 527 700 590 637 590 560 c 0
 590 483 527 420 450 420 c 2
 390 420 l 1
 390 -200 l 1
 310 -200 l 1
 310 420 l 1
 120 420 l 1
 147 376 168 319 188 263 c 0
 219 177 253 80 300 80 c 1
 300 0 l 1
 240 0 203 41 177 85 c 0
 152 128 131 184 112 237 c 0
 81 323 47 420 0 420 c 1
 0 500 l 1
 57 500 95 462 120 421 c 1
 102 496 l 1
 102 496 135 512 167 536 c 0
 206 566 220 589 220 600 c 0
 220 611 211 620 200 620 c 0
 189 620 180 611 180 600 c 1
 100 600 l 1
 100 655 145 700 200 700 c 0
 255 700 300 655 300 600 c 0
 300 567 283 533 248 500 c 1
 310 500 l 1
 310 560 l 2
 310 637 373 700 450 700 c 0
450 500 m 2
 483 500 510 527 510 560 c 0
 510 593 483 620 450 620 c 0
 417 620 390 593 390 560 c 2
 390 500 l 1
 450 500 l 2
EndSplineSet
EndChar

StartChar: brokenbar
Encoding: 166 166 132
Width: 600
VWidth: 0
Flags: HW
LayerCount: 2
Fore
SplineSet
390 0 m 1
 310 0 l 1
 310 320 l 1
 200 320 l 2
 134 320 80 266 80 200 c 0
 80 134 134 80 200 80 c 0
 216 80 231 83 245 89 c 1
 275 15 l 1
 251 5 226 0 200 0 c 0
 90 0 0 90 0 200 c 0
 0 310 90 400 200 400 c 2
 310 400 l 1
 310 410 l 2
 310 460 350 500 400 500 c 0
 450 500 490 460 490 410 c 0
 490 360 450 320 400 320 c 2
 390 320 l 1
 390 0 l 1
390 400 m 1
 400 400 l 2
 406 400 410 404 410 410 c 0
 410 416 406 420 400 420 c 0
 394 420 390 416 390 410 c 2
 390 400 l 1
EndSplineSet
EndChar

StartChar: section
Encoding: 167 167 133
Width: 600
VWidth: 0
Flags: HW
LayerCount: 2
Fore
SplineSet
600 690 m 1
 600 610 l 1
 290 610 l 1
 290 0 l 1
 210 0 l 1
 210 610 l 1
 0 610 l 1
 0 687 l 1
 213 900 l 1
 290 900 l 1
 290 690 l 1
 600 690 l 1
210 690 m 1
 210 783 l 1
 117 690 l 1
 210 690 l 1
EndSplineSet
EndChar

StartChar: dieresis
Encoding: 168 168 134
Width: 600
VWidth: 0
Flags: HW
LayerCount: 2
Fore
SplineSet
290 755 m 2
 290 690 l 1
 350 690 l 2
 383 690 410 719 410 755 c 0
 410 791 383 820 350 820 c 0
 317 820 290 791 290 755 c 2
210 0 m 1
 210 610 l 1
 0 610 l 1
 0 690 l 1
 210 690 l 1
 210 755 l 2
 210 835 273 900 350 900 c 0
 427 900 490 835 490 755 c 0
 490 675 427 610 350 610 c 2
 290 610 l 1
 290 0 l 1
 210 0 l 1
EndSplineSet
EndChar

StartChar: copyright
Encoding: 169 169 135
Width: 600
VWidth: 0
Flags: HW
LayerCount: 2
Fore
SplineSet
150 410 m 0
 150 460 190 500 240 500 c 0
 290 500 330 460 330 410 c 0
 330 360 290 320 240 320 c 0
 190 320 150 360 150 410 c 0
240 420 m 0
 234 420 230 416 230 410 c 0
 230 404 234 400 240 400 c 0
 246 400 250 404 250 410 c 0
 250 416 246 420 240 420 c 0
383 0 m 1
 10 0 l 1
 10 500 l 1
 90 500 l 1
 90 80 l 1
 318 80 l 1
 409 500 l 1
 491 500 l 1
 599 0 l 1
 517 0 l 1
 450 311 l 1
 383 0 l 1
EndSplineSet
EndChar

StartChar: ordfeminine
Encoding: 170 170 136
Width: 600
VWidth: 0
Flags: HW
LayerCount: 2
Fore
SplineSet
600 0 m 1
 378 0 l 1
 178 320 l 1
 -0 320 l 1
 -0 400 l 1
 222 400 l 1
 422 80 l 1
 600 80 l 1
 600 0 l 1
400 350 m 0
 400 378 422 400 450 400 c 0
 478 400 500 378 500 350 c 0
 500 322 478 300 450 300 c 0
 422 300 400 322 400 350 c 0
EndSplineSet
EndChar

StartChar: guillemotleft
Encoding: 171 171 137
Width: 600
VWidth: 0
Flags: HW
LayerCount: 2
Fore
SplineSet
400 700 m 0
 400 757 444 800 500 800 c 2
 516 800 l 1
 511 850 504 877 501 937 c 1
 440 974 371 1020 250 1020 c 0
 201 1020 154 1010 120 992 c 0
 95 979 80 963 80 950 c 0
 80 937 95 921 120 908 c 0
 154 890 201 880 250 880 c 2
 290 880 l 1
 290 0 l 1
 210 0 l 1
 210 802 l 1
 133 809 62 836 25 882 c 0
 8 903 0 926 0 950 c 0
 0 1005 42 1041 83 1063 c 0
 128 1087 188 1100 250 1100 c 0
 311 1100 367 1090 421 1069 c 0
 453 1057 480 1043 504 1029 c 1
 516 1070 552 1100 600 1100 c 0
 656 1100 700 1057 700 1000 c 0
 700 943 656 900 600 900 c 0
 595 900 589 900 584 901 c 1
 588 864 593 838 596 800 c 1
 780 800 l 1
 780 698 l 1
 787 699 794 700 800 700 c 0
 856 700 900 657 900 600 c 0
 900 543 856 500 800 500 c 0
 755 500 719 527 706 565 c 1
 684 547 668 532 668 532 c 1
 612 588 l 1
 613 589 639 616 673 642 c 0
 682 649 691 655 700 661 c 1
 700 720 l 1
 600 720 l 1
 600 700 l 2
 600 643 556 600 500 600 c 0
 444 600 400 643 400 700 c 0
780 600 m 2
 780 588 784 580 800 580 c 0
 817 580 820 591 820 600 c 0
 820 609 817 620 800 620 c 0
 798 620 792 620 780 615 c 1
 780 600 l 2
480 700 m 0
 480 688 484 680 500 680 c 0
 517 680 520 691 520 700 c 2
 520 720 l 1
 500 720 l 2
 483 720 480 709 480 700 c 0
580 985 m 1
 588 982 595 980 600 980 c 0
 617 980 620 991 620 1000 c 0
 620 1009 617 1020 600 1020 c 0
 583 1020 580 1009 580 1000 c 0
 580 995 580 990 580 985 c 1
EndSplineSet
EndChar

StartChar: logicalnot
Encoding: 172 172 138
Width: 600
VWidth: 0
Flags: HW
LayerCount: 2
Fore
SplineSet
171 310 m 1
 202 228 244 80 300 80 c 1
 300 0 l 1
 240 0 203 41 177 85 c 0
 152 128 131 184 112 237 c 0
 81 323 47 420 0 420 c 1
 0 500 l 1
 73 500 113 439 140 384 c 1
 476 508 l 1
 504 432 l 1
 171 310 l 1
EndSplineSet
EndChar

StartChar: uni00AD
Encoding: 173 173 139
Width: 600
VWidth: 0
Flags: HW
LayerCount: 2
Fore
SplineSet
500 250 m 0
 500 130 433 20 372 -64 c 0
 311 -148 251 -207 248 -209 c 1
 230 -190 210 -170 192 -151 c 1
 193 -150 265 -81 328 12 c 1
 303 4 277 0 250 0 c 0
 183 0 120 26 73 73 c 0
 26 120 0 183 0 250 c 0
 0 317 26 380 73 427 c 0
 120 474 183 500 250 500 c 0
 317 500 380 474 427 427 c 0
 474 380 500 317 500 250 c 0
80 250 m 0
 80 156 156 80 250 80 c 0
 344 80 420 156 420 250 c 0
 420 344 344 420 250 420 c 0
 156 420 80 344 80 250 c 0
500 700 m 1
 500 620 l 1
 0 620 l 1
 0 700 l 1
 500 700 l 1
EndSplineSet
EndChar

StartChar: registered
Encoding: 174 174 140
Width: 600
VWidth: 0
Flags: HW
LayerCount: 2
Fore
SplineSet
242 500 m 1
 275 596 337 700 450 700 c 0
 530 700 590 640 590 560 c 0
 590 483 527 420 450 420 c 2
 301 420 l 1
 286 358 280 295 280 250 c 0
 280 183 286 134 298 104 c 0
 308 80 316 80 320 80 c 0
 334 80 340 104 341 107 c 1
 419 93 l 1
 414 61 386 0 320 -0 c 0
 264 0 234 42 219 89 c 1
 212 56 183 0 120 -0 c 0
 70 0 40 34 24 74 c 0
 8 114 0 171 -0 250 c 0
 0 319 16 382 46 432 c 0
 69 471 93 490 96 492 c 2
 107 500 l 1
 242 500 l 1
136 420 m 1
 102 383 80 319 80 250 c 0
 80 183 86 134 98 104 c 0
 108 80 116 80 120 80 c 0
 134 80 140 104 141 107 c 1
 217 94 l 1
 205 132 200 184 200 250 c 0
 200 296 205 357 219 420 c 1
 136 420 l 1
327 500 m 1
 450 500 l 2
 483 500 510 527 510 560 c 0
 510 595 485 620 450 620 c 0
 390 620 350 556 327 500 c 1
EndSplineSet
EndChar

StartChar: macron
Encoding: 175 175 141
Width: 600
VWidth: 0
Flags: HW
LayerCount: 2
Fore
SplineSet
500 250 m 0
 500 142 429 50 340 16 c 1
 340 0 l 2
 340 -50 321 -104 283 -160 c 0
 256 -200 229 -227 228 -228 c 1
 172 -172 l 1
 197 -147 260 -68 260 0 c 1
 250 0 l 2
 183 0 120 26 73 73 c 0
 26 120 0 183 0 250 c 0
 0 287 8 323 24 357 c 1
 96 323 l 1
 85 300 80 276 80 250 c 0
 80 157 155 81 248 80 c 1
 231 148 200 223 200 300 c 0
 200 403 254 500 350 500 c 0
 396 500 436 476 462 432 c 0
 487 389 500 328 500 250 c 0
350 420 m 0
 309 420 280 370 280 300 c 0
 280 236 311 160 326 98 c 1
 382 126 420 184 420 250 c 0
 420 355 393 420 350 420 c 0
EndSplineSet
EndChar

StartChar: degree
Encoding: 176 176 142
Width: 600
VWidth: 0
Flags: HW
LayerCount: 2
Fore
SplineSet
390 0 m 1
 310 0 l 1
 310 610 l 1
 250 610 l 2
 217 610 190 583 190 550 c 2
 190 0 l 1
 110 0 l 1
 110 550 l 2
 110 627 173 690 250 690 c 2
 310 690 l 1
 310 755 l 2
 310 835 375 900 455 900 c 0
 535 900 600 835 600 755 c 0
 600 675 535 610 455 610 c 2
 390 610 l 1
 390 0 l 1
390 690 m 1
 455 690 l 2
 491 690 520 719 520 755 c 0
 520 791 491 820 455 820 c 0
 419 820 390 791 390 755 c 2
 390 690 l 1
EndSplineSet
EndChar

StartChar: plusminus
Encoding: 177 177 143
Width: 600
VWidth: 0
Flags: HW
LayerCount: 2
Fore
SplineSet
1150 1100 m 0
 1227 1100 1290 1035 1290 955 c 0
 1290 875 1227 810 1150 810 c 2
 1090 810 l 1
 1090 750 l 2
 1090 673 1027 610 950 610 c 2
 290 610 l 1
 290 0 l 1
 210 0 l 1
 210 610 l 1
 100 610 l 2
 89 610 80 601 80 590 c 0
 80 586 81 583 83 580 c 1
 13 540 l 1
 4 555 0 572 0 590 c 0
 0 645 45 690 100 690 c 2
 210 690 l 1
 210 810 l 1
 0 810 l 1
 0 887 l 1
 213 1100 l 1
 290 1100 l 1
 290 890 l 1
 1010 890 l 1
 1010 955 l 2
 1010 1035 1073 1100 1150 1100 c 0
210 890 m 1
 210 983 l 1
 117 890 l 1
 210 890 l 1
430 810 m 1
 430 690 l 1
 450 690 l 1
 450 810 l 1
 430 810 l 1
410 690 m 1
 410 810 l 1
 390 810 l 1
 390 690 l 1
 410 690 l 1
470 810 m 1
 470 690 l 1
 490 690 l 1
 490 810 l 1
 470 810 l 1
510 810 m 1
 510 690 l 1
 590 690 l 1
 590 810 l 1
 510 810 l 1
610 810 m 1
 610 690 l 1
 630 690 l 1
 630 810 l 1
 610 810 l 1
650 810 m 1
 650 690 l 1
 670 690 l 1
 670 810 l 1
 650 810 l 1
690 810 m 1
 690 690 l 1
 770 690 l 1
 770 810 l 1
 690 810 l 1
790 810 m 1
 790 690 l 1
 810 690 l 1
 810 810 l 1
 790 810 l 1
830 810 m 1
 830 690 l 1
 850 690 l 1
 850 810 l 1
 830 810 l 1
290 810 m 1
 290 690 l 1
 370 690 l 1
 370 810 l 1
 290 810 l 1
1010 750 m 2
 1010 810 l 1
 870 810 l 1
 870 690 l 1
 950 690 l 2
 983 690 1010 717 1010 750 c 2
1150 890 m 2
 1183 890 1210 919 1210 955 c 0
 1210 991 1183 1020 1150 1020 c 0
 1117 1020 1090 991 1090 955 c 2
 1090 890 l 1
 1150 890 l 2
EndSplineSet
EndChar

StartChar: uni00B2
Encoding: 178 178 144
Width: 600
VWidth: 0
Flags: HW
LayerCount: 2
Fore
SplineSet
390 420 m 1
 310 420 l 1
 310 610 l 1
 190 610 l 1
 190 420 l 1
 110 420 l 1
 110 610 l 1
 -100 610 l 1
 -100 687 l 1
 113 900 l 1
 190 900 l 1
 190 690 l 1
 310 690 l 1
 310 755 l 2
 310 835 373 900 450 900 c 0
 527 900 590 835 590 755 c 0
 590 675 527 610 450 610 c 2
 390 610 l 1
 390 420 l 1
110 690 m 1
 110 783 l 1
 17 690 l 1
 110 690 l 1
390 755 m 2
 390 690 l 1
 450 690 l 2
 483 690 510 719 510 755 c 0
 510 791 483 820 450 820 c 0
 417 820 390 791 390 755 c 2
EndSplineSet
EndChar

StartChar: uni00B3
Encoding: 179 179 145
Width: 600
VWidth: 0
Flags: HW
LayerCount: 2
Fore
SplineSet
600 500 m 1
 600 420 l 1
 0 420 l 1
 0 500 l 1
 210 500 l 1
 210 610 l 1
 0 610 l 1
 0 690 l 1
 210 690 l 1
 210 810 l 1
 0 810 l 1
 0 887 l 1
 213 1100 l 1
 290 1100 l 1
 290 890 l 1
 410 890 l 1
 410 955 l 2
 410 1035 473 1100 550 1100 c 0
 627 1100 690 1035 690 955 c 0
 690 875 627 810 550 810 c 2
 490 810 l 1
 490 790 l 1
 710 790 l 1
 710 855 l 2
 710 935 773 1000 850 1000 c 0
 927 1000 990 935 990 855 c 0
 990 775 927 710 850 710 c 2
 790 710 l 1
 790 610 l 1
 290 610 l 1
 290 500 l 1
 600 500 l 1
410 810 m 1
 290 810 l 1
 290 690 l 1
 710 690 l 1
 710 710 l 1
 410 710 l 1
 410 810 l 1
490 955 m 2
 490 890 l 1
 550 890 l 2
 583 890 610 919 610 955 c 0
 610 991 583 1020 550 1020 c 0
 517 1020 490 991 490 955 c 2
790 855 m 2
 790 790 l 1
 850 790 l 2
 883 790 910 819 910 855 c 0
 910 891 883 920 850 920 c 0
 817 920 790 891 790 855 c 2
210 890 m 1
 210 983 l 1
 117 890 l 1
 210 890 l 1
EndSplineSet
EndChar

StartChar: acute
Encoding: 180 180 146
Width: 600
VWidth: 0
Flags: HW
LayerCount: 2
Fore
SplineSet
213 1100 m 1
 290 1100 l 1
 290 890 l 1
 410 890 l 1
 410 955 l 2
 410 1035 473 1100 550 1100 c 0
 627 1100 690 1035 690 955 c 0
 690 922 679 891 661 867 c 1
 685 888 716 900 750 900 c 0
 827 900 890 835 890 755 c 0
 890 675 827 610 750 610 c 2
 690 610 l 1
 690 510 l 1
 290 510 l 1
 290 0 l 1
 210 0 l 1
 210 510 l 1
 0 510 l 1
 0 590 l 1
 210 590 l 1
 210 610 l 1
 100 610 l 2
 50 610 10 650 10 700 c 0
 10 750 50 790 100 790 c 2
 210 790 l 1
 210 810 l 1
 0 810 l 1
 0 887 l 1
 213 1100 l 1
210 690 m 1
 210 710 l 1
 100 710 l 2
 94 710 90 706 90 700 c 0
 90 694 94 690 100 690 c 2
 210 690 l 1
210 890 m 1
 210 983 l 1
 117 890 l 1
 210 890 l 1
690 755 m 2
 690 690 l 1
 750 690 l 2
 783 690 810 719 810 755 c 0
 810 791 783 820 750 820 c 0
 717 820 690 791 690 755 c 2
610 590 m 1
 610 610 l 1
 290 610 l 1
 290 590 l 1
 610 590 l 1
490 955 m 2
 490 890 l 1
 550 890 l 2
 583 890 610 919 610 955 c 0
 610 991 583 1020 550 1020 c 0
 517 1020 490 991 490 955 c 2
490 710 m 1
 290 710 l 1
 290 690 l 1
 610 690 l 1
 610 755 l 2
 610 788 621 819 639 843 c 1
 615 822 584 810 550 810 c 2
 490 810 l 1
 490 710 l 1
410 810 m 1
 290 810 l 1
 290 790 l 1
 410 790 l 1
 410 810 l 1
EndSplineSet
EndChar

StartChar: mu
Encoding: 181 181 147
Width: 600
VWidth: 0
Flags: HW
LayerCount: 2
Fore
SplineSet
410 810 m 1
 290 810 l 1
 290 790 l 1
 410 790 l 1
 410 810 l 1
490 955 m 2
 490 890 l 1
 550 890 l 2
 583 890 610 919 610 955 c 0
 610 991 583 1020 550 1020 c 0
 517 1020 490 991 490 955 c 2
210 890 m 1
 210 983 l 1
 117 890 l 1
 210 890 l 1
210 690 m 1
 210 710 l 1
 100 710 l 2
 94 710 90 706 90 700 c 0
 90 694 94 690 100 690 c 2
 210 690 l 1
213 1100 m 1
 290 1100 l 1
 290 890 l 1
 410 890 l 1
 410 955 l 2
 410 1035 473 1100 550 1100 c 0
 627 1100 690 1035 690 955 c 0
 690 875 627 810 550 810 c 2
 490 810 l 1
 490 710 l 1
 290 710 l 1
 290 690 l 1
 700 690 l 1
 700 610 l 1
 290 610 l 1
 290 500 l 1
 600 500 l 1
 600 420 l 1
 290 420 l 1
 290 0 l 1
 210 0 l 1
 210 420 l 1
 0 420 l 1
 0 500 l 1
 210 500 l 1
 210 610 l 1
 100 610 l 2
 50 610 10 650 10 700 c 0
 10 750 50 790 100 790 c 2
 210 790 l 1
 210 810 l 1
 0 810 l 1
 0 887 l 1
 213 1100 l 1
EndSplineSet
EndChar

StartChar: paragraph
Encoding: 182 182 148
Width: 600
VWidth: 0
Flags: HW
LayerCount: 2
Fore
SplineSet
290 500 m 1
 600 500 l 1
 600 420 l 1
 0 420 l 1
 0 500 l 1
 210 500 l 1
 210 900 l 1
 290 900 l 1
 290 790 l 1
 500 790 l 1
 500 710 l 1
 290 710 l 1
 290 500 l 1
EndSplineSet
EndChar

StartChar: periodcentered
Encoding: 183 183 149
Width: 600
VWidth: 0
Flags: HW
LayerCount: 2
Fore
SplineSet
210 690 m 1
 210 783 l 1
 117 690 l 1
 210 690 l 1
0 250 m 0
 0 375 95 479 210 497 c 1
 210 610 l 1
 0 610 l 1
 0 687 l 1
 213 900 l 1
 290 900 l 1
 290 690 l 1
 600 690 l 1
 600 610 l 1
 290 610 l 1
 290 420 l 1
 250 420 l 2
 156 420 80 344 80 250 c 0
 80 156 156 80 250 80 c 0
 325 80 392 130 413 201 c 1
 490 179 l 1
 462 83 369 0 250 0 c 0
 183 0 120 26 73 73 c 0
 26 120 0 183 0 250 c 0
EndSplineSet
EndChar

StartChar: cedilla
Encoding: 184 184 150
Width: 600
VWidth: 0
Flags: HW
LayerCount: 2
Fore
SplineSet
290 0 m 1
 210 0 l 1
 210 610 l 1
 0 610 l 1
 0 690 l 1
 210 690 l 1
 210 1090 l 1
 510 1090 l 1
 510 1125 l 2
 510 1188 562 1240 625 1240 c 0
 688 1240 740 1188 740 1125 c 0
 740 1062 688 1010 625 1010 c 2
 590 1010 l 1
 590 940 l 1
 710 940 l 1
 710 975 l 2
 710 1038 762 1090 825 1090 c 0
 888 1090 940 1038 940 975 c 0
 940 912 888 860 825 860 c 2
 790 860 l 1
 790 750 l 2
 790 673 727 610 650 610 c 2
 290 610 l 1
 290 0 l 1
290 690 m 1
 650 690 l 2
 683 690 710 717 710 750 c 2
 710 860 l 1
 590 860 l 1
 590 825 l 2
 590 762 538 710 475 710 c 0
 412 710 360 762 360 825 c 0
 360 888 412 940 475 940 c 2
 510 940 l 1
 510 1010 l 1
 290 1010 l 1
 290 690 l 1
475 860 m 2
 456 860 440 844 440 825 c 0
 440 806 456 790 475 790 c 0
 494 790 510 806 510 825 c 2
 510 860 l 1
 475 860 l 2
790 940 m 1
 825 940 l 2
 844 940 860 956 860 975 c 0
 860 994 844 1010 825 1010 c 0
 806 1010 790 994 790 975 c 2
 790 940 l 1
590 1090 m 1
 625 1090 l 2
 644 1090 660 1106 660 1125 c 0
 660 1144 644 1160 625 1160 c 0
 606 1160 590 1144 590 1125 c 2
 590 1090 l 1
EndSplineSet
EndChar

StartChar: uni00B9
Encoding: 185 185 151
Width: 600
VWidth: 0
Flags: HW
LayerCount: 2
Fore
SplineSet
500 500 m 1
 500 420 l 1
 375 420 l 1
 509 0 l 1
 425 0 l 1
 291 420 l 1
 209 420 l 1
 75 0 l 1
 -9 0 l 1
 125 420 l 1
 0 420 l 1
 0 500 l 1
 500 500 l 1
EndSplineSet
EndChar

StartChar: ordmasculine
Encoding: 186 186 152
Width: 600
VWidth: 0
Flags: HW
LayerCount: 2
Fore
SplineSet
660 1090 m 2
 737 1090 800 1027 800 950 c 0
 800 873 737 810 660 810 c 2
 590 810 l 1
 590 610 l 1
 390 610 l 1
 390 0 l 1
 310 0 l 1
 310 610 l 1
 190 610 l 1
 190 0 l 1
 110 0 l 1
 110 690 l 1
 310 690 l 1
 310 1090 l 1
 660 1090 l 2
510 690 m 1
 510 1010 l 1
 390 1010 l 1
 390 690 l 1
 510 690 l 1
660 890 m 2
 693 890 720 917 720 950 c 0
 720 983 693 1010 660 1010 c 2
 590 1010 l 1
 590 890 l 1
 660 890 l 2
EndSplineSet
EndChar

StartChar: guillemotright
Encoding: 187 187 153
Width: 600
VWidth: 0
Flags: HW
LayerCount: 2
Fore
SplineSet
295 0 m 0
 203 0 131 64 108 138 c 1
 185 162 l 1
 200 114 245 80 295 80 c 0
 358 80 410 132 410 195 c 2
 410 310 l 1
 195 310 l 2
 87 310 0 397 -0 505 c 0
 0 613 87 700 195 700 c 2
 400 700 l 1
 400 620 l 1
 195 620 l 2
 132 620 80 568 80 505 c 0
 80 442 132 390 195 390 c 2
 490 390 l 1
 490 195 l 2
 490 87 403 0 295 0 c 0
EndSplineSet
EndChar

StartChar: onequarter
Encoding: 188 188 154
Width: 600
VWidth: 0
Flags: HW
LayerCount: 2
Fore
SplineSet
250 1080 m 0
 379 1080 491 1044 571 991 c 0
 652 937 700 866 700 800 c 0
 700 721 635 675 569 650 c 0
 501 624 408 610 300 610 c 2
 290 610 l 1
 290 0 l 1
 210 0 l 1
 210 610 l 1
 0 610 l 1
 0 687 l 1
 213 900 l 1
 290 900 l 1
 290 690 l 1
 300 690 l 2
 397 690 483 703 541 725 c 0
 577 739 620 763 620 800 c 0
 620 829 596 878 527 924 c 0
 454 973 355 1000 250 1000 c 0
 22 1000 -147 797 -149 795 c 1
 -211 845 l 1
 -209 847 -162 905 -82 962 c 0
 4 1024 118 1080 250 1080 c 0
210 690 m 1
 210 783 l 1
 117 690 l 1
 210 690 l 1
EndSplineSet
EndChar

StartChar: onehalf
Encoding: 189 189 155
Width: 600
VWidth: 0
Flags: HW
LayerCount: 2
Fore
SplineSet
407 500 m 1
 490 500 l 1
 490 200 l 2
 490 14 417 -116 295 -185 c 0
 199 -240 104 -240 100 -240 c 1
 100 -160 l 1
 104 -160 182 -158 258 -114 c 0
 359 -55 410 51 410 200 c 2
 410 292 l 1
 293 0 l 1
 207 0 l 1
 7 500 l 1
 93 500 l 1
 250 108 l 1
 407 500 l 1
EndSplineSet
EndChar

StartChar: threequarters
Encoding: 190 190 156
Width: 600
VWidth: 0
Flags: HW
LayerCount: 2
Fore
SplineSet
110 43 m 1
 46 86 0 165 -0 250 c 0
 0 317 26 380 73 427 c 0
 120 474 183 500 250 500 c 0
 317 500 380 474 427 427 c 0
 474 380 500 317 500 250 c 0
 500 183 474 120 427 73 c 0
 380 26 317 0 250 0 c 0
 230 0 209 2 190 7 c 1
 190 -200 l 1
 110 -200 l 1
 110 43 l 1
80 250 m 0
 80 214 91 181 110 154 c 1
 110 346 l 1
 91 319 80 286 80 250 c 0
250 80 m 0
 344 80 420 156 420 250 c 0
 420 344 344 420 250 420 c 0
 229 420 209 416 190 409 c 1
 190 91 l 1
 209 84 229 80 250 80 c 0
EndSplineSet
EndChar

StartChar: questiondown
Encoding: 191 191 157
Width: 600
VWidth: 0
Flags: HW
LayerCount: 2
Fore
SplineSet
63 500 m 1
 81 609 180 700 300 700 c 0
 363 700 423 675 468 631 c 1
 412 574 l 1
 382 603 342 620 300 620 c 0
 226 620 163 569 145 500 c 1
 600 500 l 1
 600 420 l 1
 145 420 l 1
 163 351 226 300 300 300 c 0
 342 300 382 317 412 346 c 1
 468 289 l 1
 423 245 363 220 300 220 c 0
 180 220 81 311 63 420 c 1
 -0 420 l 1
 -0 500 l 1
 63 500 l 1
EndSplineSet
EndChar

StartChar: Agrave
Encoding: 192 192 158
Width: 600
VWidth: 0
Flags: HW
LayerCount: 2
Fore
SplineSet
109 80 m 1
 203 136 420 292 420 450 c 0
 420 544 344 620 250 620 c 0
 156 620 80 544 80 450 c 1
 -0 450 l 1
 0 517 26 580 73 627 c 0
 120 674 183 700 250 700 c 0
 317 700 380 674 427 627 c 0
 474 580 500 517 500 450 c 0
 500 317 402 209 316 133 c 0
 294 114 273 95 252 80 c 1
 500 80 l 1
 500 0 l 1
 0 0 l 1
 0 80 l 1
 109 80 l 1
EndSplineSet
EndChar

StartChar: Aacute
Encoding: 193 193 159
Width: 600
VWidth: 0
Flags: HW
LayerCount: 2
Fore
SplineSet
356 0 m 1
 354 5 351 12 348 20 c 1
 317 7 284 0 250 0 c 0
 183 0 120 26 73 73 c 0
 26 120 0 183 0 250 c 0
 0 317 26 380 73 427 c 0
 120 474 183 500 250 500 c 2
 340 500 l 1
 340 460 l 2
 340 314 369 203 397 117 c 1
 500 426 l 1
 598 133 l 1
 522 107 l 1
 500 174 l 1
 442 0 l 1
 356 0 l 1
320 95 m 1
 293 178 266 282 261 420 c 1
 250 420 l 2
 156 420 80 344 80 250 c 0
 80 156 156 80 250 80 c 0
 274 80 298 85 320 95 c 1
EndSplineSet
EndChar

StartChar: Acircumflex
Encoding: 194 194 160
Width: 600
VWidth: 0
Flags: HW
LayerCount: 2
Fore
SplineSet
564 405 m 1
 596 332 l 1
 578 324 559 320 540 320 c 0
 477 320 423 362 406 420 c 1
 90 420 l 1
 90 0 l 1
 10 0 l 1
 10 500 l 1
 110 500 l 1
 110 810 l 1
 -100 810 l 1
 -100 887 l 1
 113 1100 l 1
 190 1100 l 1
 190 890 l 1
 310 890 l 1
 310 955 l 2
 310 1035 373 1100 450 1100 c 0
 527 1100 590 1035 590 955 c 0
 590 875 527 810 450 810 c 2
 390 810 l 1
 390 500 l 1
 406 500 l 1
 423 558 477 600 540 600 c 0
 559 600 578 596 596 588 c 1
 564 515 l 1
 556 518 548 520 540 520 c 0
 507 520 480 493 480 460 c 0
 480 427 507 400 540 400 c 0
 548 400 556 402 564 405 c 1
390 955 m 2
 390 890 l 1
 450 890 l 2
 483 890 510 919 510 955 c 0
 510 991 483 1020 450 1020 c 0
 417 1020 390 991 390 955 c 2
110 890 m 1
 110 983 l 1
 17 890 l 1
 110 890 l 1
190 500 m 1
 310 500 l 1
 310 810 l 1
 190 810 l 1
 190 500 l 1
EndSplineSet
EndChar

StartChar: Atilde
Encoding: 195 195 161
Width: 600
VWidth: 0
Flags: HW
LayerCount: 2
Fore
SplineSet
510 600 m 1
 590 600 l 1
 590 420 l 1
 220 420 l 1
 221 418 222 417 223 415 c 0
 248 372 269 316 288 263 c 0
 319 177 353 80 400 80 c 1
 400 0 l 1
 340 0 303 41 277 85 c 0
 252 128 231 184 212 237 c 0
 181 323 147 420 100 420 c 2
 0 420 l 1
 0 500 l 1
 510 500 l 1
 510 600 l 1
EndSplineSet
EndChar

StartChar: Adieresis
Encoding: 196 196 162
Width: 600
VWidth: 0
Flags: HW
LayerCount: 2
Fore
SplineSet
290 755 m 2
 290 690 l 1
 350 690 l 2
 383 690 410 719 410 755 c 0
 410 791 383 820 350 820 c 0
 317 820 290 791 290 755 c 2
0 500 m 1
 210 500 l 1
 210 610 l 1
 0 610 l 1
 0 690 l 1
 210 690 l 1
 210 755 l 2
 210 835 273 900 350 900 c 0
 427 900 490 835 490 755 c 0
 490 675 427 610 350 610 c 2
 290 610 l 1
 290 500 l 1
 600 500 l 1
 600 420 l 1
 0 420 l 1
 0 500 l 1
EndSplineSet
EndChar

StartChar: Aring
Encoding: 197 197 163
Width: 600
VWidth: 0
Flags: HW
LayerCount: 2
Fore
SplineSet
350 700 m 0
 431 700 500 631 500 550 c 0
 500 481 464 446 434 428 c 0
 402 410 360 400 304 400 c 1
 321 320 340 221 340 100 c 0
 340 -59 258 -195 254 -201 c 1
 231 -187 209 -173 186 -159 c 1
 187 -158 260 -36 260 100 c 0
 260 223 238 321 221 403 c 1
 150 408 71 420 0 420 c 1
 0 500 l 1
 69 500 139 491 206 485 c 1
 202 508 200 529 200 550 c 0
 200 636 264 700 350 700 c 0
288 480 m 1
 292 480 296 480 300 480 c 0
 343 480 374 486 394 497 c 0
 407 505 420 517 420 550 c 0
 420 588 388 620 350 620 c 0
 316 620 280 602 280 550 c 0
 280 530 283 506 288 480 c 1
EndSplineSet
EndChar

StartChar: AE
Encoding: 198 198 164
Width: 600
VWidth: 0
Flags: HW
LayerCount: 2
Fore
SplineSet
245 420 m 0
 154 420 80 344 80 250 c 0
 80 156 154 80 245 80 c 0
 336 80 410 156 410 250 c 0
 410 344 336 420 245 420 c 0
490 250 m 2
 490 114 380 0 245 -0 c 0
 110 0 0 114 0 250 c 0
 0 386 110 500 245 500 c 0
 307 500 365 477 410 435 c 1
 410 610 l 1
 200 610 l 1
 200 687 l 1
 413 900 l 1
 490 900 l 1
 490 690 l 1
 700 690 l 1
 700 610 l 1
 490 610 l 1
 490 250 l 2
410 690 m 1
 410 783 l 1
 317 690 l 1
 410 690 l 1
EndSplineSet
EndChar

StartChar: Ccedilla
Encoding: 199 199 165
Width: 600
VWidth: 0
Flags: HW
LayerCount: 2
Fore
SplineSet
290 0 m 1
 210 0 l 1
 210 810 l 1
 145 810 l 2
 65 810 0 875 -0 955 c 0
 0 1035 65 1100 145 1100 c 0
 225 1100 290 1035 290 955 c 2
 290 890 l 1
 450 890 l 1
 450 955 l 2
 450 1035 515 1100 595 1100 c 0
 675 1100 740 1035 740 955 c 0
 740 875 675 810 595 810 c 2
 530 810 l 1
 530 790 l 1
 710 790 l 1
 710 825 l 2
 710 888 762 940 825 940 c 0
 888 940 940 888 940 825 c 0
 940 762 888 710 825 710 c 2
 790 710 l 1
 790 690 l 1
 910 690 l 1
 910 695 910 700 910 705 c 0
 910 757 953 800 1005 800 c 0
 1057 800 1100 757 1100 705 c 0
 1100 653 1057 610 1005 610 c 2
 981 610 l 1
 949 454 846 389 841 386 c 1
 799 454 l 1
 802 456 829 474 855 512 c 0
 875 541 890 574 899 610 c 1
 790 610 l 1
 790 595 l 2
 790 543 747 500 695 500 c 0
 643 500 600 543 600 595 c 0
 600 647 643 690 695 690 c 2
 710 690 l 1
 710 710 l 1
 530 710 l 1
 530 675 l 2
 530 612 478 560 415 560 c 0
 352 560 300 612 300 675 c 0
 300 738 352 790 415 790 c 2
 450 790 l 1
 450 810 l 1
 290 810 l 1
 290 0 l 1
695 610 m 2
 687 610 680 603 680 595 c 0
 680 587 687 580 695 580 c 0
 703 580 710 587 710 595 c 2
 710 610 l 1
 695 610 l 2
415 710 m 2
 396 710 380 694 380 675 c 0
 380 656 396 640 415 640 c 0
 434 640 450 656 450 675 c 2
 450 710 l 1
 415 710 l 2
990 690 m 1
 1005 690 l 2
 1013 690 1020 697 1020 705 c 0
 1020 713 1013 720 1005 720 c 0
 997 720 990 713 990 705 c 0
 990 700 990 695 990 690 c 1
790 790 m 1
 825 790 l 2
 844 790 860 806 860 825 c 0
 860 844 844 860 825 860 c 0
 806 860 790 844 790 825 c 2
 790 790 l 1
530 890 m 1
 595 890 l 2
 631 890 660 919 660 955 c 0
 660 991 631 1020 595 1020 c 0
 559 1020 530 991 530 955 c 2
 530 890 l 1
145 1020 m 0
 109 1020 80 991 80 955 c 0
 80 919 109 890 145 890 c 2
 210 890 l 1
 210 955 l 2
 210 991 181 1020 145 1020 c 0
310 1000 m 1
 310 1000 340 985 340 955 c 0
 340 925 310 910 310 910 c 1
 310 910 320 925 320 955 c 0
 320 985 310 1000 310 1000 c 1
340 1000 m 1
 340 1000 370 985 370 955 c 0
 370 925 340 910 340 910 c 1
 340 910 350 925 350 955 c 0
 350 985 340 1000 340 1000 c 1
370 1000 m 1
 370 1000 400 985 400 955 c 0
 400 925 370 910 370 910 c 1
 370 910 380 925 380 955 c 0
 380 985 370 1000 370 1000 c 1
400 1000 m 1
 400 1000 430 985 430 955 c 0
 430 925 400 910 400 910 c 1
 400 910 410 925 410 955 c 0
 410 985 400 1000 400 1000 c 1
EndSplineSet
EndChar

StartChar: Egrave
Encoding: 200 200 166
Width: 600
VWidth: 0
Flags: HW
LayerCount: 2
Fore
SplineSet
600 420 m 1
 180 420 l 1
 180 300 l 2
 180 234 234 180 300 180 c 0
 328 180 354 189 375 206 c 1
 425 144 l 1
 390 116 345 100 300 100 c 0
 190 100 100 190 100 300 c 2
 100 420 l 1
 0 420 l 1
 0 500 l 1
 600 500 l 1
 600 420 l 1
EndSplineSet
EndChar

StartChar: Eacute
Encoding: 201 201 167
Width: 600
VWidth: 0
Flags: HW
LayerCount: 2
Fore
SplineSet
200 0 m 0
 79 0 0 79 0 200 c 0
 0 282 40 355 112 406 c 0
 136 423 162 437 192 449 c 1
 186 452 181 455 176 458 c 0
 113 494 100 544 100 580 c 0
 100 650 155 700 230 700 c 0
 315 700 380 651 422 597 c 0
 473 532 500 444 500 350 c 0
 500 257 467 169 405 101 c 0
 359 50 287 0 200 0 c 0
415 410 m 1
 305 407 217 383 158 341 c 0
 107 305 80 256 80 200 c 0
 80 123 123 80 200 80 c 0
 249 80 303 107 345 154 c 0
 393 207 420 277 420 350 c 0
 420 370 418 391 415 410 c 1
230 620 m 0
 222 620 180 618 180 580 c 0
 180 565 184 545 216 527 c 0
 242 512 293 495 392 491 c 1
 383 512 371 531 358 548 c 0
 323 594 276 620 230 620 c 0
EndSplineSet
EndChar

StartChar: Ecircumflex
Encoding: 202 202 168
Width: 600
VWidth: 0
Flags: HW
LayerCount: 2
Fore
SplineSet
390 -200 m 1
 310 -200 l 1
 310 410 l 1
 190 410 l 1
 190 -200 l 1
 110 -200 l 1
 110 410 l 1
 -100 410 l 1
 -100 487 l 1
 113 700 l 1
 190 700 l 1
 190 490 l 1
 310 490 l 1
 310 555 l 2
 310 635 373 700 450 700 c 0
 527 700 590 635 590 555 c 0
 590 475 527 410 450 410 c 2
 390 410 l 1
 390 -200 l 1
110 490 m 1
 110 583 l 1
 17 490 l 1
 110 490 l 1
390 555 m 2
 390 490 l 1
 450 490 l 2
 483 490 510 519 510 555 c 0
 510 591 483 620 450 620 c 0
 417 620 390 591 390 555 c 2
EndSplineSet
EndChar

StartChar: Edieresis
Encoding: 203 203 169
Width: 600
VWidth: 0
Flags: HW
LayerCount: 2
Fore
SplineSet
180 550 m 0
 180 440 357 287 404 252 c 1
 356 188 l 1
 353 190 293 235 231 301 c 0
 144 393 100 477 100 550 c 0
 100 633 167 700 250 700 c 0
 333 700 400 633 400 550 c 1
 320 550 l 1
 320 589 289 620 250 620 c 0
 211 620 180 589 180 550 c 0
EndSplineSet
EndChar

StartChar: Igrave
Encoding: 204 204 170
Width: 600
VWidth: 0
Flags: HW
LayerCount: 2
Fore
SplineSet
347 -210 m 1
 293 -150 l 1
 296 -147 340 -104 375 -13 c 0
 397 46 419 135 419 254 c 0
 419 304 415 359 406 420 c 1
 0 420 l 1
 0 500 l 1
 474 500 l 1
 479 467 l 1
 492 392 499 321 499 253 c 0
 499 137 481 40 447 -47 c 0
 404 -157 349 -208 347 -210 c 1
EndSplineSet
EndChar

StartChar: Iacute
Encoding: 205 205 171
Width: 600
VWidth: 0
Flags: HW
LayerCount: 2
Fore
SplineSet
287 42 m 1
 323 96 380 230 380 350 c 0
 380 475 285 575 244 612 c 1
 230 605 213 596 194 585 c 0
 140 553 125 534 121 528 c 1
 123 523 129 509 156 486 c 0
 178 468 201 454 201 454 c 1
 159 386 l 1
 158 387 131 403 104 426 c 0
 61 463 40 497 40 530 c 0
 40 604 189 676 233 696 c 1
 255 707 l 1
 274 692 l 2
 276 691 322 655 367 597 c 0
 416 534 460 449 460 350 c 0
 460 160 357 5 353 -2 c 1
 287 42 l 1
EndSplineSet
EndChar

StartChar: Icircumflex
Encoding: 206 206 172
Width: 600
VWidth: 0
Flags: HW
LayerCount: 2
Fore
SplineSet
90 -200 m 1
 10 -200 l 1
 10 280 l 1
 250 280 l 2
 344 280 420 356 420 450 c 0
 420 544 344 620 250 620 c 2
 0 620 l 1
 0 700 l 1
 250 700 l 2
 317 700 380 674 427 627 c 0
 474 580 500 517 500 450 c 0
 500 383 474 320 427 273 c 0
 380 226 317 200 250 200 c 2
 90 200 l 1
 90 -200 l 1
EndSplineSet
EndChar

StartChar: Idieresis
Encoding: 207 207 173
Width: 600
VWidth: 0
Flags: HW
LayerCount: 2
Fore
SplineSet
125 180 m 1
 115 260 l 2
 116 260 172 267 228 286 c 0
 285 305 320 329 320 350 c 0
 320 371 285 395 228 414 c 0
 172 433 116 440 115 440 c 2
 125 520 l 1
 128 520 190 511 253 490 c 0
 292 477 323 462 346 444 c 0
 390 411 400 375 400 350 c 0
 400 325 390 289 346 256 c 0
 323 238 292 223 253 210 c 0
 190 189 128 180 125 180 c 1
EndSplineSet
EndChar

StartChar: Eth
Encoding: 208 208 174
Width: 600
VWidth: 0
Flags: HW
LayerCount: 2
Fore
SplineSet
420 500 m 0
 420 575 328 620 250 620 c 0
 199 620 150 601 107 562 c 0
 74 533 56 502 55 500 c 1
 -15 540 l 1
 -14 542 9 581 52 620 c 0
 110 673 179 700 250 700 c 0
 349 700 439 652 478 582 c 0
 492 556 500 528 500 500 c 0
 500 415 441 359 380 329 c 1
 417 294 440 245 440 190 c 0
 440 85 355 0 250 0 c 0
 170 0 98 51 71 127 c 1
 146 153 l 1
 162 109 203 80 250 80 c 0
 311 80 360 129 360 190 c 0
 360 251 311 300 250 300 c 1
 250 380 l 1
 328 380 420 425 420 500 c 0
EndSplineSet
EndChar

StartChar: Ntilde
Encoding: 209 209 175
Width: 600
VWidth: 0
Flags: HW
LayerCount: 2
Fore
SplineSet
200 900 m 0
 287 900 350 837 350 750 c 0
 350 688 319 610 258 519 c 0
 254 512 249 506 245 500 c 1
 600 500 l 1
 600 420 l 1
 250 420 l 2
 156 420 80 344 80 250 c 0
 80 156 156 80 250 80 c 0
 325 80 392 130 413 201 c 1
 490 179 l 1
 462 83 369 0 250 0 c 0
 183 0 120 26 73 73 c 0
 26 120 0 183 0 250 c 0
 0 336 48 415 112 458 c 0
 120 467 156 510 192 564 c 0
 243 640 270 705 270 750 c 0
 270 802 234 820 200 820 c 0
 161 820 130 789 130 750 c 0
 130 739 133 728 138 718 c 1
 66 682 l 1
 55 703 50 726 50 750 c 0
 50 833 117 900 200 900 c 0
EndSplineSet
EndChar

StartChar: Ograve
Encoding: 210 210 176
Width: 600
VWidth: 0
Flags: HW
LayerCount: 2
Fore
SplineSet
450 700 m 0
 534 700 590 619 590 530 c 0
 590 441 534 360 450 360 c 0
 442 360 435 361 428 362 c 1
 461 301 500 243 500 150 c 0
 500 -12 358 -197 352 -205 c 1
 288 -155 l 1
 289 -153 420 16 420 150 c 0
 420 211 396 253 369 302 c 0
 353 330 335 362 322 399 c 1
 315 400 308 400 300 400 c 0
 290 400 260 395 207 346 c 0
 193 333 180 320 171 309 c 1
 202 227 244 80 300 80 c 1
 300 0 l 1
 240 0 203 41 177 85 c 0
 152 128 131 184 112 237 c 0
 81 323 47 420 0 420 c 1
 0 500 l 1
 71 500 110 442 137 389 c 1
 142 394 148 399 153 404 c 0
 207 454 256 480 300 480 c 0
 352 480 382 466 405 454 c 0
 422 446 432 440 450 440 c 0
 490 440 510 488 510 530 c 0
 510 572 490 620 450 620 c 0
 413 620 380 578 380 530 c 1
 300 530 l 1
 300 617 366 700 450 700 c 0
EndSplineSet
EndChar

StartChar: Oacute
Encoding: 211 211 177
Width: 600
VWidth: 0
Flags: HW
LayerCount: 2
Fore
SplineSet
101 608 m 0
 101 743 161 900 300 900 c 0
 356 900 431 875 471 752 c 0
 491 692 500 614 500 520 c 0
 500 434 479 322 438 185 c 0
 409 89 383 20 377 5 c 1
 303 35 l 1
 307 46 340 134 340 250 c 0
 340 312 322 359 287 388 c 0
 259 411 224 420 200 420 c 0
 112 420 80 343 80 250 c 0
 80 177 89 128 89 128 c 1
 11 112 l 1
 11 114 0 168 -0 250 c 0
 0 390 68 500 200 500 c 0
 295 500 372 437 401 361 c 1
 412 417 420 472 420 520 c 0
 420 606 411 675 394 727 c 0
 367 811 327 820 300 820 c 0
 210 820 181 696 181 608 c 0
 181 580 184 553 189 529 c 1
 111 511 l 1
 104 540 101 574 101 608 c 0
EndSplineSet
EndChar

StartChar: Ocircumflex
Encoding: 212 212 178
Width: 600
VWidth: 0
Flags: HW
LayerCount: 2
Fore
SplineSet
400 680 m 2
 452 680 510 710 510 760 c 0
 510 795 485 820 450 820 c 0
 417 820 390 789 390 750 c 2
 390 680 l 1
 400 680 l 2
390 600 m 1
 390 0 l 2
 390 -94 317 -149 239 -179 c 0
 172 -204 106 -210 103 -210 c 1
 97 -130 l 2
 98 -130 156 -125 212 -103 c 0
 277 -78 310 -44 310 0 c 2
 310 613 l 1
 265 626 223 649 190 681 c 1
 190 0 l 1
 110 0 l 1
 110 860 l 1
 190 860 l 1
 190 796 234 728 310 697 c 1
 310 750 l 2
 310 830 372 900 450 900 c 0
 530 900 590 840 590 760 c 0
 590 667 497 600 400 600 c 2
 390 600 l 1
EndSplineSet
EndChar

StartChar: Otilde
Encoding: 213 213 179
Width: 600
VWidth: 0
Flags: HW
LayerCount: 2
Fore
SplineSet
690 960 m 0
 690 867 597 800 500 800 c 2
 490 800 l 1
 490 690 l 1
 600 690 l 1
 600 610 l 1
 410 610 l 1
 410 813 l 1
 365 826 323 849 290 881 c 1
 290 0 l 1
 210 0 l 1
 210 1060 l 1
 290 1060 l 1
 290 996 334 928 410 897 c 1
 410 950 l 2
 410 1030 472 1100 550 1100 c 0
 630 1100 690 1040 690 960 c 0
500 880 m 2
 552 880 610 910 610 960 c 0
 610 995 585 1020 550 1020 c 0
 517 1020 490 989 490 950 c 2
 490 880 l 1
 500 880 l 2
700 650 m 0
 700 628 682 610 660 610 c 0
 638 610 620 628 620 650 c 0
 620 672 638 690 660 690 c 0
 682 690 700 672 700 650 c 0
800 650 m 0
 800 628 782 610 760 610 c 0
 738 610 720 628 720 650 c 0
 720 672 738 690 760 690 c 0
 782 690 800 672 800 650 c 0
EndSplineSet
EndChar

StartChar: Odieresis
Encoding: 214 214 180
Width: 600
VWidth: 0
Flags: HW
LayerCount: 2
Fore
SplineSet
890 800 m 2
 890 659 799 610 650 610 c 2
 400 610 l 1
 400 690 l 1
 650 690 l 2
 715 690 760 700 784 721 c 0
 802 737 810 762 810 800 c 2
 810 810 l 1
 680 810 l 2
 631 810 587 815 550 826 c 1
 513 815 469 810 420 810 c 2
 290 810 l 1
 290 0 l 1
 210 0 l 1
 210 810 l 1
 0 810 l 1
 0 887 l 1
 213 1100 l 1
 290 1100 l 1
 290 890 l 1
 442 890 l 1
 422 914 410 942 410 970 c 0
 410 1043 475 1100 550 1100 c 0
 625 1100 690 1043 690 970 c 0
 690 942 678 914 658 890 c 1
 890 890 l 1
 890 800 l 2
210 890 m 1
 210 983 l 1
 117 890 l 1
 210 890 l 1
550 1020 m 0
 517 1020 490 998 490 970 c 0
 490 959 499 941 523 925 c 0
 530 920 539 916 550 911 c 1
 561 916 570 920 577 925 c 0
 601 941 610 959 610 970 c 0
 610 998 583 1020 550 1020 c 0
EndSplineSet
EndChar

StartChar: multiply
Encoding: 215 215 181
Width: 600
VWidth: 0
Flags: HW
LayerCount: 2
Fore
SplineSet
390 755 m 2
 390 690 l 1
 450 690 l 2
 483 690 510 719 510 755 c 0
 510 791 483 820 450 820 c 0
 417 820 390 791 390 755 c 2
110 690 m 1
 110 783 l 1
 17 690 l 1
 110 690 l 1
390 0 m 1
 310 0 l 1
 310 22 l 1
 293 8 272 0 250 0 c 0
 228 0 208 8 190 22 c 1
 190 0 l 1
 110 0 l 1
 110 610 l 1
 -100 610 l 1
 -100 687 l 1
 113 900 l 1
 190 900 l 1
 190 690 l 1
 310 690 l 1
 310 755 l 2
 310 835 373 900 450 900 c 0
 527 900 590 835 590 755 c 0
 590 675 527 610 450 610 c 2
 390 610 l 1
 390 0 l 1
190 258 m 1
 208 272 228 280 250 280 c 0
 268 280 286 274 302 263 c 1
 258 197 l 1
 254 200 251 200 250 200 c 0
 238 200 220 176 220 140 c 0
 220 104 238 80 250 80 c 0
 259 80 273 95 278 119 c 1
 310 111 l 1
 310 610 l 1
 190 610 l 1
 190 258 l 1
EndSplineSet
EndChar

StartChar: Oslash
Encoding: 216 216 182
Width: 600
VWidth: 0
Flags: HW
LayerCount: 2
Fore
SplineSet
600 690 m 1
 600 610 l 1
 290 610 l 1
 290 500 l 1
 600 500 l 1
 600 420 l 1
 0 420 l 1
 0 500 l 1
 210 500 l 1
 210 610 l 1
 0 610 l 1
 0 687 l 1
 213 900 l 1
 290 900 l 1
 290 690 l 1
 600 690 l 1
210 690 m 1
 210 783 l 1
 117 690 l 1
 210 690 l 1
EndSplineSet
EndChar

StartChar: ugrave
Encoding: 249 249 183
Width: 600
VWidth: 0
Flags: HW
LayerCount: 2
Fore
SplineSet
210 700 m 1
 290 700 l 1
 290 300 l 1
 600 300 l 1
 600 220 l 1
 290 220 l 1
 290 -200 l 1
 210 -200 l 1
 210 220 l 1
 0 220 l 1
 0 287 l 1
 210 497 l 1
 210 700 l 1
210 383 m 1
 127 300 l 1
 210 300 l 1
 210 383 l 1
EndSplineSet
EndChar

StartChar: uacute
Encoding: 250 250 184
Width: 600
VWidth: 0
Flags: HW
LayerCount: 2
Fore
SplineSet
245 500 m 0
 380 500 490 386 490 250 c 2
 490 0 l 1
 410 0 l 1
 410 100 l 1
 376 63 306 0 220 0 c 0
 151 0 97 35 62 76 c 0
 22 123 0 184 0 250 c 0
 0 386 110 500 245 500 c 0
349 152 m 0
 391 197 409 240 410 250 c 0
 410 344 336 420 245 420 c 0
 154 420 80 344 80 250 c 0
 80 156 143 80 220 80 c 0
 260 80 307 106 349 152 c 0
EndSplineSet
EndChar

StartChar: ucircumflex
Encoding: 251 251 185
Width: 600
VWidth: 0
Flags: HW
LayerCount: 2
Fore
SplineSet
349 -9 m 1
 327 8 l 2
 324 10 250 64 176 143 c 0
 132 190 97 237 71 282 c 0
 37 341 20 397 20 450 c 0
 20 516 51 563 90 597 c 0
 124 626 170 650 228 668 c 0
 322 697 415 700 419 700 c 2
 451 701 l 1
 489 550 l 1
 411 530 l 1
 389 618 l 1
 356 615 303 607 250 591 c 0
 150 560 100 513 100 450 c 0
 100 379 146 291 233 198 c 0
 279 149 326 110 352 89 c 1
 448 153 l 1
 492 87 l 1
 349 -9 l 1
EndSplineSet
EndChar

StartChar: udieresis
Encoding: 252 252 186
Width: 600
VWidth: 0
Flags: HW
LayerCount: 2
Fore
SplineSet
342 583 m 0
 375 641 423 700 500 700 c 1
 500 620 l 1
 441 620 382 519 339 341 c 0
 314 239 300 136 294 80 c 1
 440 80 l 1
 440 0 l 1
 40 0 l 1
 40 80 l 1
 206 80 l 1
 200 136 186 239 161 341 c 0
 118 518 59 620 -0 620 c 1
 -0 700 l 1
 77 700 125 641 158 583 c 0
 193 520 228 414 250 310 c 1
 272 413 307 521 342 583 c 0
EndSplineSet
EndChar

StartChar: yacute
Encoding: 253 253 187
Width: 600
VWidth: 0
Flags: HW
LayerCount: 2
Fore
SplineSet
500 320 m 1
 384 320 371 261 370 80 c 1
 440 80 l 1
 440 0 l 1
 40 0 l 1
 40 80 l 1
 130 80 l 1
 129 261 116 320 0 320 c 1
 0 400 l 1
 96 400 157 364 186 289 c 0
 207 235 210 165 210 80 c 1
 290 80 l 1
 290 165 293 235 314 289 c 0
 343 364 404 400 500 400 c 1
 500 320 l 1
283 520 m 1
 217 530 100 532 100 600 c 0
 100 663 193 680 241 701 c 1
 231 705 218 710 199 716 c 0
 169 725 142 731 142 731 c 1
 158 809 l 1
 160 809 199 801 238 788 c 0
 284 773 340 747 340 700 c 0
 340 646 269 626 225 609 c 1
 290 599 400 596 400 530 c 0
 400 493 361 471 347 463 c 0
 328 452 301 440 269 428 c 0
 216 408 163 393 161 392 c 1
 154 418 146 442 139 468 c 1
 139 468 181 481 226 497 c 0
 250 506 269 514 283 520 c 1
EndSplineSet
EndChar

StartChar: thorn
Encoding: 254 254 188
Width: 600
VWidth: 0
Flags: HW
LayerCount: 2
Fore
SplineSet
100 80 m 1
 400 80 l 1
 400 0 l 1
 100 0 l 1
 100 80 l 1
134 296 m 1
 152 291 161 280 180 280 c 0
 186 281 200 293 208 304 c 1
 272 256 l 1
 265 247 227 200 180 200 c 0
 151 200 134 208 122 214 c 0
 114 218 111 220 100 220 c 0
 83 220 58 202 48 192 c 1
 -9 248 l 1
 -9 248 34 293 76 353 c 0
 129 429 156 497 156 550 c 0
 156 584 143 620 118 620 c 0
 91 620 82 563 80 545 c 1
 0 555 l 1
 9 630 44 700 118 700 c 0
 186 700 236 637 236 550 c 0
 236 477 198 386 134 296 c 1
380 700 m 0
 465 700 500 615 500 520 c 0
 500 335 353 197 347 191 c 1
 293 249 l 1
 293 249 326 280 358 330 c 0
 386 374 420 443 420 520 c 0
 420 566 410 620 380 620 c 0
 348 620 340 582 340 560 c 0
 340 551 341 541 344 533 c 1
 269 507 l 1
 263 524 260 542 260 560 c 0
 260 641 310 700 380 700 c 0
EndSplineSet
EndChar

StartChar: ydieresis
Encoding: 255 255 189
Width: 600
VWidth: 0
Flags: HW
LayerCount: 2
Fore
SplineSet
600 620 m 1
 100 620 l 1
 100 700 l 1
 600 700 l 1
 600 620 l 1
500 250 m 0
 500 110 390 0 250 0 c 0
 125 0 2 40 -3 42 c 1
 23 118 l 2
 24 118 138 80 250 80 c 0
 349 80 420 151 420 250 c 0
 420 301 416 353 412 397 c 1
 377 352 320 284 287 252 c 0
 249 215 224 200 200 200 c 0
 135 200 123 295 116 366 c 0
 110 432 110 497 110 500 c 1
 190 500 l 1
 190 499 190 449 194 394 c 0
 198 337 205 306 210 290 c 1
 227 304 259 336 316 405 c 0
 365 465 408 523 408 524 c 2
 480 506 l 1
 481 501 500 372 500 250 c 0
EndSplineSet
EndChar

StartChar: dotlessi
Encoding: 305 305 190
Width: 600
VWidth: 0
Flags: HW
LayerCount: 2
Fore
SplineSet
-36 785 m 1
 13 848 95 900 200 900 c 0
 280 900 355 869 412 812 c 0
 469 755 500 680 500 600 c 0
 500 502 456 445 418 415 c 0
 376 381 319 362 258 360 c 1
 272 328 281 293 289 259 c 0
 314 155 332 80 500 80 c 1
 500 0 l 1
 398 0 326 26 279 79 c 0
 238 126 224 185 211 241 c 0
 196 305 184 358 138 389 c 1
 105 405 69 420 -0 420 c 1
 -0 500 l 1
 73 500 132 487 176 459 c 0
 199 448 217 440 250 440 c 0
 278 440 420 448 420 600 c 0
 420 721 321 820 200 820 c 0
 132 820 69 789 27 735 c 1
 -36 785 l 1
EndSplineSet
EndChar

StartChar: Lslash
Encoding: 321 321 191
Width: 600
VWidth: 0
Flags: HW
LayerCount: 2
Fore
SplineSet
210 617 m 1
 149 606 80 563 80 500 c 1
 0 500 l 1
 0 565 36 614 77 645 c 0
 114 673 160 691 210 697 c 1
 210 800 l 1
 290 800 l 1
 290 697 l 1
 372 687 444 644 478 582 c 0
 492 556 500 528 500 500 c 0
 500 437 471 384 414 343 c 0
 377 317 333 297 290 281 c 1
 290 0 l 1
 210 0 l 1
 210 67 l 1
 141 84 60 121 60 200 c 0
 60 238 81 270 123 296 c 0
 148 311 178 324 210 336 c 1
 210 617 l 1
140 200 m 0
 140 173 189 156 210 150 c 1
 210 250 l 1
 172 234 140 217 140 200 c 0
367 408 m 0
 404 434 420 463 420 500 c 0
 420 563 351 606 290 617 c 1
 290 367 l 1
 318 379 345 392 367 408 c 0
EndSplineSet
EndChar

StartChar: lslash
Encoding: 322 322 192
Width: 600
VWidth: 0
Flags: HW
LayerCount: 2
Fore
SplineSet
600 500 m 1
 600 420 l 1
 0 420 l 1
 0 500 l 1
 210 500 l 1
 210 810 l 1
 0 810 l 1
 0 887 l 1
 213 1100 l 1
 290 1100 l 1
 290 890 l 1
 303 890 l 1
 317 952 379 1000 450 1000 c 0
 530 1000 600 938 600 860 c 0
 600 821 584 785 553 759 c 1
 577 736 590 704 590 670 c 0
 590 633 573 580 493 540 c 0
 451 519 410 511 408 511 c 1
 392 589 l 1
 392 589 426 597 458 613 c 0
 482 625 510 644 510 670 c 0
 510 701 483 720 440 720 c 1
 440 800 l 1
 486 800 520 826 520 860 c 0
 520 893 489 920 450 920 c 0
 411 920 380 893 380 860 c 2
 380 810 l 1
 290 810 l 1
 290 500 l 1
 600 500 l 1
210 890 m 1
 210 983 l 1
 117 890 l 1
 210 890 l 1
EndSplineSet
EndChar

StartChar: OE
Encoding: 338 338 193
Width: 600
VWidth: 0
Flags: HW
LayerCount: 2
Fore
SplineSet
250 300 m 0
 184 300 122 332 85 387 c 1
 151 433 l 1
 173 400 210 380 250 380 c 0
 316 380 370 434 370 500 c 0
 370 566 316 620 250 620 c 0
 210 620 173 600 151 567 c 1
 85 613 l 1
 122 668 184 700 250 700 c 0
 360 700 450 610 450 500 c 0
 450 390 360 300 250 300 c 0
EndSplineSet
EndChar

StartChar: oe
Encoding: 339 339 194
Width: 600
VWidth: 0
Flags: HW
LayerCount: 2
Fore
SplineSet
630 1296 m 0
 630 1358 688 1389 750 1389 c 1
 833 1383 882 1334 889 1251 c 0
 889 1245 888 1239 888 1234 c 1
 966 1200 1036 1155 1112 1119 c 1
 1112 1142 l 1
 1113 1224 1167 1278 1250 1278 c 0
 1324 1278 1379 1226 1379 1153 c 0
 1379 1074 1330 1023 1252 1022 c 1
 1248 1022 l 2
 1221 1022 1199 1027 1177 1033 c 1
 1180 1015 1182 996 1184 977 c 1
 1291 940 1298 796 1299 654 c 1
 1299 645 l 1
 1298 547 1263 476 1203 434 c 0
 1175 415 1144 401 1101 400 c 1
 1097 400 l 1
 1062 401 1030 406 998 411 c 2
 982 414 l 1
 982 349 l 1
 981 270 930 220 851 219 c 1
 848 219 l 1
 773 220 718 273 718 347 c 0
 718 434 773 490 859 490 c 0
 880 490 900 487 918 484 c 1
 918 516 l 1
 759 515 l 1
 744 499 728 484 710 470 c 1
 720 485 730 500 740 515 c 1
 676 515 l 1
 681 494 686 470 686 445 c 0
 686 366 635 313 556 313 c 0
 471 313 415 365 414 449 c 1
 414 452 l 1
 415 532 468 584 548 585 c 1
 580 585 l 1
 578 593 575 602 573 610 c 1
 360 610 l 1
 360 0 l 1
 280 0 l 1
 280 710 l 1
 220 710 l 1
 220 0 l 1
 140 0 l 1
 140 712 l 1
 30 724 -50 788 -50 900 c 0
 -50 1025 50 1100 180 1100 c 0
 300 1100 360 1023 360 900 c 2
 360 790 l 1
 522 790 l 1
 518 808 512 827 512 849 c 2
 512 852 l 1
 513 934 567 989 651 989 c 0
 735 989 789 932 789 848 c 0
 789 764 733 711 650 710 c 1
 622 710 l 1
 634 669 646 627 658 585 c 1
 782 585 l 1
 809 633 836 684 850 744 c 0
 854 763 856 782 856 800 c 0
 856 849 843 894 830 933 c 1
 749 972 684 1032 612 1080 c 1
 589 1044 558 1012 500 1012 c 0
 449 1012 412 1048 412 1100 c 0
 413 1155 451 1187 500 1187 c 0
 535 1187 567 1170 591 1157 c 1
 603 1177 619 1198 651 1198 c 2
 653 1198 l 2
 701 1198 722 1169 769 1169 c 2
 770 1169 l 2
 796 1169 811 1182 820 1199 c 1
 794 1207 770 1210 738 1212 c 0
 690 1215 630 1243 630 1296 c 0
468 1100 m 0
 468 1080 480 1068 500 1068 c 2
 501 1068 l 1
 534 1069 551 1089 564 1110 c 1
 547 1120 524 1132 500 1132 c 0
 480 1132 468 1120 468 1100 c 0
140 1017 m 1
 77 1006 30 969 30 900 c 0
 30 826 83 799 140 792 c 1
 140 1017 l 1
280 790 m 1
 280 900 l 2
 280 977 253 1005 220 1015 c 1
 220 790 l 1
 280 790 l 1
360 690 m 1
 549 690 l 1
 547 697 545 703 543 710 c 1
 360 710 l 1
 360 690 l 1
613 447 m 1
 613 451 l 1
 612 474 605 495 600 515 c 1
 549 515 l 1
 509 514 486 491 486 451 c 2
 486 450 l 1
 487 411 513 385 550 385 c 0
 592 385 612 404 613 447 c 1
648 911 m 0
 617 911 588 889 588 851 c 2
 588 850 l 2
 588 829 595 809 600 790 c 1
 652 790 l 1
 688 791 711 813 711 847 c 0
 711 888 683 911 648 911 c 0
1100 868 m 0
 1119 868 1132 881 1132 900 c 2
 1132 903 l 2
 1132 912 1131 921 1131 930 c 1
 1122 931 1113 932 1103 932 c 2
 1100 932 l 2
 1079 932 1068 915 1068 899 c 0
 1068 883 1079 868 1100 868 c 0
750 1331 m 0
 731 1331 688 1321 688 1301 c 0
 688 1297 690 1293 693 1289 c 0
 711 1266 757 1271 793 1265 c 0
 806 1263 819 1259 831 1255 c 1
 828 1297 795 1330 750 1331 c 0
650 1142 m 1
 650 1142 l 1
851 282 m 0
 889 282 918 306 918 348 c 2
 918 423 l 1
 895 426 875 430 850 430 c 0
 809 430 779 392 779 352 c 0
 779 310 809 282 851 282 c 0
1013 901 m 0
 1013 946 1045 988 1099 988 c 2
 1126 988 l 1
 1123 1010 1121 1031 1118 1054 c 1
 1032 1090 958 1140 874 1178 c 1
 857 1141 823 1111 771 1111 c 2
 769 1111 l 1
 717 1112 697 1142 650 1142 c 0
 646 1140 642 1132 639 1127 c 1
 699 1086 755 1039 816 1001 c 1
 816 1048 850 1085 898 1085 c 0
 953 1085 984 1043 984 998 c 0
 984 958 955 913 903 913 c 0
 898 913 892 914 886 915 c 1
 896 883 902 844 902 806 c 0
 902 781 899 756 893 733 c 0
 877 676 848 627 817 584 c 1
 918 584 l 1
 918 652 l 1
 919 730 969 782 1049 782 c 0
 1129 782 1183 731 1183 650 c 0
 1183 568 1129 517 1048 516 c 0
 1026 516 1004 516 982 516 c 1
 982 474 l 1
 1008 470 l 2
 1038 465 1067 460 1099 460 c 2
 1101 460 l 2
 1170 460 1213 515 1230 569 c 0
 1239 597 1241 631 1241 667 c 0
 1241 694 1240 721 1238 747 c 0
 1234 811 1227 880 1188 911 c 1
 1188 899 l 2
 1188 850 1150 811 1102 811 c 0
 1048 811 1013 853 1013 901 c 0
1051 718 m 0
 1004 718 982 691 982 644 c 2
 982 584 l 1
 1052 584 l 1
 1092 585 1117 609 1117 648 c 0
 1117 691 1093 718 1051 718 c 0
935 997 m 0
 935 1021 922 1036 899 1036 c 0
 878 1036 864 1021 864 1000 c 2
 864 998 l 2
 864 989 866 982 868 974 c 1
 878 970 889 968 900 968 c 0
 919 968 935 975 935 997 c 0
1323 1147 m 0
 1323 1193 1296 1222 1249 1222 c 0
 1200 1222 1169 1190 1168 1141 c 1
 1168 1140 l 2
 1168 1124 1169 1109 1170 1094 c 1
 1194 1086 1218 1079 1248 1078 c 1
 1250 1078 l 2
 1293 1078 1323 1106 1323 1147 c 0
1270 1150 m 0
 1270 1139 1261 1130 1250 1130 c 0
 1239 1130 1230 1139 1230 1150 c 0
 1230 1161 1239 1170 1250 1170 c 0
 1261 1170 1270 1161 1270 1150 c 0
1120 900 m 0
 1120 889 1111 880 1100 880 c 0
 1089 880 1080 889 1080 900 c 0
 1080 911 1089 920 1100 920 c 0
 1111 920 1120 911 1120 900 c 0
880 1000 m 0
 880 1011 889 1020 900 1020 c 0
 911 1020 920 1011 920 1000 c 0
 920 989 911 980 900 980 c 0
 889 980 880 989 880 1000 c 0
770 1300 m 0
 770 1289 761 1280 750 1280 c 0
 739 1280 730 1289 730 1300 c 0
 730 1311 739 1320 750 1320 c 0
 761 1320 770 1311 770 1300 c 0
520 1100 m 0
 520 1089 511 1080 500 1080 c 0
 489 1080 480 1089 480 1100 c 0
 480 1111 489 1120 500 1120 c 0
 511 1120 520 1111 520 1100 c 0
650 830 m 0
 639 830 630 839 630 850 c 0
 630 861 639 870 650 870 c 0
 661 870 670 861 670 850 c 0
 670 839 661 830 650 830 c 0
570 450 m 0
 570 439 561 430 550 430 c 0
 539 430 530 439 530 450 c 0
 530 461 539 470 550 470 c 0
 561 470 570 461 570 450 c 0
870 350 m 0
 870 339 861 330 850 330 c 0
 839 330 830 339 830 350 c 0
 830 361 839 370 850 370 c 0
 861 370 870 361 870 350 c 0
1030 650 m 0
 1030 661 1039 670 1050 670 c 0
 1061 670 1070 661 1070 650 c 0
 1070 639 1061 630 1050 630 c 0
 1039 630 1030 639 1030 650 c 0
EndSplineSet
EndChar

StartChar: Scaron
Encoding: 352 352 195
Width: 600
VWidth: 0
Flags: HW
LayerCount: 2
Fore
SplineSet
250 620 m 0
 172 620 80 575 80 500 c 0
 80 425 156 405 217 383 c 0
 258 368 301 352 335 327 c 0
 378 295 400 253 400 200 c 0
 400 153 382 111 347 77 c 0
 319 49 284 29 253 12 c 0
 208 -13 180 -30 180 -50 c 0
 180 -58 192 -77 235 -101 c 0
 269 -120 303 -132 303 -132 c 1
 277 -208 l 1
 275 -207 235 -194 195 -171 c 0
 132 -135 100 -94 100 -50 c 0
 100 18 164 54 214 82 c 0
 280 119 320 145 320 200 c 0
 320 255 281 274 190 307 c 0
 147 322 103 338 67 365 c 0
 22 399 0 444 0 500 c 0
 0 565 36 614 77 645 c 0
 124 680 185 700 250 700 c 0
 349 700 439 652 478 582 c 0
 492 556 500 528 500 500 c 1
 420 500 l 1
 420 575 328 620 250 620 c 0
EndSplineSet
EndChar

StartChar: scaron
Encoding: 353 353 196
Width: 600
VWidth: 0
Flags: HW
LayerCount: 2
Fore
SplineSet
385 384 m 1
 440 334 520 285 520 285 c 1
 480 215 l 1
 477 217 411 256 344 314 c 0
 332 324 320 334 310 344 c 1
 261 321 209 304 175 294 c 1
 211 197 250 80 320 80 c 1
 320 -0 l 1
 252 0 208 42 178 89 c 0
 148 135 127 194 106 251 c 0
 86 305 49 420 -0 420 c 1
 -0 500 l 1
 80 500 119 428 146 368 c 1
 173 376 213 389 255 407 c 1
 219 456 200 504 200 550 c 0
 200 633 267 700 350 700 c 0
 433 700 500 633 500 550 c 0
 500 504 478 461 434 421 c 0
 420 408 404 396 385 384 c 1
328 443 m 1
 388 478 420 516 420 550 c 0
 420 589 389 620 350 620 c 0
 311 620 280 589 280 550 c 0
 280 518 304 473 328 443 c 1
EndSplineSet
EndChar

StartChar: Ydieresis
Encoding: 376 376 197
Width: 600
VWidth: 0
Flags: HW
LayerCount: 2
Fore
SplineSet
510 955 m 2
 510 1035 573 1100 650 1100 c 0
 727 1100 790 1035 790 955 c 0
 790 875 727 810 650 810 c 2
 590 810 l 1
 590 750 l 2
 590 673 527 610 450 610 c 2
 390 610 l 1
 390 0 l 1
 310 0 l 1
 310 610 l 1
 190 610 l 1
 190 0 l 1
 110 0 l 1
 110 410 l 1
 50 410 l 2
 -27 410 -90 473 -90 550 c 0
 -90 627 -27 690 50 690 c 2
 310 690 l 1
 310 810 l 1
 100 810 l 1
 100 887 l 1
 313 1100 l 1
 390 1100 l 1
 390 890 l 1
 510 890 l 1
 510 955 l 2
110 490 m 1
 110 610 l 1
 50 610 l 2
 17 610 -10 583 -10 550 c 0
 -10 517 17 490 50 490 c 2
 110 490 l 1
310 890 m 1
 310 983 l 1
 217 890 l 1
 310 890 l 1
510 750 m 2
 510 810 l 1
 390 810 l 1
 390 690 l 1
 450 690 l 2
 483 690 510 717 510 750 c 2
590 955 m 2
 590 890 l 1
 650 890 l 2
 683 890 710 919 710 955 c 0
 710 991 683 1020 650 1020 c 0
 617 1020 590 991 590 955 c 2
EndSplineSet
EndChar

StartChar: Zcaron
Encoding: 381 381 198
Width: 600
VWidth: 0
Flags: HW
LayerCount: 2
Fore
SplineSet
349 -7 m 1
 291 47 l 1
 292 48 400 168 400 300 c 0
 400 404 358 543 336 608 c 1
 24 493 l 1
 -4 567 l 1
 383 711 l 1
 397 674 l 2
 400 665 480 456 480 300 c 0
 480 136 354 -1 349 -7 c 1
EndSplineSet
EndChar

StartChar: zcaron
Encoding: 382 382 199
Width: 600
VWidth: 0
Flags: HW
LayerCount: 2
Fore
SplineSet
600 500 m 1
 600 420 l 1
 295 420 l 1
 277 357 219 310 150 310 c 0
 67 310 0 377 -0 460 c 0
 0 543 67 610 150 610 c 0
 219 610 277 563 295 500 c 1
 600 500 l 1
EndSplineSet
EndChar

StartChar: florin
Encoding: 402 402 200
Width: 600
VWidth: 0
Flags: HW
LayerCount: 2
Fore
SplineSet
106 420 m 1
 157 348 200 253 200 140 c 0
 200 41 166 -45 124 -112 c 0
 87 -172 49 -208 47 -209 c 1
 31 -192 16 -176 0 -159 c 1
 0 -143 l 1
 11 -131 34 -105 57 -68 c 0
 99 0 120 70 120 140 c 0
 120 281 33 387 3 420 c 1
 0 420 l 1
 0 500 l 1
 600 500 l 1
 600 420 l 1
 106 420 l 1
EndSplineSet
EndChar

StartChar: circumflex
Encoding: 710 710 201
Width: 600
VWidth: 0
Flags: HW
LayerCount: 2
Fore
SplineSet
342 460 m 2
 342 360 372 287 408 248 c 1
 352 192 l 1
 351 193 341 203 328 222 c 1
 305 208 278 200 250 200 c 0
 167 200 100 267 100 350 c 0
 100 433 167 500 250 500 c 2
 342 500 l 1
 342 460 l 2
250 420 m 2
 211 420 180 389 180 350 c 0
 180 311 211 280 250 280 c 0
 265 280 279 285 291 294 c 1
 278 328 268 369 264 420 c 1
 250 420 l 2
EndSplineSet
EndChar

StartChar: tilde
Encoding: 732 732 202
Width: 600
VWidth: 0
Flags: HW
LayerCount: 2
Fore
SplineSet
390 0 m 1
 310 0 l 1
 310 320 l 1
 200 320 l 2
 134 320 80 266 80 200 c 0
 80 134 134 80 200 80 c 0
 216 80 231 83 245 89 c 1
 275 15 l 1
 251 5 226 0 200 0 c 0
 90 0 0 90 0 200 c 0
 0 310 90 400 200 400 c 2
 310 400 l 1
 310 460 l 2
 310 537 373 600 450 600 c 0
 527 600 590 537 590 460 c 0
 590 383 527 320 450 320 c 2
 390 320 l 1
 390 0 l 1
390 400 m 1
 450 400 l 2
 483 400 510 427 510 460 c 0
 510 493 483 520 450 520 c 0
 417 520 390 493 390 460 c 2
 390 400 l 1
EndSplineSet
EndChar

StartChar: uni2010
Encoding: 8208 8208 219
Width: 600
VWidth: 0
Flags: HW
LayerCount: 2
Fore
SplineSet
0 310 m 1
 0 390 l 1
 500 390 l 1
 500 310 l 1
 0 310 l 1
EndSplineSet
EndChar

StartChar: uni2011
Encoding: 8209 8209 220
Width: 600
VWidth: 0
Flags: HW
LayerCount: 2
Fore
SplineSet
0 310 m 1
 0 390 l 1
 500 390 l 1
 500 310 l 1
 0 310 l 1
EndSplineSet
EndChar

StartChar: figuredash
Encoding: 8210 8210 221
Width: 600
VWidth: 0
Flags: HW
LayerCount: 2
Fore
SplineSet
0 310 m 1
 0 390 l 1
 500 390 l 1
 500 310 l 1
 0 310 l 1
EndSplineSet
EndChar

StartChar: endash
Encoding: 8211 8211 222
Width: 600
VWidth: 0
Flags: HW
LayerCount: 2
Fore
SplineSet
150 200 m 0
 67 200 0 267 0 350 c 0
 0 433 67 500 150 500 c 2
 590 500 l 1
 590 300 l 1
 510 300 l 1
 510 420 l 1
 150 420 l 2
 111 420 80 389 80 350 c 0
 80 311 111 280 150 280 c 0
 176 280 200 294 212 318 c 1
 284 282 l 1
 258 232 207 200 150 200 c 0
EndSplineSet
EndChar

StartChar: emdash
Encoding: 8212 8212 223
Width: 600
VWidth: 0
Flags: HW
LayerCount: 2
Fore
SplineSet
-50 900 m 0
 42 900 90 792 98 690 c 1
 310 690 l 1
 310 890 l 1
 710 890 l 1
 710 955 l 2
 710 1035 775 1100 855 1100 c 0
 935 1100 1000 1035 1000 955 c 0
 1000 875 935 810 855 810 c 2
 790 810 l 1
 790 610 l 1
 590 610 l 1
 590 410 l 1
 390 410 l 1
 390 -0 l 1
 310 -0 l 1
 310 410 l 1
 190 410 l 1
 190 -0 l 1
 110 -0 l 1
 110 490 l 1
 310 490 l 1
 310 610 l 1
 98 610 l 1
 89 499 30 400 -80 400 c 0
 -146 400 -200 453 -200 520 c 0
 -200 625 -91 674 18 686 c 1
 15 722 7 754 -5 779 c 0
 -14 798 -29 820 -50 820 c 0
 -92 820 -134 754 -144 733 c 1
 -216 767 l 1
 -215 768 -202 799 -176 830 c 0
 -139 876 -95 900 -50 900 c 0
-15 513 m 0
 2 535 12 566 17 605 c 1
 -35 598 -66 585 -84 574 c 0
 -108 559 -120 540 -120 520 c 0
 -120 504 -109 480 -80 480 c 0
 -62 480 -36 485 -15 513 c 0
390 810 m 1
 390 690 l 1
 510 690 l 1
 510 810 l 1
 390 810 l 1
510 490 m 1
 510 610 l 1
 390 610 l 1
 390 490 l 1
 510 490 l 1
710 690 m 1
 710 810 l 1
 590 810 l 1
 590 690 l 1
 710 690 l 1
855 890 m 2
 891 890 920 919 920 955 c 0
 920 991 891 1020 855 1020 c 0
 819 1020 790 991 790 955 c 2
 790 890 l 1
 855 890 l 2
EndSplineSet
EndChar

StartChar: uni2015
Encoding: 8213 8213 224
Width: 600
VWidth: 0
Flags: HW
LayerCount: 2
Fore
SplineSet
0 310 m 1
 0 390 l 1
 600 390 l 1
 600 310 l 1
 0 310 l 1
EndSplineSet
EndChar

StartChar: quoteleft
Encoding: 8216 8216 225
Width: 600
VWidth: 0
Flags: HW
LayerCount: 2
Fore
SplineSet
395 79 m 1
 370 39 328 0 270 0 c 0
 175 0 100 110 100 250 c 0
 100 369 154 500 260 500 c 0
 341 500 410 429 437 366 c 2
 451 333 l 1
 187 185 l 1
 197 141 228 80 270 80 c 0
 297 80 317 106 327 121 c 1
 395 79 l 1
345 365 m 1
 327 389 292 420 260 420 c 0
 235 420 218 394 209 379 c 0
 193 351 184 314 181 273 c 1
 345 365 l 1
EndSplineSet
EndChar

StartChar: quoteright
Encoding: 8217 8217 226
Width: 600
VWidth: 0
Flags: HW
LayerCount: 2
Fore
SplineSet
190 -0 m 1
 110 -0 l 1
 110 690 l 1
 310 690 l 1
 310 890 l 1
 510 890 l 1
 510 955 l 2
 510 1035 575 1100 655 1100 c 0
 735 1100 800 1035 800 955 c 0
 800 875 735 810 655 810 c 2
 590 810 l 1
 590 610 l 1
 390 610 l 1
 390 -0 l 1
 310 -0 l 1
 310 610 l 1
 190 610 l 1
 190 -0 l 1
390 690 m 1
 510 690 l 1
 510 810 l 1
 390 810 l 1
 390 690 l 1
590 890 m 1
 655 890 l 2
 691 890 720 919 720 955 c 0
 720 991 691 1020 655 1020 c 0
 619 1020 590 991 590 955 c 2
 590 890 l 1
EndSplineSet
EndChar

StartChar: quotesinglbase
Encoding: 8218 8218 227
Width: 600
VWidth: 0
Flags: HW
LayerCount: 2
Fore
SplineSet
350 610 m 2
 290 610 l 1
 290 80 l 1
 450 80 l 2
 527 80 590 17 590 -60 c 0
 590 -137 527 -200 450 -200 c 0
 373 -200 310 -137 310 -60 c 0
 310 -39 315 -18 324 0 c 1
 150 0 l 2
 67 0 0 67 0 150 c 0
 0 233 67 300 150 300 c 2
 210 300 l 1
 210 610 l 1
 100 610 l 2
 89 610 80 601 80 590 c 0
 80 586 81 583 83 580 c 1
 13 540 l 1
 4 555 0 572 0 590 c 0
 0 645 45 690 100 690 c 2
 210 690 l 1
 210 810 l 1
 0 810 l 1
 0 887 l 1
 213 1100 l 1
 290 1100 l 1
 290 890 l 1
 410 890 l 1
 410 955 l 2
 410 1035 473 1100 550 1100 c 0
 627 1100 690 1035 690 955 c 0
 690 875 627 810 550 810 c 2
 490 810 l 1
 490 750 l 2
 490 673 427 610 350 610 c 2
490 955 m 2
 490 890 l 1
 550 890 l 2
 583 890 610 919 610 955 c 0
 610 991 583 1020 550 1020 c 0
 517 1020 490 991 490 955 c 2
290 810 m 1
 290 690 l 1
 350 690 l 2
 383 690 410 717 410 750 c 2
 410 810 l 1
 290 810 l 1
510 -60 m 0
 510 -27 483 0 450 0 c 0
 417 0 390 -27 390 -60 c 0
 390 -93 417 -120 450 -120 c 0
 483 -120 510 -93 510 -60 c 0
117 890 m 1
 210 890 l 1
 210 983 l 1
 117 890 l 1
150 80 m 2
 210 80 l 1
 210 220 l 1
 150 220 l 2
 111 220 80 189 80 150 c 0
 80 111 111 80 150 80 c 2
EndSplineSet
EndChar

StartChar: quotedblleft
Encoding: 8220 8220 228
Width: 600
VWidth: 0
Flags: HW
LayerCount: 2
Fore
SplineSet
397 564 m 1
 346 523 278 500 200 500 c 0
 73 500 0 573 0 700 c 1
 80 700 l 1
 80 617 117 580 200 580 c 0
 296 580 365 620 406 700 c 1
 503 700 l 1
 378 0 l 1
 297 0 l 1
 397 564 l 1
EndSplineSet
EndChar

StartChar: quotedblright
Encoding: 8221 8221 229
Width: 600
VWidth: 0
Flags: HW
LayerCount: 2
Fore
SplineSet
600 500 m 1
 600 420 l 1
 0 420 l 1
 0 500 l 1
 210 500 l 1
 210 610 l 1
 100 610 l 2
 89 610 80 601 80 590 c 0
 80 586 81 583 83 580 c 1
 13 540 l 1
 4 555 0 572 0 590 c 0
 0 645 45 690 100 690 c 2
 210 690 l 1
 210 810 l 1
 0 810 l 1
 0 887 l 1
 213 1100 l 1
 290 1100 l 1
 290 890 l 1
 410 890 l 1
 410 955 l 2
 410 1035 473 1100 550 1100 c 0
 627 1100 690 1035 690 955 c 0
 690 875 627 810 550 810 c 2
 490 810 l 1
 490 750 l 2
 490 673 427 610 350 610 c 2
 290 610 l 1
 290 500 l 1
 600 500 l 1
410 810 m 1
 290 810 l 1
 290 690 l 1
 350 690 l 2
 383 690 410 717 410 750 c 2
 410 810 l 1
490 955 m 2
 490 890 l 1
 550 890 l 2
 583 890 610 919 610 955 c 0
 610 991 583 1020 550 1020 c 0
 517 1020 490 991 490 955 c 2
210 890 m 1
 210 983 l 1
 117 890 l 1
 210 890 l 1
EndSplineSet
EndChar

StartChar: quotedblbase
Encoding: 8222 8222 230
Width: 600
VWidth: 0
Flags: HW
LayerCount: 2
Fore
SplineSet
600 690 m 1
 600 610 l 1
 290 610 l 1
 290 500 l 1
 600 500 l 1
 600 420 l 1
 290 420 l 1
 290 0 l 1
 210 0 l 1
 210 420 l 1
 0 420 l 1
 0 500 l 1
 210 500 l 1
 210 610 l 1
 0 610 l 1
 0 687 l 1
 213 900 l 1
 290 900 l 1
 290 690 l 1
 600 690 l 1
210 690 m 1
 210 783 l 1
 117 690 l 1
 210 690 l 1
EndSplineSet
EndChar

StartChar: dagger
Encoding: 8224 8224 231
Width: 600
VWidth: 0
Flags: HW
LayerCount: 2
Fore
SplineSet
600 500 m 1
 600 420 l 1
 390 420 l 1
 390 -0 l 1
 310 -0 l 1
 310 420 l 1
 190 420 l 1
 190 -0 l 1
 110 -0 l 1
 110 420 l 1
 0 420 l 1
 0 500 l 1
 110 500 l 1
 110 690 l 1
 310 690 l 1
 310 890 l 1
 510 890 l 1
 510 955 l 2
 510 1035 575 1100 655 1100 c 0
 735 1100 800 1035 800 955 c 0
 800 875 735 810 655 810 c 2
 590 810 l 1
 590 610 l 1
 390 610 l 1
 390 500 l 1
 600 500 l 1
590 890 m 1
 655 890 l 2
 691 890 720 919 720 955 c 0
 720 991 691 1020 655 1020 c 0
 619 1020 590 991 590 955 c 2
 590 890 l 1
390 690 m 1
 510 690 l 1
 510 810 l 1
 390 810 l 1
 390 690 l 1
190 500 m 1
 310 500 l 1
 310 610 l 1
 190 610 l 1
 190 500 l 1
EndSplineSet
EndChar

StartChar: daggerdbl
Encoding: 8225 8225 232
Width: 600
VWidth: 0
Flags: HW
LayerCount: 2
Fore
SplineSet
250 620 m 0
 172 620 80 575 80 500 c 1
 0 500 l 1
 0 565 36 614 77 645 c 0
 124 680 185 700 250 700 c 0
 349 700 439 652 478 582 c 0
 492 556 500 528 500 500 c 0
 500 415 441 359 380 329 c 1
 417 294 440 245 440 190 c 0
 440 85 355 0 250 0 c 0
 203 0 158 17 123 48 c 1
 177 108 l 1
 197 90 223 80 250 80 c 0
 311 80 360 129 360 190 c 0
 360 251 311 300 250 300 c 1
 250 380 l 1
 328 380 420 425 420 500 c 0
 420 575 328 620 250 620 c 0
EndSplineSet
EndChar

StartChar: bullet
Encoding: 8226 8226 233
Width: 600
VWidth: 0
Flags: HW
LayerCount: 2
Fore
SplineSet
584 440 m 0
 588 426 590 411 590 396 c 0
 590 376 587 357 580 337 c 0
 569 305 541 271 495 232 c 0
 463 206 435 187 434 186 c 1
 391 254 l 1
 391 254 485 311 504 363 c 0
 508 376 510 386 510 396 c 0
 510 405 509 414 507 420 c 1
 283 420 l 1
 294 399 300 375 300 350 c 0
 300 267 233 200 150 200 c 0
 67 200 0 267 0 350 c 0
 0 433 67 500 150 500 c 2
 552 500 l 1
 564 484 l 2
 566 481 577 465 584 440 c 0
EndSplineSet
EndChar

StartChar: ellipsis
Encoding: 8230 8230 234
Width: 600
VWidth: 0
Flags: HW
LayerCount: 2
Fore
SplineSet
290 755 m 2
 290 690 l 1
 350 690 l 2
 383 690 410 719 410 755 c 0
 410 791 383 820 350 820 c 0
 317 820 290 791 290 755 c 2
0 500 m 1
 210 500 l 1
 210 610 l 1
 0 610 l 1
 0 690 l 1
 210 690 l 1
 210 755 l 2
 210 835 273 900 350 900 c 0
 427 900 490 835 490 755 c 0
 490 675 427 610 350 610 c 2
 290 610 l 1
 290 500 l 1
 600 500 l 1
 600 420 l 1
 290 420 l 1
 290 0 l 1
 210 0 l 1
 210 420 l 1
 0 420 l 1
 0 500 l 1
EndSplineSet
EndChar

StartChar: perthousand
Encoding: 8240 8240 243
Width: 600
VWidth: 0
Flags: HW
LayerCount: 2
Fore
SplineSet
310 750 m 2
 310 830 372 900 450 900 c 0
 530 900 590 840 590 760 c 0
 590 667 497 600 400 600 c 2
 390 600 l 1
 390 -0 l 1
 310 -0 l 1
 310 300 l 2
 310 305 308 319 303 335 c 1
 276 316 239 302 190 300 c 1
 190 -0 l 1
 110 -0 l 1
 110 307 l 1
 60 317 0 344 0 400 c 0
 0 456 60 483 110 493 c 1
 110 860 l 1
 190 860 l 1
 190 796 234 728 310 697 c 1
 310 750 l 2
85 400 m 1
 90 397 99 392 110 389 c 1
 110 411 l 1
 99 408 90 403 85 400 c 1
190 380 m 1
 216 381 238 388 256 400 c 1
 238 412 216 419 190 420 c 1
 190 380 l 1
303 465 m 1
 308 481 310 495 310 500 c 2
 310 613 l 1
 265 626 223 649 190 681 c 1
 190 500 l 1
 239 498 276 484 303 465 c 1
400 680 m 2
 452 680 510 710 510 760 c 0
 510 795 485 820 450 820 c 0
 417 820 390 789 390 750 c 2
 390 680 l 1
 400 680 l 2
EndSplineSet
EndChar

StartChar: guilsinglleft
Encoding: 8249 8249 244
Width: 600
VWidth: 0
Flags: HW
LayerCount: 2
Fore
SplineSet
600 500 m 1
 600 420 l 1
 290 420 l 1
 290 -200 l 1
 210 -200 l 1
 210 420 l 1
 0 420 l 1
 0 500 l 1
 210 500 l 1
 210 700 l 1
 290 700 l 1
 290 500 l 1
 600 500 l 1
EndSplineSet
EndChar

StartChar: guilsinglright
Encoding: 8250 8250 245
Width: 600
VWidth: 0
Flags: HW
LayerCount: 2
Fore
SplineSet
210 890 m 1
 210 983 l 1
 117 890 l 1
 210 890 l 1
210 717 m 1
 181 713 120 694 120 670 c 1
 40 670 l 1
 40 717 75 750 111 769 c 0
 139 784 173 794 210 798 c 1
 210 810 l 1
 0 810 l 1
 0 887 l 1
 213 1100 l 1
 290 1100 l 1
 290 890 l 1
 600 890 l 1
 600 810 l 1
 290 810 l 1
 290 798 l 1
 351 791 408 767 438 730 c 0
 452 712 460 691 460 670 c 0
 460 583 352 556 301 513 c 0
 293 506 290 501 290 500 c 1
 600 500 l 1
 600 420 l 1
 0 420 l 1
 0 500 l 1
 210 500 l 1
 210 717 l 1
290 717 m 1
 290 602 l 1
 297 606 304 610 311 614 c 0
 342 631 380 652 380 670 c 0
 380 694 319 713 290 717 c 1
EndSplineSet
EndChar

StartChar: trademark
Encoding: 8482 8482 262
Width: 600
VWidth: 0
Flags: HW
LayerCount: 2
Fore
SplineSet
150 420 m 0
 105 420 74 327 69 302 c 1
 -9 318 l 1
 -9 320 -1 361 20 403 c 0
 60 483 113 500 150 500 c 0
 200 500 235 475 256 443 c 0
 279 409 290 361 290 300 c 2
 290 124 l 1
 341 170 412 202 496 210 c 1
 504 130 l 1
 409 120 330 71 294 0 c 1
 210 0 l 1
 210 300 l 2
 210 356 198 385 189 399 c 0
 179 413 167 420 150 420 c 0
EndSplineSet
EndChar

StartChar: uni2318
Encoding: 8984 8984 263
Width: 600
VWidth: 0
Flags: HW
LayerCount: 2
Fore
SplineSet
480 300 m 0
 547 300 600 239 600 170 c 0
 600 101 555 59 503 35 c 0
 455 13 390 1 311 0 c 1
 269 -115 194 -201 190 -206 c 1
 130 -154 l 1
 131 -153 190 -84 228 7 c 1
 99 32 -1 115 -6 119 c 1
 46 181 l 1
 47 180 140 103 253 84 c 1
 258 106 260 128 260 150 c 0
 260 179 256 220 238 251 c 0
 219 284 187 300 140 300 c 1
 140 380 l 1
 250 380 420 408 420 500 c 0
 420 575 328 620 250 620 c 0
 172 620 80 575 80 500 c 1
 0 500 l 1
 0 565 36 614 77 645 c 0
 124 680 185 700 250 700 c 0
 349 700 439 652 478 582 c 0
 492 556 500 528 500 500 c 0
 500 387 391 336 291 315 c 1
 297 307 303 299 307 291 c 0
 334 244 340 189 340 150 c 0
 340 127 337 104 333 81 c 1
 348 82 362 82 375 84 c 1
 365 109 360 135 360 160 c 0
 360 235 408 300 480 300 c 0
470 108 m 0
 515 129 520 153 520 170 c 0
 520 198 502 220 480 220 c 0
 456 220 440 195 440 160 c 0
 440 138 447 117 455 102 c 1
 460 104 465 106 470 108 c 0
EndSplineSet
EndChar

StartChar: uniF021
Encoding: 61473 61473 265
Width: 600
VWidth: 0
Flags: HW
LayerCount: 2
Fore
SplineSet
210 200 m 1
 210 700 l 1
 290 700 l 1
 290 200 l 1
 210 200 l 1
200 50 m 0
 200 78 222 100 250 100 c 0
 278 100 300 78 300 50 c 0
 300 22 278 0 250 0 c 0
 222 0 200 22 200 50 c 0
EndSplineSet
EndChar

StartChar: uniF022
Encoding: 61474 61474 266
Width: 600
VWidth: 0
Flags: HW
LayerCount: 2
Fore
SplineSet
600 500 m 1
 600 420 l 1
 0 420 l 1
 0 500 l 1
 183 500 l 1
 197 515 223 545 248 580 c 0
 295 646 320 705 320 750 c 0
 320 802 284 820 250 820 c 0
 211 820 180 789 180 750 c 0
 180 739 183 728 188 718 c 1
 116 682 l 1
 105 703 100 726 100 750 c 0
 100 833 167 900 250 900 c 0
 337 900 400 837 400 750 c 0
 400 688 371 615 313 533 c 0
 305 521 296 510 288 500 c 1
 600 500 l 1
EndSplineSet
EndChar

StartChar: uniF023
Encoding: 61475 61475 267
Width: 600
VWidth: 0
Flags: HW
LayerCount: 2
Fore
SplineSet
500 510 m 1
 390 510 l 1
 390 390 l 1
 500 390 l 1
 500 310 l 1
 390 310 l 1
 390 200 l 1
 310 200 l 1
 310 310 l 1
 190 310 l 1
 190 200 l 1
 110 200 l 1
 110 310 l 1
 0 310 l 1
 0 390 l 1
 110 390 l 1
 110 510 l 1
 0 510 l 1
 0 590 l 1
 110 590 l 1
 110 700 l 1
 190 700 l 1
 190 590 l 1
 310 590 l 1
 310 700 l 1
 390 700 l 1
 390 590 l 1
 500 590 l 1
 500 510 l 1
310 390 m 1
 310 510 l 1
 190 510 l 1
 190 390 l 1
 310 390 l 1
EndSplineSet
EndChar

StartChar: uniF024
Encoding: 61476 61476 268
Width: 600
VWidth: 0
Flags: HW
LayerCount: 2
Fore
SplineSet
290 389 m 1
 334 379 377 367 412 346 c 0
 471 312 500 261 500 195 c 0
 500 86 404 15 290 2 c 1
 290 -100 l 1
 210 -100 l 1
 210 3 l 1
 127 14 56 56 22 115 c 0
 8 140 0 167 0 195 c 1
 80 195 l 1
 80 135 145 96 210 84 c 1
 210 325 l 1
 165 335 120 348 83 368 c 0
 28 399 0 445 0 505 c 0
 0 614 96 685 210 698 c 1
 210 800 l 1
 290 800 l 1
 290 697 l 1
 373 686 444 644 478 585 c 0
 492 560 500 533 500 505 c 1
 420 505 l 1
 420 565 355 604 290 616 c 1
 290 389 l 1
210 408 m 1
 210 617 l 1
 142 607 80 570 80 505 c 0
 80 452 121 430 210 408 c 1
290 306 m 1
 290 83 l 1
 358 93 420 130 420 195 c 0
 420 258 378 282 290 306 c 1
EndSplineSet
EndChar

StartChar: uniF025
Encoding: 61477 61477 269
Width: 600
VWidth: 0
Flags: HW
LayerCount: 2
Fore
SplineSet
150 400 m 0
 67 400 0 467 0 550 c 0
 0 633 67 700 150 700 c 0
 233 700 300 633 300 550 c 0
 300 467 233 400 150 400 c 0
150 620 m 0
 111 620 80 589 80 550 c 0
 80 511 111 480 150 480 c 0
 189 480 220 511 220 550 c 0
 220 589 189 620 150 620 c 0
350 0 m 0
 267 0 200 67 200 150 c 0
 200 233 267 300 350 300 c 0
 433 300 500 233 500 150 c 0
 500 67 433 0 350 0 c 0
350 220 m 0
 311 220 280 189 280 150 c 0
 280 111 311 80 350 80 c 0
 389 80 420 111 420 150 c 0
 420 189 389 220 350 220 c 0
2 158 m 1
 442 598 l 1
 498 542 l 1
 58 102 l 1
 2 158 l 1
EndSplineSet
EndChar

StartChar: uniF026
Encoding: 61478 61478 270
Width: 600
VWidth: 0
Flags: HW
LayerCount: 2
Fore
SplineSet
300 550 m 0
 300 474 238 421 184 367 c 1
 218 325 263 274 323 214 c 0
 341 196 359 180 376 163 c 1
 404 200 420 247 420 300 c 1
 500 300 l 1
 500 227 477 160 434 107 c 1
 485 60 528 22 553 0 c 1
 433 0 l 1
 415 16 395 34 375 53 c 1
 325 19 265 0 200 0 c 0
 88 0 0 88 0 200 c 0
 0 247 15 291 46 335 c 0
 56 349 67 362 78 374 c 1
 26 447 0 493 0 550 c 0
 0 631 69 700 150 700 c 0
 231 700 300 631 300 550 c 0
150 620 m 0
 112 620 80 588 80 550 c 0
 80 520 90 490 135 431 c 1
 179 472 220 512 220 550 c 0
 220 588 188 620 150 620 c 0
315 110 m 1
 252 173 176 252 128 310 c 1
 100 277 80 242 80 200 c 0
 80 132 132 80 200 80 c 0
 243 80 282 91 315 110 c 1
EndSplineSet
EndChar

StartChar: uniF027
Encoding: 61479 61479 271
Width: 600
VWidth: 0
Flags: HW
LayerCount: 2
Fore
SplineSet
250 900 m 0
 337 900 400 837 400 750 c 0
 400 688 371 615 313 533 c 0
 272 475 230 434 228 432 c 1
 172 488 l 1
 172 488 210 527 248 580 c 0
 295 646 320 705 320 750 c 0
 320 802 284 820 250 820 c 0
 211 820 180 789 180 750 c 0
 180 739 183 728 188 718 c 1
 116 682 l 1
 105 703 100 726 100 750 c 0
 100 833 167 900 250 900 c 0
EndSplineSet
EndChar

StartChar: uniF028
Encoding: 61480 61480 272
Width: 600
VWidth: 0
Flags: HW
LayerCount: 2
Fore
SplineSet
391 -135 m 1
 218 -42 100 140 100 350 c 0
 100 560 218 742 391 835 c 1
 429 765 l 1
 281 686 180 530 180 350 c 0
 180 170 281 14 429 -65 c 1
 391 -135 l 1
EndSplineSet
EndChar

StartChar: uniF029
Encoding: 61481 61481 273
Width: 600
VWidth: 0
Flags: HW
LayerCount: 2
Fore
SplineSet
109 -135 m 1
 71 -65 l 1
 219 14 320 170 320 350 c 0
 320 530 219 686 71 765 c 1
 109 835 l 1
 282 742 400 560 400 350 c 0
 400 140 282 -42 109 -135 c 1
EndSplineSet
EndChar

StartChar: uniF02A
Encoding: 61482 61482 274
Width: 600
VWidth: 2048
Flags: HW
LayerCount: 2
Fore
SplineSet
-64 256 m 0
 -64 264 -46 273 -38 273 c 0
 -33 273 -13 270 -8 270 c 0
 -1 270 5 271 13 273 c 1
 2 268 -7 260 -14 248 c 0
 -18 240 -35 234 -47 234 c 0
 -61 234 -64 246 -64 256 c 0
-56 616 m 1
 -55 621 -48 625 -38 628 c 1
 -30 628 -24 620 -18 603 c 0
 -13 589 -9 581 -1 570 c 1
 -7 574 -19 580 -36 588 c 1
 -49 593 -56 600 -56 616 c 1
359 248 m 0
 359 229 332 202 312 202 c 0
 288 202 272 226 271 243 c 128
 270 259 260 267 241 267 c 0
 214 267 200 254 200 228 c 0
 200 221 201 218 201 213 c 0
 201 189 178 171 154 171 c 0
 132 171 121 192 121 215 c 0
 121 233 129 244 145 247 c 128
 161 250 177 270 177 289 c 0
 177 324 135 331 101 331 c 0
 81 331 67 328 52 322 c 128
 44 319 37 317 30 317 c 0
 8 317 -8 334 -8 355 c 0
 -8 374 6 388 26 388 c 0
 30 388 37 387 46 385 c 0
 78 377 100 373 111 373 c 0
 143 373 163 384 175 407 c 0
 175 408 176 408 176 409 c 0
 176 415 167 428 151 448 c 0
 130 474 120 494 120 510 c 0
 120 538 151 564 178 564 c 0
 207 564 214 502 222 473 c 1
 229 462 238 436 254 436 c 0
 258 436 262 437 268 440 c 0
 295 454 314 476 325 506 c 128
 336 536 346 567 357 598 c 1
 366 602 376 603 384 603 c 0
 411 603 432 585 432 558 c 0
 432 550 430 542 426 534 c 1
 395 505 374 482 362 466 c 128
 350 450 344 437 344 427 c 0
 344 417 351 410 357 405 c 0
 390 375 407 360 409 358 c 0
 417 349 421 342 423 336 c 1
 407 340 390 343 374 343 c 0
 349 343 330 337 330 314 c 130
 330 311 l 2
 330 305 335 297 344 287 c 128
 353 277 359 264 359 248 c 0
64 454 m 0
 42 454 -6 474 -6 496 c 0
 -6 504 4 511 13 512 c 0
 28 512 77 481 77 462 c 0
 77 458 74 454 64 454 c 0
86 206 m 0
 86 198 80 174 71 174 c 0
 69 174 64 175 60 178 c 1
 57 184 54 192 54 198 c 0
 54 208 70 214 75 215 c 0
 82 215 86 211 86 206 c 0
67 626 m 2
 67 635 l 130
 67 639 70 641 78 643 c 0
 81 643 86 640 92 633 c 0
 102 620 109 596 115 578 c 1
 97 594 85 606 77 614 c 0
 71 620 67 624 67 626 c 2
111 104 m 1
 111 113 130 139 144 139 c 0
 155 139 159 126 159 113 c 0
 159 96 153 80 137 80 c 0
 117 80 116 85 111 104 c 1
163 702 m 0
 188 702 191 689 191 660 c 0
 191 659 192 658 192 656 c 0
 192 652 189 646 186 640 c 0
 174 617 168 603 168 597 c 0
 168 594 169 592 169 590 c 1
 162 611 152 639 140 649 c 0
 137 651 136 656 136 664 c 0
 136 683 144 702 163 702 c 0
222 115 m 0
 213 115 203 128 203 138 c 0
 203 147 216 157 225 157 c 0
 233 157 244 143 244 134 c 0
 244 126 230 115 222 115 c 0
357 92 m 0
 335 92 314 111 314 138 c 0
 314 161 327 180 350 180 c 0
 376 180 394 155 394 129 c 0
 394 109 379 92 357 92 c 0
419 635 m 0
 402 636 387 654 387 672 c 0
 387 692 402 702 422 702 c 0
 441 702 454 693 454 674 c 0
 454 655 438 635 419 635 c 0
422 178 m 0
 409 178 390 195 390 209 c 0
 390 222 402 226 416 226 c 0
 432 226 441 216 443 201 c 1
 443 189 434 178 422 178 c 0
492 327 m 0
 509 327 518 325 518 308 c 0
 518 294 509 268 495 268 c 0
 482 268 472 281 465 294 c 0
 456 310 449 321 444 329 c 1
 448 327 456 326 464 326 c 0
 469 326 487 327 492 327 c 0
EndSplineSet
EndChar

StartChar: uniF02B
Encoding: 61483 61483 275
Width: 600
VWidth: 0
Flags: HW
LayerCount: 2
Fore
SplineSet
250 900 m 0
 348 900 400 814 400 710 c 0
 400 649 382 578 347 500 c 1
 600 500 l 1
 600 420 l 1
 306 420 l 1
 296 402 286 384 274 365 c 0
 213 267 153 197 150 194 c 1
 90 246 l 1
 91 247 154 322 214 420 c 1
 0 420 l 1
 0 500 l 1
 258 500 l 1
 293 570 320 644 320 710 c 0
 320 743 313 820 250 820 c 0
 211 820 180 789 180 750 c 0
 180 739 183 728 188 718 c 1
 116 682 l 1
 105 703 100 726 100 750 c 0
 100 831 169 900 250 900 c 0
EndSplineSet
EndChar

StartChar: uniF02C
Encoding: 61484 61484 276
Width: 600
VWidth: 0
Flags: HW
LayerCount: 2
Fore
SplineSet
300 100 m 0
 300 99 300 98 300 97 c 0
 299 -63 168 -188 168 -188 c 1
 112 -132 l 1
 112 -132 168 -80 198 0 c 1
 144 1 100 45 100 100 c 0
 100 155 145 200 200 200 c 0
 255 200 300 155 300 100 c 0
EndSplineSet
EndChar

StartChar: uniF02D
Encoding: 61485 61485 277
Width: 600
VWidth: 0
Flags: HW
LayerCount: 2
Fore
SplineSet
0 310 m 1
 0 390 l 1
 500 390 l 1
 500 310 l 1
 0 310 l 1
EndSplineSet
EndChar

StartChar: uniF02E
Encoding: 61486 61486 278
Width: 600
VWidth: 0
Flags: HW
LayerCount: 2
Fore
SplineSet
100 100 m 0
 100 155 145 200 200 200 c 0
 255 200 300 155 300 100 c 0
 300 45 255 0 200 0 c 0
 145 0 100 45 100 100 c 0
EndSplineSet
EndChar

StartChar: uniF02F
Encoding: 61487 61487 279
Width: 600
VWidth: 0
Flags: HW
LayerCount: 2
Fore
SplineSet
-32 -124 m 1
 460 860 l 1
 532 824 l 1
 40 -160 l 1
 -32 -124 l 1
EndSplineSet
EndChar

StartChar: uniF030
Encoding: 61488 61488 280
Width: 600
VWidth: 0
Flags: HW
LayerCount: 2
Fore
SplineSet
250 700 m 0
 334 700 395 648 432 592 c 0
 476 527 500 441 500 350 c 0
 500 212 443 87 353 30 c 0
 321 10 286 0 250 0 c 0
 166 0 105 52 68 108 c 0
 24 173 0 259 0 350 c 0
 0 488 57 613 147 670 c 0
 179 690 214 700 250 700 c 0
375 532 m 1
 345 582 298 620 250 620 c 0
 208 620 167 594 135 547 c 0
 100 495 80 425 80 350 c 0
 80 315 84 281 92 249 c 1
 375 532 l 1
125 168 m 1
 155 118 202 80 250 80 c 0
 292 80 333 106 365 153 c 0
 400 205 420 275 420 350 c 0
 420 385 416 419 408 451 c 1
 125 168 l 1
EndSplineSet
EndChar

StartChar: uniF031
Encoding: 61489 61489 281
Width: 600
VWidth: 0
Flags: HW
LayerCount: 2
Fore
SplineSet
208 700 m 1
 290 700 l 1
 290 80 l 1
 490 80 l 1
 490 0 l 1
 10 0 l 1
 10 80 l 1
 210 80 l 1
 210 604 l 1
 53 497 l 1
 7 563 l 1
 208 700 l 1
EndSplineSet
EndChar

StartChar: uniF032
Encoding: 61490 61490 282
Width: 600
VWidth: 0
Flags: HW
LayerCount: 2
Fore
SplineSet
250 700 m 0
 378 700 500 621 500 500 c 0
 500 358 325 239 227 170 c 0
 181 138 139 110 109 80 c 1
 500 80 l 1
 500 0 l 1
 0 0 l 1
 0 40 l 2
 0 107 79 164 180 236 c 0
 239 278 301 321 348 368 c 0
 397 417 420 460 420 500 c 0
 420 577 332 620 250 620 c 0
 168 620 80 578 80 500 c 1
 0 500 l 1
 0 621 122 700 250 700 c 0
EndSplineSet
EndChar

StartChar: uniF033
Encoding: 61491 61491 283
Width: 600
VWidth: 0
Flags: HW
LayerCount: 2
Fore
SplineSet
410 350 m 1
 465 317 500 262 500 200 c 0
 500 79 378 0 250 0 c 0
 122 0 0 79 0 200 c 1
 80 200 l 1
 80 122 168 80 250 80 c 0
 332 80 420 122 420 200 c 0
 420 238 397 262 377 276 c 0
 346 298 301 310 250 310 c 2
 160 310 l 1
 160 390 l 1
 250 390 l 2
 301 390 346 402 377 424 c 0
 397 438 420 462 420 500 c 0
 420 578 332 620 250 620 c 0
 168 620 80 577 80 500 c 1
 0 500 l 1
 0 621 122 700 250 700 c 0
 378 700 500 621 500 500 c 0
 500 438 465 383 410 350 c 1
EndSplineSet
EndChar

StartChar: uniF034
Encoding: 61492 61492 284
Width: 600
VWidth: 0
Flags: HW
LayerCount: 2
Fore
SplineSet
308 700 m 1
 390 700 l 1
 390 290 l 1
 500 290 l 1
 500 210 l 1
 390 210 l 1
 390 0 l 1
 310 0 l 1
 310 210 l 1
 0 210 l 1
 0 290 l 1
 308 700 l 1
310 290 m 1
 310 570 l 1
 100 290 l 1
 310 290 l 1
EndSplineSet
EndChar

StartChar: uniF035
Encoding: 61493 61493 285
Width: 600
VWidth: 0
Flags: HW
LayerCount: 2
Fore
SplineSet
500 245 m 0
 500 110 386 0 250 0 c 0
 117 0 24 79 1 192 c 1
 79 208 l 1
 95 128 159 80 250 80 c 0
 344 80 420 154 420 245 c 0
 420 336 344 410 250 410 c 2
 8 410 l 1
 22 700 l 1
 500 700 l 1
 500 620 l 1
 98 620 l 1
 92 490 l 1
 250 490 l 2
 386 490 500 380 500 245 c 0
EndSplineSet
EndChar

StartChar: uniF036
Encoding: 61494 61494 286
Width: 600
VWidth: 0
Flags: HW
LayerCount: 2
Fore
SplineSet
250 490 m 0
 386 490 500 380 500 245 c 0
 500 110 386 0 250 0 c 0
 114 0 0 110 0 245 c 2
 0 400 l 2
 0 598 102 700 300 700 c 2
 400 700 l 1
 400 620 l 1
 300 620 l 2
 154 620 88 562 81 425 c 1
 127 467 187 490 250 490 c 0
250 80 m 0
 344 80 420 154 420 245 c 0
 420 336 344 410 250 410 c 0
 156 410 80 336 80 245 c 0
 80 154 156 80 250 80 c 0
EndSplineSet
EndChar

StartChar: uniF037
Encoding: 61495 61495 287
Width: 600
VWidth: 0
Flags: HW
LayerCount: 2
Fore
SplineSet
210 0 m 1
 210 243 316 464 414 620 c 1
 0 620 l 1
 0 700 l 1
 500 700 l 1
 500 605 l 1
 478 572 441 515 405 442 c 0
 353 336 290 172 290 0 c 1
 210 0 l 1
EndSplineSet
EndChar

StartChar: uniF038
Encoding: 61496 61496 288
Width: 600
VWidth: 0
Flags: HW
LayerCount: 2
Fore
SplineSet
402 350 m 1
 453 321 500 268 500 195 c 0
 500 131 463 84 422 53 c 0
 376 19 315 0 250 0 c 0
 151 0 61 47 22 115 c 0
 8 140 0 167 0 195 c 0
 0 268 47 321 98 350 c 1
 47 379 0 432 0 505 c 0
 0 569 37 616 78 647 c 0
 124 681 185 700 250 700 c 0
 349 700 439 653 478 585 c 0
 492 560 500 533 500 505 c 0
 500 432 453 379 402 350 c 1
80 505 m 0
 80 433 174 390 250 390 c 0
 326 390 420 433 420 505 c 0
 420 577 326 620 250 620 c 0
 174 620 80 577 80 505 c 0
250 80 m 0
 326 80 420 123 420 195 c 0
 420 267 326 310 250 310 c 0
 174 310 80 267 80 195 c 0
 80 123 174 80 250 80 c 0
EndSplineSet
EndChar

StartChar: uniF039
Encoding: 61497 61497 289
Width: 600
VWidth: 0
Flags: HW
LayerCount: 2
Fore
SplineSet
250 210 m 0
 114 210 0 320 0 455 c 0
 0 590 114 700 250 700 c 0
 386 700 500 590 500 455 c 2
 500 300 l 2
 500 102 398 0 200 0 c 2
 100 0 l 1
 100 80 l 1
 200 80 l 2
 346 80 412 138 419 275 c 1
 373 233 313 210 250 210 c 0
250 620 m 0
 156 620 80 546 80 455 c 0
 80 364 156 290 250 290 c 0
 344 290 420 364 420 455 c 0
 420 546 344 620 250 620 c 0
EndSplineSet
EndChar

StartChar: uniF03A
Encoding: 61498 61498 290
Width: 600
VWidth: 0
Flags: HW
LayerCount: 2
Fore
SplineSet
100 400 m 0
 100 455 145 500 200 500 c 0
 255 500 300 455 300 400 c 0
 300 345 255 300 200 300 c 0
 145 300 100 345 100 400 c 0
100 100 m 0
 100 155 145 200 200 200 c 0
 255 200 300 155 300 100 c 0
 300 45 255 0 200 0 c 0
 145 0 100 45 100 100 c 0
EndSplineSet
EndChar

StartChar: uniF03B
Encoding: 61499 61499 291
Width: 600
VWidth: 0
Flags: HW
LayerCount: 2
Fore
SplineSet
100 400 m 0
 100 455 145 500 200 500 c 0
 255 500 300 455 300 400 c 0
 300 345 255 300 200 300 c 0
 145 300 100 345 100 400 c 0
300 100 m 0
 300 99 300 98 300 97 c 0
 299 -63 168 -188 168 -188 c 1
 112 -132 l 1
 112 -132 168 -80 198 0 c 1
 144 1 100 45 100 100 c 0
 100 155 145 200 200 200 c 0
 255 200 300 155 300 100 c 0
EndSplineSet
EndChar

StartChar: uniF03C
Encoding: 61500 61500 292
Width: 600
VWidth: 0
Flags: HW
LayerCount: 2
Fore
SplineSet
460 85 m 1
 0 350 l 1
 460 615 l 1
 500 545 l 1
 160 350 l 1
 500 155 l 1
 460 85 l 1
EndSplineSet
EndChar

StartChar: uniF03D
Encoding: 61501 61501 293
Width: 600
VWidth: 0
Flags: HW
LayerCount: 2
Fore
SplineSet
0 210 m 1
 0 290 l 1
 500 290 l 1
 500 210 l 1
 0 210 l 1
0 410 m 1
 0 490 l 1
 500 490 l 1
 500 410 l 1
 0 410 l 1
EndSplineSet
EndChar

StartChar: uniF03E
Encoding: 61502 61502 294
Width: 600
VWidth: 0
Flags: HW
LayerCount: 2
Fore
SplineSet
40 85 m 1
 0 155 l 1
 340 350 l 1
 0 545 l 1
 40 615 l 1
 500 350 l 1
 40 85 l 1
EndSplineSet
EndChar

StartChar: uniF03F
Encoding: 61503 61503 295
Width: 600
VWidth: 0
Flags: HW
LayerCount: 2
Fore
SplineSet
250 620 m 0
 172 620 80 575 80 500 c 1
 0 500 l 1
 0 564 36 614 77 645 c 0
 124 680 185 700 250 700 c 0
 349 700 440 652 478 582 c 0
 492 556 500 528 500 500 c 0
 500 457 486 419 458 385 c 0
 435 358 406 337 378 317 c 0
 323 278 290 252 290 200 c 1
 210 200 l 1
 210 243 224 281 252 315 c 0
 275 342 304 363 332 383 c 0
 387 422 420 448 420 500 c 0
 420 574 327 620 250 620 c 0
200 50 m 0
 200 78 222 100 250 100 c 0
 278 100 300 78 300 50 c 0
 300 22 278 0 250 0 c 0
 222 0 200 22 200 50 c 0
EndSplineSet
EndChar

StartChar: uniF040
Encoding: 61504 61504 296
Width: 600
VWidth: 0
Flags: HW
LayerCount: 2
Fore
SplineSet
250 700 m 0
 410 700 500 566 500 400 c 0
 500 336 489 290 468 258 c 0
 447 227 416 210 380 210 c 0
 353 210 328 220 307 239 c 1
 292 220 271 210 250 210 c 0
 191 210 160 282 160 350 c 0
 160 418 191 490 250 490 c 2
 340 490 l 1
 340 350 l 2
 340 318 359 290 380 290 c 0
 390 290 396 293 402 302 c 0
 409 312 420 339 420 400 c 0
 420 536 355 620 250 620 c 0
 208 620 167 594 135 547 c 0
 100 495 80 425 80 350 c 0
 80 275 100 205 135 153 c 0
 167 106 208 80 250 80 c 2
 400 80 l 1
 400 0 l 1
 250 0 l 2
 166 0 105 52 68 108 c 0
 24 173 0 259 0 350 c 0
 0 488 57 613 147 670 c 0
 179 690 214 700 250 700 c 0
250 298 m 0
 260 300 260 326 260 350 c 2
 260 410 l 1
 255 410 l 2
 240 410 240 383 240 350 c 0
 240 326 240 300 250 298 c 0
EndSplineSet
EndChar

StartChar: uniF041
Encoding: 61505 61505 297
Width: 600
VWidth: 0
Flags: HW
LayerCount: 2
Fore
SplineSet
250 420 m 2
 156 420 80 344 80 250 c 0
 80 156 156 80 250 80 c 0
 295 80 337 98 369 129 c 1
 341 198 316 293 311 420 c 1
 250 420 l 2
452 -8 m 1
 450 -6 430 14 406 55 c 1
 362 20 307 0 250 0 c 0
 183 0 120 26 73 73 c 0
 26 120 0 183 0 250 c 0
 0 317 26 380 73 427 c 0
 120 474 183 500 250 500 c 2
 600 500 l 1
 600 420 l 1
 391 420 l 1
 396 291 424 200 449 145 c 0
 477 82 505 51 508 48 c 1
 452 -8 l 1
EndSplineSet
EndChar

StartChar: uniF042
Encoding: 61506 61506 298
Width: 600
VWidth: 0
Flags: HW
LayerCount: 2
Fore
SplineSet
-36 785 m 1
 13 848 95 900 200 900 c 0
 301 900 370 851 416 787 c 0
 471 709 500 596 500 450 c 0
 500 258 465 95 345 28 c 0
 311 9 272 0 230 0 c 0
 171 0 112 27 68 74 c 0
 24 122 0 184 0 250 c 0
 0 317 26 380 73 427 c 0
 120 474 183 500 250 500 c 0
 274 500 298 497 321 490 c 1
 299 413 l 1
 283 418 267 420 250 420 c 0
 156 420 80 344 80 250 c 0
 80 159 150 80 230 80 c 0
 356 80 420 204 420 450 c 0
 420 577 396 678 351 741 c 0
 314 794 263 820 200 820 c 0
 132 820 69 789 27 735 c 1
 -36 785 l 1
EndSplineSet
EndChar

StartChar: uniF043
Encoding: 61507 61507 299
Width: 600
VWidth: 0
Flags: HW
LayerCount: 2
Fore
SplineSet
490 179 m 1
 462 83 369 0 250 0 c 0
 183 0 120 26 73 73 c 0
 26 120 0 183 0 250 c 0
 0 317 26 380 73 427 c 0
 120 474 183 500 250 500 c 2
 600 500 l 1
 600 420 l 1
 250 420 l 2
 156 420 80 344 80 250 c 0
 80 156 156 80 250 80 c 0
 325 80 392 130 413 201 c 1
 490 179 l 1
EndSplineSet
EndChar

StartChar: uniF044
Encoding: 61508 61508 300
Width: 600
VWidth: 0
Flags: HW
LayerCount: 2
Fore
SplineSet
500 220 m 0
 500 93 388 0 250 0 c 0
 112 0 0 93 0 220 c 0
 0 287 29 340 88 377 c 0
 132 405 187 420 241 435 c 1
 217 465 200 503 200 550 c 0
 200 633 267 700 350 700 c 0
 433 700 500 633 500 550 c 0
 500 502 481 461 443 431 c 0
 429 420 413 411 397 403 c 1
 418 385 439 366 456 344 c 0
 486 306 500 266 500 220 c 0
131 309 m 0
 95 286 80 260 80 220 c 0
 80 151 144 80 250 80 c 0
 356 80 420 151 420 220 c 0
 420 288 363 328 309 371 c 1
 308 371 l 1
 247 354 177 338 131 309 c 0
327 460 m 1
 369 475 420 497 420 550 c 0
 420 589 389 620 350 620 c 0
 311 620 280 589 280 550 c 0
 280 514 298 487 327 460 c 1
EndSplineSet
EndChar

StartChar: uniF045
Encoding: 61509 61509 301
Width: 600
VWidth: 0
Flags: HW
LayerCount: 2
Fore
SplineSet
270 0 m 0
 115 0 0 104 0 250 c 0
 0 317 26 380 73 427 c 0
 120 474 183 500 250 500 c 0
 274 500 298 497 321 490 c 1
 299 413 l 1
 283 418 267 420 250 420 c 0
 156 420 80 344 80 250 c 0
 80 150 158 80 270 80 c 0
 448 80 607 273 609 275 c 1
 671 225 l 1
 669 223 625 168 555 113 c 0
 481 56 383 0 270 0 c 0
EndSplineSet
EndChar

StartChar: uniF046
Encoding: 61510 61510 302
Width: 600
VWidth: 0
Flags: HW
LayerCount: 2
Fore
SplineSet
600 500 m 1
 600 420 l 1
 290 420 l 1
 290 0 l 1
 210 0 l 1
 210 420 l 1
 0 420 l 1
 0 500 l 1
 210 500 l 1
 210 610 l 1
 100 610 l 2
 89 610 80 601 80 590 c 0
 80 586 81 583 83 580 c 1
 13 540 l 1
 4 555 0 572 0 590 c 0
 0 645 45 690 100 690 c 2
 210 690 l 1
 210 1060 l 1
 290 1060 l 1
 290 996 334 928 410 897 c 1
 410 950 l 2
 410 1030 472 1100 550 1100 c 0
 630 1100 690 1040 690 960 c 0
 690 867 597 800 500 800 c 2
 490 800 l 1
 490 750 l 2
 490 673 427 610 350 610 c 2
 290 610 l 1
 290 500 l 1
 600 500 l 1
500 880 m 2
 552 880 610 910 610 960 c 0
 610 995 585 1020 550 1020 c 0
 517 1020 490 989 490 950 c 2
 490 880 l 1
 500 880 l 2
410 750 m 2
 410 813 l 1
 365 826 323 849 290 881 c 1
 290 690 l 1
 350 690 l 2
 383 690 410 717 410 750 c 2
EndSplineSet
EndChar

StartChar: uniF047
Encoding: 61511 61511 303
Width: 600
VWidth: 0
Flags: HW
LayerCount: 2
Fore
SplineSet
347 -209 m 1
 329 -189 311 -171 293 -151 c 1
 294 -150 398 -51 417 65 c 1
 363 22 299 0 230 -0 c 0
 168 0 109 24 65 68 c 0
 23 110 0 165 0 220 c 0
 0 287 29 340 88 377 c 0
 130 403 181 419 232 433 c 1
 213 467 200 505 200 550 c 0
 200 633 267 700 350 700 c 0
 433 700 500 633 500 550 c 0
 500 492 473 446 419 414 c 0
 402 404 384 396 364 389 c 1
 397 351 430 313 456 266 c 0
 485 214 500 159 500 100 c 0
 500 -66 353 -203 347 -209 c 1
410 172 m 1
 388 248 329 304 281 363 c 1
 196 340 80 319 80 220 c 0
 80 154 142 80 230 80 c 0
 282 80 329 96 369 129 c 0
 390 146 403 162 410 172 c 1
350 620 m 0
 311 620 280 589 280 550 c 0
 280 515 292 485 311 456 c 1
 385 480 420 502 420 550 c 0
 420 589 389 620 350 620 c 0
EndSplineSet
EndChar

StartChar: uniF048
Encoding: 61512 61512 304
Width: 600
VWidth: 0
Flags: HW
LayerCount: 2
Fore
SplineSet
490 179 m 1
 462 83 369 0 250 0 c 0
 183 0 120 26 73 73 c 0
 26 120 0 183 0 250 c 0
 0 314 23 374 66 420 c 1
 0 420 l 1
 0 500 l 1
 600 500 l 1
 600 420 l 1
 250 420 l 2
 156 420 80 344 80 250 c 0
 80 156 156 80 250 80 c 0
 325 80 392 130 413 201 c 1
 490 179 l 1
EndSplineSet
EndChar

StartChar: uniF049
Encoding: 61513 61513 305
Width: 600
VWidth: 0
Flags: HW
LayerCount: 2
Fore
SplineSet
600 500 m 1
 600 420 l 1
 220 420 l 1
 221 418 222 417 223 415 c 0
 248 372 269 316 288 263 c 0
 319 177 353 80 400 80 c 1
 400 0 l 1
 340 0 303 41 277 85 c 0
 252 128 231 184 212 237 c 0
 181 323 147 420 100 420 c 2
 0 420 l 1
 0 500 l 1
 600 500 l 1
EndSplineSet
EndChar

StartChar: uniF04A
Encoding: 61514 61514 306
Width: 600
VWidth: 0
Flags: HW
LayerCount: 2
Fore
SplineSet
500 200 m 0
 500 93 424 0 320 0 c 0
 252 0 208 42 178 89 c 0
 148 135 127 194 106 251 c 0
 86 305 49 420 -0 420 c 1
 -0 500 l 1
 80 500 119 428 146 368 c 1
 175 377 219 391 264 411 c 1
 229 446 200 489 200 550 c 0
 200 633 267 700 350 700 c 0
 433 700 500 633 500 550 c 0
 500 504 478 461 434 421 c 0
 425 413 415 405 404 397 c 1
 453 353 500 295 500 200 c 0
331 354 m 1
 283 330 213 305 175 294 c 1
 211 197 250 80 320 80 c 0
 377 80 420 132 420 200 c 0
 420 274 380 313 331 354 c 1
350 620 m 0
 311 620 280 589 280 550 c 0
 280 510 302 482 340 450 c 1
 392 483 420 518 420 550 c 0
 420 589 389 620 350 620 c 0
EndSplineSet
EndChar

StartChar: uniF04B
Encoding: 61515 61515 307
Width: 600
VWidth: -200
Flags: HW
LayerCount: 2
Fore
SplineSet
600 500 m 1
 600 420 l 1
 390 420 l 1
 390 0 l 1
 310 0 l 1
 310 420 l 1
 190 420 l 1
 190 0 l 1
 110 0 l 1
 110 420 l 1
 0 420 l 1
 0 500 l 1
 110 500 l 1
 110 860 l 1
 190 860 l 1
 190 796 234 728 310 697 c 1
 310 750 l 2
 310 830 372 900 450 900 c 0
 530 900 590 840 590 760 c 0
 590 667 497 600 400 600 c 2
 390 600 l 1
 390 500 l 1
 600 500 l 1
400 680 m 2
 452 680 510 710 510 760 c 0
 510 795 485 820 450 820 c 0
 417 820 390 789 390 750 c 2
 390 680 l 1
 400 680 l 2
190 500 m 1
 310 500 l 1
 310 613 l 1
 265 626 223 649 190 681 c 1
 190 500 l 1
EndSplineSet
EndChar

StartChar: uniF04C
Encoding: 61516 61516 308
Width: 600
VWidth: 0
Flags: HW
LayerCount: 2
Fore
SplineSet
167 -205 m 1
 93 -175 l 1
 200 79 l 1
 155 98 117 121 87 144 c 0
 29 189 0 241 0 300 c 0
 0 359 30 412 85 450 c 0
 131 481 191 500 250 500 c 0
 338 500 405 467 408 466 c 2
 441 449 l 1
 306 125 l 1
 408 92 504 80 505 80 c 2
 495 0 l 1
 490 1 386 15 275 51 c 1
 167 -205 l 1
250 420 m 0
 207 420 162 407 130 385 c 0
 107 369 80 341 80 300 c 0
 80 229 167 181 231 153 c 1
 337 407 l 1
 315 413 285 420 250 420 c 0
EndSplineSet
EndChar

StartChar: uniF04D
Encoding: 61517 61517 309
Width: 600
VWidth: 0
Flags: HW
LayerCount: 2
Fore
SplineSet
500 550 m 0
 500 481 452 406 389 359 c 1
 413 331 436 301 456 266 c 0
 485 214 500 159 500 100 c 0
 500 -66 353 -203 347 -209 c 1
 293 -151 l 1
 294 -150 420 -30 420 100 c 0
 420 197 372 258 318 320 c 1
 286 307 253 300 220 300 c 0
 203 300 186 302 172 306 c 1
 203 223 245 80 300 80 c 1
 300 0 l 1
 240 0 203 41 177 85 c 0
 152 128 131 184 112 237 c 0
 82 321 48 420 0 420 c 1
 0 500 l 1
 107 500 118 380 220 380 c 0
 234 380 249 382 263 386 c 1
 228 432 200 483 200 550 c 0
 200 633 267 700 350 700 c 0
 433 700 500 633 500 550 c 0
337 420 m 1
 380 451 420 506 420 550 c 0
 420 589 389 620 350 620 c 0
 311 620 280 589 280 550 c 0
 280 501 304 461 337 420 c 1
EndSplineSet
EndChar

StartChar: uniF04E
Encoding: 61518 61518 310
Width: 600
VWidth: 0
Flags: HW
LayerCount: 2
Fore
SplineSet
-36 785 m 1
 13 848 95 900 200 900 c 0
 301 900 370 851 416 787 c 0
 471 709 500 596 500 450 c 0
 500 309 482 198 446 120 c 0
 399 16 334 0 300 0 c 0
 240 0 203 41 177 85 c 0
 152 128 131 184 112 237 c 0
 81 323 47 420 0 420 c 1
 0 500 l 1
 60 500 97 459 123 415 c 0
 148 372 169 316 188 263 c 0
 219 177 253 80 300 80 c 0
 326 80 353 107 374 153 c 0
 395 200 420 289 420 450 c 0
 420 577 396 678 351 741 c 0
 314 794 263 820 200 820 c 0
 132 820 69 789 27 735 c 1
 -36 785 l 1
EndSplineSet
EndChar

StartChar: uniF04F
Encoding: 61519 61519 311
Width: 600
VWidth: 0
Flags: HW
LayerCount: 2
Fore
SplineSet
250 0 m 0
 183 0 120 26 73 73 c 0
 26 120 0 183 0 250 c 0
 0 317 26 380 73 427 c 0
 120 474 183 500 250 500 c 2
 600 500 l 1
 600 420 l 1
 434 420 l 1
 477 374 500 314 500 250 c 0
 500 183 474 120 427 73 c 0
 380 26 317 0 250 0 c 0
250 420 m 0
 156 420 80 344 80 250 c 0
 80 156 156 80 250 80 c 0
 344 80 420 156 420 250 c 0
 420 344 344 420 250 420 c 0
EndSplineSet
EndChar

StartChar: uniF050
Encoding: 61520 61520 312
Width: 600
VWidth: 0
Flags: HW
LayerCount: 2
Fore
SplineSet
600 500 m 1
 600 420 l 1
 290 420 l 1
 290 0 l 1
 210 0 l 1
 210 420 l 1
 0 420 l 1
 0 500 l 1
 210 500 l 1
 210 610 l 1
 100 610 l 2
 89 610 80 601 80 590 c 0
 80 586 81 583 83 580 c 1
 13 540 l 1
 4 555 0 572 0 590 c 0
 0 645 45 690 100 690 c 2
 210 690 l 1
 210 810 l 1
 0 810 l 1
 0 887 l 1
 213 1100 l 1
 290 1100 l 1
 290 890 l 1
 410 890 l 1
 410 955 l 2
 410 1035 473 1100 550 1100 c 0
 627 1100 690 1035 690 955 c 0
 690 875 627 810 550 810 c 2
 490 810 l 1
 490 750 l 2
 490 673 427 610 350 610 c 2
 290 610 l 1
 290 500 l 1
 600 500 l 1
410 810 m 1
 290 810 l 1
 290 690 l 1
 350 690 l 2
 383 690 410 717 410 750 c 2
 410 810 l 1
490 955 m 2
 490 890 l 1
 550 890 l 2
 583 890 610 919 610 955 c 0
 610 991 583 1020 550 1020 c 0
 517 1020 490 991 490 955 c 2
210 890 m 1
 210 983 l 1
 117 890 l 1
 210 890 l 1
EndSplineSet
EndChar

StartChar: uniF051
Encoding: 61521 61521 313
Width: 600
VWidth: 0
Flags: HW
LayerCount: 2
Fore
SplineSet
213 700 m 1
 290 700 l 1
 290 500 l 1
 600 500 l 1
 600 420 l 1
 290 420 l 1
 290 -200 l 1
 210 -200 l 1
 210 420 l 1
 0 420 l 1
 0 487 l 1
 213 700 l 1
210 500 m 1
 210 583 l 1
 127 500 l 1
 210 500 l 1
EndSplineSet
EndChar

StartChar: uniF052
Encoding: 61522 61522 314
Width: 600
VWidth: 0
Flags: HW
LayerCount: 2
Fore
SplineSet
-36 785 m 1
 13 848 95 900 200 900 c 0
 280 900 355 869 412 812 c 0
 469 755 500 680 500 600 c 0
 500 511 461 438 414 389 c 0
 360 333 289 300 220 300 c 0
 203 300 186 302 172 306 c 1
 203 223 245 80 300 80 c 1
 300 0 l 1
 240 0 203 41 177 85 c 0
 152 128 131 184 112 237 c 0
 82 321 48 420 0 420 c 1
 0 500 l 1
 107 500 118 380 220 380 c 0
 268 380 317 403 356 444 c 0
 397 487 420 542 420 600 c 0
 420 721 321 820 200 820 c 0
 132 820 69 789 27 735 c 1
 -36 785 l 1
EndSplineSet
EndChar

StartChar: uniF053
Encoding: 61523 61523 315
Width: 600
VWidth: 0
Flags: HW
LayerCount: 2
Fore
SplineSet
500 900 m 0
 587 900 650 837 650 750 c 0
 650 688 621 615 563 533 c 0
 555 521 546 510 538 500 c 1
 600 500 l 1
 600 420 l 1
 250 420 l 2
 156 420 80 344 80 250 c 0
 80 156 156 80 250 80 c 0
 325 80 392 130 413 201 c 1
 490 179 l 1
 462 83 369 0 250 0 c 0
 183 0 120 26 73 73 c 0
 26 120 0 183 0 250 c 0
 0 317 26 380 73 427 c 0
 120 474 183 500 250 500 c 2
 433 500 l 1
 447 515 473 544 498 580 c 0
 545 646 570 705 570 750 c 0
 570 802 534 820 500 820 c 0
 461 820 430 789 430 750 c 0
 430 739 433 728 438 718 c 1
 366 682 l 1
 355 703 350 726 350 750 c 0
 350 833 417 900 500 900 c 0
EndSplineSet
EndChar

StartChar: uniF054
Encoding: 61524 61524 316
Width: 600
VWidth: 0
Flags: HW
LayerCount: 2
Fore
SplineSet
600 500 m 1
 600 420 l 1
 390 420 l 1
 390 0 l 1
 310 0 l 1
 310 420 l 1
 190 420 l 1
 190 0 l 1
 110 0 l 1
 110 420 l 1
 0 420 l 1
 0 500 l 1
 110 500 l 1
 110 610 l 1
 -100 610 l 1
 -100 687 l 1
 113 900 l 1
 190 900 l 1
 190 690 l 1
 310 690 l 1
 310 755 l 2
 310 835 373 900 450 900 c 0
 527 900 590 835 590 755 c 0
 590 675 527 610 450 610 c 2
 390 610 l 1
 390 500 l 1
 600 500 l 1
390 755 m 2
 390 690 l 1
 450 690 l 2
 483 690 510 719 510 755 c 0
 510 791 483 820 450 820 c 0
 417 820 390 791 390 755 c 2
110 690 m 1
 110 783 l 1
 17 690 l 1
 110 690 l 1
190 500 m 1
 310 500 l 1
 310 610 l 1
 190 610 l 1
 190 500 l 1
EndSplineSet
EndChar

StartChar: uniF055
Encoding: 61525 61525 317
Width: 600
VWidth: 0
Flags: HW
LayerCount: 2
Fore
SplineSet
-36 785 m 1
 13 848 95 900 200 900 c 0
 301 900 370 851 416 787 c 0
 471 709 500 596 500 450 c 0
 500 293 494 193 480 128 c 0
 466 61 439 0 370 0 c 0
 353 0 338 3 325 11 c 1
 301 3 276 0 250 0 c 0
 183 0 120 26 73 73 c 0
 26 120 0 183 0 250 c 0
 0 317 26 380 73 427 c 0
 120 474 183 500 250 500 c 2
 330 500 l 1
 330 460 l 2
 330 311 332 205 343 140 c 0
 349 107 356 92 361 85 c 0
 364 80 366 80 370 80 c 0
 387 80 398 125 402 144 c 0
 414 204 420 298 420 450 c 0
 420 577 396 678 351 741 c 0
 314 794 263 820 200 820 c 0
 132 820 69 789 27 735 c 1
 -36 785 l 1
80 250 m 0
 80 156 156 80 250 80 c 0
 258 80 267 81 275 82 c 1
 271 95 267 110 264 127 c 0
 253 191 250 287 250 420 c 1
 156 420 80 344 80 250 c 0
EndSplineSet
EndChar

StartChar: uniF056
Encoding: 61526 61526 318
Width: 600
VWidth: 0
Flags: HW
LayerCount: 2
Fore
SplineSet
294 500 m 1
 530 0 l 1
 442 0 l 1
 250 406 l 1
 58 0 l 1
 -30 0 l 1
 206 500 l 1
 294 500 l 1
EndSplineSet
EndChar

StartChar: uniF057
Encoding: 61527 61527 319
Width: 600
VWidth: 0
Flags: HW
LayerCount: 2
Fore
SplineSet
60 700 m 0
 60 815 154 900 270 900 c 0
 401 900 469 806 491 694 c 1
 508 712 518 724 518 724 c 1
 582 676 l 1
 579 673 550 634 500 593 c 1
 496 435 367 300 220 300 c 0
 203 300 186 302 172 306 c 1
 203 223 245 80 300 80 c 1
 300 0 l 1
 240 0 203 41 177 85 c 0
 152 128 131 184 112 237 c 0
 82 321 48 420 0 420 c 1
 0 500 l 1
 107 500 118 380 220 380 c 0
 305 380 387 457 410 534 c 1
 369 514 321 500 270 500 c 0
 154 500 60 585 60 700 c 0
270 580 m 0
 327 580 380 605 419 632 c 1
 411 750 356 820 270 820 c 0
 195 820 140 770 140 700 c 0
 140 630 195 580 270 580 c 0
EndSplineSet
EndChar

StartChar: uniF058
Encoding: 61528 61528 320
Width: 600
VWidth: 0
Flags: HW
LayerCount: 2
Fore
SplineSet
500 500 m 1
 500 420 l 1
 291 420 l 1
 302 232 394 80 500 80 c 1
 500 0 l 1
 400 0 332 72 289 143 c 0
 274 168 261 196 250 225 c 1
 222 150 176 80 120 40 c 0
 82 13 42 0 0 0 c 1
 0 80 l 1
 106 80 198 232 209 420 c 1
 0 420 l 1
 0 500 l 1
 500 500 l 1
EndSplineSet
EndChar

StartChar: uniF059
Encoding: 61529 61529 321
Width: 600
VWidth: 0
Flags: HW
LayerCount: 2
Fore
SplineSet
80 250 m 0
 80 156 156 80 250 80 c 0
 344 80 420 156 420 250 c 0
 420 344 344 420 250 420 c 0
 156 420 80 344 80 250 c 0
500 250 m 0
 500 130 433 20 372 -64 c 0
 311 -148 251 -207 248 -209 c 0
 230 -190 210 -170 192 -151 c 0
 193 -150 265 -81 328 12 c 1
 303 4 277 0 250 0 c 0
 183 0 120 26 73 73 c 0
 26 120 0 183 0 250 c 0
 0 317 26 380 73 427 c 0
 120 474 183 500 250 500 c 2
 600 500 l 1
 600 420 l 1
 434 420 l 1
 477 374 500 314 500 250 c 0
EndSplineSet
EndChar

StartChar: uniF05A
Encoding: 61530 61530 322
Width: 600
VWidth: 0
Flags: HW
LayerCount: 2
Fore
SplineSet
455 600 m 0
 530 600 590 545 590 470 c 0
 590 416 556 370 495 339 c 0
 465 324 430 314 390 307 c 1
 390 0 l 1
 310 0 l 1
 310 300 l 1
 300 300 l 2
 221 300 144 323 90 363 c 1
 90 0 l 1
 10 0 l 1
 10 500 l 1
 90 500 l 1
 90 443 180 380 300 380 c 2
 310 380 l 1
 310 455 l 2
 310 535 375 600 455 600 c 0
460 411 m 0
 483 422 510 442 510 470 c 0
 510 500 488 520 455 520 c 0
 419 520 390 491 390 455 c 2
 390 388 l 1
 416 393 440 401 460 411 c 0
EndSplineSet
EndChar

StartChar: uniF05B
Encoding: 61531 61531 323
Width: 600
VWidth: 0
Flags: HW
LayerCount: 2
Fore
SplineSet
400 -100 m 1
 110 -100 l 1
 110 800 l 1
 400 800 l 1
 400 720 l 1
 190 720 l 1
 190 -20 l 1
 400 -20 l 1
 400 -100 l 1
EndSplineSet
EndChar

StartChar: uniF05C
Encoding: 61532 61532 324
Width: 600
VWidth: 0
Flags: HW
LayerCount: 2
Fore
SplineSet
532 -124 m 1
 460 -160 l 1
 -32 824 l 1
 40 860 l 1
 532 -124 l 1
EndSplineSet
EndChar

StartChar: uniF05D
Encoding: 61533 61533 325
Width: 600
VWidth: 0
Flags: HW
LayerCount: 2
Fore
SplineSet
100 -100 m 1
 100 -20 l 1
 310 -20 l 1
 310 720 l 1
 100 720 l 1
 100 800 l 1
 390 800 l 1
 390 -100 l 1
 100 -100 l 1
EndSplineSet
EndChar

StartChar: uniF05E
Encoding: 61534 61534 326
Width: 600
VWidth: 0
Flags: HW
LayerCount: 2
Fore
SplineSet
452 392 m 1
 250 593 l 1
 48 392 l 1
 -8 448 l 1
 250 707 l 1
 508 448 l 1
 452 392 l 1
EndSplineSet
EndChar

StartChar: uniF05F
Encoding: 61535 61535 327
Width: 600
VWidth: 0
Flags: HW
LayerCount: 2
Fore
SplineSet
0 -200 m 1
 0 -120 l 1
 500 -120 l 1
 500 -200 l 1
 0 -200 l 1
EndSplineSet
EndChar

StartChar: uniF060
Encoding: 61536 61536 328
Width: 600
VWidth: 0
Flags: HW
LayerCount: 2
Fore
SplineSet
352 492 m 1
 92 752 l 1
 148 808 l 1
 408 548 l 1
 352 492 l 1
EndSplineSet
EndChar

StartChar: uniF061
Encoding: 61537 61537 329
Width: 600
VWidth: 0
Flags: HW
LayerCount: 2
Fore
SplineSet
452 -8 m 1
 450 -6 430 14 406 55 c 1
 362 20 307 0 250 0 c 0
 183 0 120 26 73 73 c 0
 26 120 0 183 0 250 c 0
 0 317 26 380 73 427 c 0
 120 474 183 500 250 500 c 2
 390 500 l 1
 390 460 l 2
 390 310 422 206 449 145 c 0
 477 82 505 51 508 48 c 1
 452 -8 l 1
250 420 m 2
 156 420 80 344 80 250 c 0
 80 156 156 80 250 80 c 0
 295 80 337 98 369 129 c 1
 341 198 316 293 311 420 c 1
 250 420 l 2
EndSplineSet
EndChar

StartChar: uniF062
Encoding: 61538 61538 330
Width: 600
VWidth: 0
Flags: HW
LayerCount: 2
Fore
SplineSet
-36 785 m 1
 13 848 95 900 200 900 c 0
 301 900 370 851 416 787 c 0
 471 709 500 596 500 450 c 0
 500 258 465 95 345 28 c 0
 311 9 272 0 230 0 c 0
 171 0 112 27 68 74 c 0
 24 122 0 184 0 250 c 0
 0 317 26 380 73 427 c 0
 120 474 183 500 250 500 c 0
 274 500 298 497 321 490 c 1
 299 413 l 1
 283 418 267 420 250 420 c 0
 156 420 80 344 80 250 c 0
 80 159 150 80 230 80 c 0
 356 80 420 204 420 450 c 0
 420 577 396 678 351 741 c 0
 314 794 263 820 200 820 c 0
 132 820 69 789 27 735 c 1
 -36 785 l 1
EndSplineSet
EndChar

StartChar: uniF063
Encoding: 61539 61539 331
Width: 600
VWidth: 0
Flags: HW
LayerCount: 2
Fore
SplineSet
490 179 m 1
 462 83 369 0 250 0 c 0
 183 0 120 26 73 73 c 0
 26 120 0 183 0 250 c 0
 0 317 26 380 73 427 c 0
 120 474 183 500 250 500 c 2
 600 500 l 1
 600 420 l 1
 250 420 l 2
 156 420 80 344 80 250 c 0
 80 156 156 80 250 80 c 0
 325 80 392 130 413 201 c 1
 490 179 l 1
EndSplineSet
EndChar

StartChar: uniF064
Encoding: 61540 61540 332
Width: 600
VWidth: 0
Flags: HW
LayerCount: 2
Fore
SplineSet
500 220 m 0
 500 93 388 0 250 0 c 0
 112 0 0 93 0 220 c 0
 0 287 29 340 88 377 c 0
 132 405 187 420 241 435 c 1
 217 465 200 503 200 550 c 0
 200 633 267 700 350 700 c 0
 433 700 500 633 500 550 c 0
 500 502 481 461 443 431 c 0
 429 420 413 411 397 403 c 1
 418 385 439 366 456 344 c 0
 486 306 500 266 500 220 c 0
131 309 m 0
 95 286 80 260 80 220 c 0
 80 151 144 80 250 80 c 0
 356 80 420 151 420 220 c 0
 420 288 363 328 309 371 c 1
 308 371 l 1
 247 354 177 338 131 309 c 0
327 460 m 1
 369 475 420 497 420 550 c 0
 420 589 389 620 350 620 c 0
 311 620 280 589 280 550 c 0
 280 514 298 487 327 460 c 1
EndSplineSet
EndChar

StartChar: uniF065
Encoding: 61541 61541 333
Width: 600
VWidth: 0
Flags: HW
LayerCount: 2
Fore
SplineSet
490 179 m 1
 462 83 369 0 250 0 c 0
 183 0 120 26 73 73 c 0
 26 120 0 183 0 250 c 0
 0 317 26 380 73 427 c 0
 120 474 183 500 250 500 c 0
 274 500 298 497 321 490 c 1
 299 413 l 1
 283 418 267 420 250 420 c 0
 156 420 80 344 80 250 c 0
 80 156 156 80 250 80 c 0
 325 80 392 130 413 201 c 1
 490 179 l 1
EndSplineSet
EndChar

StartChar: uniF066
Encoding: 61542 61542 334
Width: 600
VWidth: 0
Flags: HW
LayerCount: 2
Fore
SplineSet
410 950 m 2
 410 1030 472 1100 550 1100 c 0
 630 1100 690 1040 690 960 c 0
 690 867 597 800 500 800 c 2
 490 800 l 1
 490 750 l 2
 490 673 427 610 350 610 c 2
 290 610 l 1
 290 0 l 1
 210 0 l 1
 210 610 l 1
 100 610 l 2
 89 610 80 601 80 590 c 0
 80 586 81 583 83 580 c 1
 13 540 l 1
 4 555 0 572 0 590 c 0
 0 645 45 690 100 690 c 2
 210 690 l 1
 210 1060 l 1
 290 1060 l 1
 290 996 334 928 410 897 c 1
 410 950 l 2
410 750 m 2
 410 813 l 1
 365 826 323 849 290 881 c 1
 290 690 l 1
 350 690 l 2
 383 690 410 717 410 750 c 2
500 880 m 2
 552 880 610 910 610 960 c 0
 610 995 585 1020 550 1020 c 0
 517 1020 490 989 490 950 c 2
 490 880 l 1
 500 880 l 2
EndSplineSet
EndChar

StartChar: uniF067
Encoding: 61543 61543 335
Width: 600
VWidth: 0
Flags: HW
LayerCount: 2
Fore
SplineSet
347 -209 m 1
 329 -189 311 -171 293 -151 c 1
 294 -150 398 -51 417 65 c 1
 363 22 299 0 230 -0 c 0
 168 0 109 24 65 68 c 0
 23 110 0 165 0 220 c 0
 0 287 29 340 88 377 c 0
 130 403 181 419 232 433 c 1
 213 467 200 505 200 550 c 0
 200 633 267 700 350 700 c 0
 433 700 500 633 500 550 c 0
 500 492 473 446 419 414 c 0
 402 404 384 396 364 389 c 1
 397 351 430 313 456 266 c 0
 485 214 500 159 500 100 c 0
 500 -66 353 -203 347 -209 c 1
410 172 m 1
 388 248 329 304 281 363 c 1
 196 340 80 319 80 220 c 0
 80 154 142 80 230 80 c 0
 282 80 329 96 369 129 c 0
 390 146 403 162 410 172 c 1
350 620 m 0
 311 620 280 589 280 550 c 0
 280 515 292 485 311 456 c 1
 385 480 420 502 420 550 c 0
 420 589 389 620 350 620 c 0
EndSplineSet
EndChar

StartChar: uniF068
Encoding: 61544 61544 336
Width: 600
VWidth: 0
Flags: HW
LayerCount: 2
Fore
SplineSet
490 179 m 1
 462 83 369 0 250 0 c 0
 183 0 120 26 73 73 c 0
 26 120 0 183 0 250 c 0
 0 314 23 374 66 420 c 1
 0 420 l 1
 0 500 l 1
 300 500 l 1
 300 420 l 1
 250 420 l 2
 156 420 80 344 80 250 c 0
 80 156 156 80 250 80 c 0
 325 80 392 130 413 201 c 1
 490 179 l 1
EndSplineSet
EndChar

StartChar: uniF069
Encoding: 61545 61545 337
Width: 600
VWidth: 0
Flags: HW
LayerCount: 2
Fore
SplineSet
400 0 m 1
 340 0 303 41 277 85 c 0
 252 128 231 184 212 237 c 0
 181 323 147 420 100 420 c 1
 100 500 l 1
 160 500 197 459 223 415 c 0
 248 372 269 316 288 263 c 0
 319 177 353 80 400 80 c 1
 400 0 l 1
EndSplineSet
EndChar

StartChar: uniF06A
Encoding: 61546 61546 338
Width: 600
VWidth: 0
Flags: HW
LayerCount: 2
Fore
SplineSet
500 200 m 0
 500 93 424 0 320 0 c 0
 252 0 208 42 178 89 c 0
 148 135 127 194 106 251 c 0
 86 305 49 420 -0 420 c 1
 -0 500 l 1
 80 500 119 428 146 368 c 1
 175 377 219 391 264 411 c 1
 229 446 200 489 200 550 c 0
 200 633 267 700 350 700 c 0
 433 700 500 633 500 550 c 0
 500 504 478 461 434 421 c 0
 425 413 415 405 404 397 c 1
 453 353 500 295 500 200 c 0
331 354 m 1
 283 330 213 305 175 294 c 1
 211 197 250 80 320 80 c 0
 377 80 420 132 420 200 c 0
 420 274 380 313 331 354 c 1
350 620 m 0
 311 620 280 589 280 550 c 0
 280 510 302 482 340 450 c 1
 392 483 420 518 420 550 c 0
 420 589 389 620 350 620 c 0
EndSplineSet
EndChar

StartChar: uniF06B
Encoding: 61547 61547 339
Width: 600
VWidth: -200
Flags: HW
LayerCount: 2
Fore
SplineSet
390 0 m 1
 310 0 l 1
 310 613 l 1
 265 626 223 649 190 681 c 1
 190 0 l 1
 110 0 l 1
 110 860 l 1
 190 860 l 1
 190 796 234 728 310 697 c 1
 310 750 l 2
 310 830 372 900 450 900 c 0
 530 900 590 840 590 760 c 0
 590 667 497 600 400 600 c 2
 390 600 l 1
 390 0 l 1
400 680 m 2
 452 680 510 710 510 760 c 0
 510 795 485 820 450 820 c 0
 417 820 390 789 390 750 c 2
 390 680 l 1
 400 680 l 2
EndSplineSet
EndChar

StartChar: uniF06C
Encoding: 61548 61548 340
Width: 600
VWidth: 0
Flags: HW
LayerCount: 2
Fore
SplineSet
167 -205 m 1
 93 -175 l 1
 200 79 l 1
 155 98 117 121 87 144 c 0
 29 189 0 241 0 300 c 0
 0 359 30 412 85 450 c 0
 131 481 191 500 250 500 c 0
 338 500 405 467 408 466 c 2
 441 449 l 1
 306 125 l 1
 408 92 504 80 505 80 c 2
 495 0 l 1
 490 1 386 15 275 51 c 1
 167 -205 l 1
250 420 m 0
 207 420 162 407 130 385 c 0
 107 369 80 341 80 300 c 0
 80 229 167 181 231 153 c 1
 337 407 l 1
 315 413 285 420 250 420 c 0
EndSplineSet
EndChar

StartChar: uniF06D
Encoding: 61549 61549 341
Width: 600
VWidth: 0
Flags: HW
LayerCount: 2
Fore
SplineSet
500 550 m 0
 500 481 452 406 389 359 c 1
 413 331 436 301 456 266 c 0
 485 214 500 159 500 100 c 0
 500 -66 353 -203 347 -209 c 1
 293 -151 l 1
 294 -150 420 -30 420 100 c 0
 420 197 372 258 318 320 c 1
 286 307 253 300 220 300 c 0
 203 300 186 302 172 306 c 1
 203 223 245 80 300 80 c 1
 300 0 l 1
 240 0 203 41 177 85 c 0
 152 128 131 184 112 237 c 0
 82 321 48 420 0 420 c 1
 0 500 l 1
 107 500 118 380 220 380 c 0
 234 380 249 382 263 386 c 1
 228 432 200 483 200 550 c 0
 200 633 267 700 350 700 c 0
 433 700 500 633 500 550 c 0
337 420 m 1
 380 451 420 506 420 550 c 0
 420 589 389 620 350 620 c 0
 311 620 280 589 280 550 c 0
 280 501 304 461 337 420 c 1
EndSplineSet
EndChar

StartChar: uniF06E
Encoding: 61550 61550 342
Width: 600
VWidth: 0
Flags: HW
LayerCount: 2
Fore
SplineSet
-36 785 m 1
 13 848 95 900 200 900 c 0
 301 900 370 851 416 787 c 0
 471 709 500 596 500 450 c 0
 500 309 482 198 446 120 c 0
 399 16 334 0 300 0 c 0
 240 0 203 41 177 85 c 0
 152 128 131 184 112 237 c 0
 81 323 47 420 0 420 c 1
 0 500 l 1
 60 500 97 459 123 415 c 0
 148 372 169 316 188 263 c 0
 219 177 253 80 300 80 c 0
 326 80 353 107 374 153 c 0
 395 200 420 289 420 450 c 0
 420 577 396 678 351 741 c 0
 314 794 263 820 200 820 c 0
 132 820 69 789 27 735 c 1
 -36 785 l 1
EndSplineSet
EndChar

StartChar: uniF06F
Encoding: 61551 61551 343
Width: 600
VWidth: 0
Flags: HW
LayerCount: 2
Fore
SplineSet
250 0 m 0
 183 0 120 26 73 73 c 0
 26 120 0 183 0 250 c 0
 0 317 26 380 73 427 c 0
 120 474 183 500 250 500 c 0
 317 500 380 474 427 427 c 0
 474 380 500 317 500 250 c 0
 500 183 474 120 427 73 c 0
 380 26 317 0 250 0 c 0
250 420 m 0
 156 420 80 344 80 250 c 0
 80 156 156 80 250 80 c 0
 344 80 420 156 420 250 c 0
 420 344 344 420 250 420 c 0
EndSplineSet
EndChar

StartChar: uniF070
Encoding: 61552 61552 344
Width: 600
VWidth: 0
Flags: HW
LayerCount: 2
Fore
SplineSet
213 1100 m 1
 290 1100 l 1
 290 890 l 1
 410 890 l 1
 410 955 l 2
 410 1035 473 1100 550 1100 c 0
 627 1100 690 1035 690 955 c 0
 690 875 627 810 550 810 c 2
 490 810 l 1
 490 750 l 2
 490 673 427 610 350 610 c 2
 290 610 l 1
 290 0 l 1
 210 0 l 1
 210 610 l 1
 100 610 l 2
 89 610 80 601 80 590 c 0
 80 586 81 583 83 580 c 1
 13 540 l 1
 4 555 0 572 0 590 c 0
 0 645 45 690 100 690 c 2
 210 690 l 1
 210 810 l 1
 0 810 l 1
 0 887 l 1
 213 1100 l 1
210 890 m 1
 210 983 l 1
 117 890 l 1
 210 890 l 1
490 955 m 2
 490 890 l 1
 550 890 l 2
 583 890 610 919 610 955 c 0
 610 991 583 1020 550 1020 c 0
 517 1020 490 991 490 955 c 2
410 810 m 1
 290 810 l 1
 290 690 l 1
 350 690 l 2
 383 690 410 717 410 750 c 2
 410 810 l 1
EndSplineSet
EndChar

StartChar: uniF071
Encoding: 61553 61553 345
Width: 600
VWidth: 0
Flags: HW
LayerCount: 2
Fore
SplineSet
213 700 m 1
 290 700 l 1
 290 500 l 1
 600 500 l 1
 600 420 l 1
 290 420 l 1
 290 -200 l 1
 210 -200 l 1
 210 420 l 1
 0 420 l 1
 0 487 l 1
 213 700 l 1
210 500 m 1
 210 583 l 1
 127 500 l 1
 210 500 l 1
EndSplineSet
EndChar

StartChar: uniF072
Encoding: 61554 61554 346
Width: 600
VWidth: 0
Flags: HW
LayerCount: 2
Fore
SplineSet
-36 785 m 1
 13 848 95 900 200 900 c 0
 280 900 355 869 412 812 c 0
 469 755 500 680 500 600 c 0
 500 511 461 438 414 389 c 0
 360 333 289 300 220 300 c 0
 203 300 186 302 172 306 c 1
 203 223 245 80 300 80 c 1
 300 0 l 1
 240 0 203 41 177 85 c 0
 152 128 131 184 112 237 c 0
 82 321 48 420 0 420 c 1
 0 500 l 1
 107 500 118 380 220 380 c 0
 268 380 317 403 356 444 c 0
 397 487 420 542 420 600 c 0
 420 721 321 820 200 820 c 0
 132 820 69 789 27 735 c 1
 -36 785 l 1
EndSplineSet
EndChar

StartChar: uniF073
Encoding: 61555 61555 347
Width: 600
VWidth: 0
Flags: HW
LayerCount: 2
Fore
SplineSet
490 179 m 1
 462 83 369 0 250 0 c 0
 183 0 120 26 73 73 c 0
 26 120 0 183 0 250 c 0
 0 396 118 438 229 474 c 0
 347 512 420 541 420 650 c 0
 420 745 323 820 200 820 c 0
 132 820 69 789 27 735 c 1
 -36 785 l 1
 13 848 95 900 200 900 c 0
 355 900 500 798 500 650 c 0
 500 565 466 509 415 470 c 0
 368 435 310 416 253 398 c 0
 171 372 80 349 80 250 c 0
 80 156 156 80 250 80 c 0
 325 80 392 130 413 201 c 1
 490 179 l 1
EndSplineSet
EndChar

StartChar: uniF074
Encoding: 61556 61556 348
Width: 600
VWidth: 0
Flags: HW
LayerCount: 2
Fore
SplineSet
390 0 m 1
 310 0 l 1
 310 610 l 1
 190 610 l 1
 190 0 l 1
 110 0 l 1
 110 610 l 1
 -100 610 l 1
 -100 687 l 1
 113 900 l 1
 190 900 l 1
 190 690 l 1
 310 690 l 1
 310 755 l 2
 310 835 373 900 450 900 c 0
 527 900 590 835 590 755 c 0
 590 675 527 610 450 610 c 2
 390 610 l 1
 390 0 l 1
110 690 m 1
 110 783 l 1
 17 690 l 1
 110 690 l 1
390 755 m 2
 390 690 l 1
 450 690 l 2
 483 690 510 719 510 755 c 0
 510 791 483 820 450 820 c 0
 417 820 390 791 390 755 c 2
EndSplineSet
EndChar

StartChar: uniF075
Encoding: 61557 61557 349
Width: 600
VWidth: 0
Flags: HW
LayerCount: 2
Fore
SplineSet
-36 785 m 1
 13 848 95 900 200 900 c 0
 301 900 370 851 416 787 c 0
 471 709 500 596 500 450 c 0
 500 293 494 193 480 128 c 0
 466 61 439 0 370 0 c 0
 353 0 338 3 325 11 c 1
 301 3 276 0 250 0 c 0
 183 0 120 26 73 73 c 0
 26 120 0 183 0 250 c 0
 0 317 26 380 73 427 c 0
 120 474 183 500 250 500 c 2
 330 500 l 1
 330 460 l 2
 330 311 332 205 343 140 c 0
 349 107 356 92 361 85 c 0
 364 80 366 80 370 80 c 0
 387 80 398 125 402 144 c 0
 414 204 420 298 420 450 c 0
 420 577 396 678 351 741 c 0
 314 794 263 820 200 820 c 0
 132 820 69 789 27 735 c 1
 -36 785 l 1
80 250 m 0
 80 156 156 80 250 80 c 0
 258 80 267 81 275 82 c 1
 271 95 267 110 264 127 c 0
 253 191 250 287 250 420 c 1
 156 420 80 344 80 250 c 0
EndSplineSet
EndChar

StartChar: uniF076
Encoding: 61558 61558 350
Width: 600
VWidth: 0
Flags: HW
LayerCount: 2
Fore
SplineSet
294 500 m 1
 530 0 l 1
 442 0 l 1
 250 406 l 1
 58 0 l 1
 -30 0 l 1
 206 500 l 1
 294 500 l 1
EndSplineSet
EndChar

StartChar: uniF077
Encoding: 61559 61559 351
Width: 600
VWidth: 0
Flags: HW
LayerCount: 2
Fore
SplineSet
455 600 m 0
 530 600 590 545 590 470 c 0
 590 416 556 370 495 339 c 0
 465 324 430 314 390 307 c 1
 390 -0 l 2
 390 -94 317 -149 239 -179 c 0
 172 -204 106 -210 103 -210 c 1
 97 -130 l 2
 98 -130 156 -125 212 -103 c 0
 277 -78 310 -44 310 0 c 2
 310 300 l 1
 300 300 l 2
 221 300 144 323 90 363 c 1
 90 0 l 1
 10 0 l 1
 10 500 l 1
 90 500 l 1
 90 443 180 380 300 380 c 2
 310 380 l 1
 310 455 l 2
 310 535 375 600 455 600 c 0
460 411 m 0
 483 422 510 442 510 470 c 0
 510 500 488 520 455 520 c 0
 419 520 390 491 390 455 c 2
 390 388 l 1
 416 393 440 401 460 411 c 0
EndSplineSet
EndChar

StartChar: uniF078
Encoding: 61560 61560 352
Width: 600
VWidth: 0
Flags: HW
LayerCount: 2
Fore
SplineSet
500 500 m 1
 500 420 l 1
 291 420 l 1
 302 232 394 80 500 80 c 1
 500 0 l 1
 400 0 332 72 289 143 c 0
 274 168 261 196 250 225 c 1
 222 150 176 80 120 40 c 0
 82 13 42 0 0 0 c 1
 0 80 l 1
 106 80 198 232 209 420 c 1
 0 420 l 1
 0 500 l 1
 500 500 l 1
EndSplineSet
EndChar

StartChar: uniF079
Encoding: 61561 61561 353
Width: 600
VWidth: 0
Flags: HW
LayerCount: 2
Fore
SplineSet
500 250 m 0
 500 130 433 20 372 -64 c 0
 311 -148 251 -207 248 -209 c 1
 230 -190 210 -170 192 -151 c 1
 193 -150 265 -81 328 12 c 1
 303 4 277 0 250 0 c 0
 183 0 120 26 73 73 c 0
 26 120 0 183 0 250 c 0
 0 317 26 380 73 427 c 0
 120 474 183 500 250 500 c 0
 317 500 380 474 427 427 c 0
 474 380 500 317 500 250 c 0
80 250 m 0
 80 156 156 80 250 80 c 0
 344 80 420 156 420 250 c 0
 420 344 344 420 250 420 c 0
 156 420 80 344 80 250 c 0
EndSplineSet
EndChar

StartChar: uniF07A
Encoding: 61562 61562 354
Width: 600
VWidth: 0
Flags: HW
LayerCount: 2
Fore
SplineSet
455 600 m 0
 530 600 590 545 590 470 c 0
 590 416 556 370 495 339 c 0
 465 324 430 314 390 307 c 1
 390 0 l 1
 310 0 l 1
 310 300 l 1
 300 300 l 2
 221 300 144 323 90 363 c 1
 90 0 l 1
 10 0 l 1
 10 500 l 1
 90 500 l 1
 90 443 180 380 300 380 c 2
 310 380 l 1
 310 455 l 2
 310 535 375 600 455 600 c 0
460 411 m 0
 483 422 510 442 510 470 c 0
 510 500 488 520 455 520 c 0
 419 520 390 491 390 455 c 2
 390 388 l 1
 416 393 440 401 460 411 c 0
EndSplineSet
EndChar

StartChar: uniF07B
Encoding: 61563 61563 355
Width: 600
VWidth: 0
Flags: HW
LayerCount: 2
Fore
SplineSet
218 348 m 1
 262 312 290 257 290 180 c 2
 290 90 l 2
 290 44 307 14 341 -4 c 0
 370 -19 400 -20 400 -20 c 1
 400 -100 l 1
 395 -100 352 -99 307 -77 c 0
 249 -48 210 7 210 90 c 2
 210 180 l 2
 210 234 193 272 158 293 c 0
 130 310 100 310 100 310 c 1
 100 390 l 1
 100 390 130 391 159 406 c 0
 193 424 210 454 210 500 c 2
 210 590 l 2
 210 678 247 741 305 774 c 0
 350 800 395 800 400 800 c 1
 400 720 l 1
 400 720 370 720 342 703 c 0
 307 682 290 644 290 590 c 2
 290 500 l 2
 290 431 261 379 218 348 c 1
EndSplineSet
EndChar

StartChar: uniF07C
Encoding: 61564 61564 356
Width: 600
VWidth: 0
Flags: HW
LayerCount: 2
Fore
SplineSet
210 -140 m 1
 210 840 l 1
 290 840 l 1
 290 -140 l 1
 210 -140 l 1
EndSplineSet
EndChar

StartChar: uniF07D
Encoding: 61565 61565 357
Width: 600
VWidth: 0
Flags: HW
LayerCount: 2
Fore
SplineSet
282 352 m 1
 238 388 210 443 210 520 c 2
 210 610 l 2
 210 656 193 686 159 704 c 0
 130 719 100 720 100 720 c 1
 100 800 l 1
 105 800 148 799 193 777 c 0
 251 748 290 693 290 610 c 2
 290 520 l 2
 290 466 307 428 342 407 c 0
 370 390 400 390 400 390 c 1
 400 310 l 1
 400 310 370 309 341 294 c 0
 307 276 290 246 290 200 c 2
 290 110 l 2
 290 22 253 -41 195 -74 c 0
 150 -100 105 -100 100 -100 c 1
 100 -20 l 1
 100 -20 130 -20 158 -3 c 0
 193 18 210 56 210 110 c 2
 210 200 l 2
 210 269 239 321 282 352 c 1
EndSplineSet
EndChar

StartChar: uniF07E
Encoding: 61566 61566 358
Width: 600
VWidth: 0
Flags: HW
LayerCount: 2
Fore
SplineSet
350 500 m 0
 295 500 253 541 222 572 c 0
 197 597 173 620 150 620 c 0
 89 620 80 518 80 517 c 2
 0 523 l 1
 0 527 4 566 21 606 c 0
 47 667 93 700 150 700 c 0
 205 700 247 659 278 628 c 0
 303 603 327 580 350 580 c 0
 411 580 420 682 420 683 c 2
 500 677 l 1
 500 673 496 634 479 594 c 0
 453 533 407 500 350 500 c 0
EndSplineSet
EndChar

StartChar: uniF07F
Encoding: 61567 61567 359
Width: 600
VWidth: 0
Flags: HW
LayerCount: 2
Fore
SplineSet
0 500 m 1
 0 600 l 1
 100 600 l 1
 100 500 l 1
 0 500 l 1
200 500 m 1
 200 600 l 1
 300 600 l 1
 300 500 l 1
 200 500 l 1
400 500 m 1
 400 600 l 1
 500 600 l 1
 500 500 l 1
 400 500 l 1
100 400 m 1
 100 500 l 1
 200 500 l 1
 200 400 l 1
 100 400 l 1
300 400 m 1
 300 500 l 1
 400 500 l 1
 400 400 l 1
 300 400 l 1
0 300 m 1
 0 400 l 1
 100 400 l 1
 100 300 l 1
 0 300 l 1
200 300 m 1
 200 400 l 1
 300 400 l 1
 300 300 l 1
 200 300 l 1
400 300 m 1
 400 400 l 1
 500 400 l 1
 500 300 l 1
 400 300 l 1
100 200 m 1
 100 300 l 1
 200 300 l 1
 200 200 l 1
 100 200 l 1
300 200 m 1
 300 300 l 1
 400 300 l 1
 400 200 l 1
 300 200 l 1
0 100 m 1
 0 200 l 1
 100 200 l 1
 100 100 l 1
 0 100 l 1
200 100 m 1
 200 200 l 1
 300 200 l 1
 300 100 l 1
 200 100 l 1
400 100 m 1
 400 200 l 1
 500 200 l 1
 500 100 l 1
 400 100 l 1
EndSplineSet
EndChar

StartChar: uniF082
Encoding: 61570 61570 360
Width: 600
VWidth: 0
Flags: HW
LayerCount: 2
Fore
SplineSet
350 610 m 2
 290 610 l 1
 290 80 l 1
 450 80 l 2
 527 80 590 17 590 -60 c 0
 590 -137 527 -200 450 -200 c 0
 373 -200 310 -137 310 -60 c 0
 310 -39 315 -18 324 0 c 1
 150 0 l 2
 67 0 0 67 0 150 c 0
 0 233 67 300 150 300 c 2
 210 300 l 1
 210 610 l 1
 100 610 l 2
 89 610 80 601 80 590 c 0
 80 586 81 583 83 580 c 1
 13 540 l 1
 4 555 0 572 0 590 c 0
 0 645 45 690 100 690 c 2
 210 690 l 1
 210 810 l 1
 0 810 l 1
 0 887 l 1
 213 1100 l 1
 290 1100 l 1
 290 890 l 1
 410 890 l 1
 410 955 l 2
 410 1035 473 1100 550 1100 c 0
 627 1100 690 1035 690 955 c 0
 690 875 627 810 550 810 c 2
 490 810 l 1
 490 750 l 2
 490 673 427 610 350 610 c 2
490 955 m 2
 490 890 l 1
 550 890 l 2
 583 890 610 919 610 955 c 0
 610 991 583 1020 550 1020 c 0
 517 1020 490 991 490 955 c 2
290 810 m 1
 290 690 l 1
 350 690 l 2
 383 690 410 717 410 750 c 2
 410 810 l 1
 290 810 l 1
510 -60 m 0
 510 -27 483 0 450 0 c 0
 417 0 390 -27 390 -60 c 0
 390 -93 417 -120 450 -120 c 0
 483 -120 510 -93 510 -60 c 0
117 890 m 1
 210 890 l 1
 210 983 l 1
 117 890 l 1
150 80 m 2
 210 80 l 1
 210 220 l 1
 150 220 l 2
 111 220 80 189 80 150 c 0
 80 111 111 80 150 80 c 2
EndSplineSet
EndChar

StartChar: uniF083
Encoding: 61571 61571 361
Width: 600
VWidth: 0
Flags: HW
LayerCount: 2
Fore
SplineSet
106 420 m 1
 157 348 200 253 200 140 c 0
 200 41 166 -45 124 -112 c 0
 87 -172 49 -208 47 -209 c 1
 31 -192 16 -176 0 -159 c 1
 0 -143 l 1
 11 -131 34 -105 57 -68 c 0
 99 0 120 70 120 140 c 0
 120 281 33 387 3 420 c 1
 0 420 l 1
 0 500 l 1
 600 500 l 1
 600 420 l 1
 106 420 l 1
EndSplineSet
EndChar

StartChar: uniF084
Encoding: 61572 61572 362
Width: 600
VWidth: 0
Flags: HW
LayerCount: 2
Fore
SplineSet
600 690 m 1
 600 610 l 1
 290 610 l 1
 290 500 l 1
 600 500 l 1
 600 420 l 1
 290 420 l 1
 290 0 l 1
 210 0 l 1
 210 420 l 1
 0 420 l 1
 0 500 l 1
 210 500 l 1
 210 610 l 1
 0 610 l 1
 0 687 l 1
 213 900 l 1
 290 900 l 1
 290 690 l 1
 600 690 l 1
210 690 m 1
 210 783 l 1
 117 690 l 1
 210 690 l 1
EndSplineSet
EndChar

StartChar: uniF085
Encoding: 61573 61573 363
Width: 600
VWidth: 0
Flags: HW
LayerCount: 2
Fore
SplineSet
290 755 m 2
 290 690 l 1
 350 690 l 2
 383 690 410 719 410 755 c 0
 410 791 383 820 350 820 c 0
 317 820 290 791 290 755 c 2
0 500 m 1
 210 500 l 1
 210 610 l 1
 0 610 l 1
 0 690 l 1
 210 690 l 1
 210 755 l 2
 210 835 273 900 350 900 c 0
 427 900 490 835 490 755 c 0
 490 675 427 610 350 610 c 2
 290 610 l 1
 290 500 l 1
 600 500 l 1
 600 420 l 1
 290 420 l 1
 290 0 l 1
 210 0 l 1
 210 420 l 1
 0 420 l 1
 0 500 l 1
EndSplineSet
EndChar

StartChar: uniF086
Encoding: 61574 61574 364
Width: 600
VWidth: 0
Flags: HW
LayerCount: 2
Fore
SplineSet
600 500 m 1
 600 420 l 1
 390 420 l 1
 390 -0 l 1
 310 -0 l 1
 310 420 l 1
 190 420 l 1
 190 -0 l 1
 110 -0 l 1
 110 420 l 1
 0 420 l 1
 0 500 l 1
 110 500 l 1
 110 690 l 1
 310 690 l 1
 310 890 l 1
 510 890 l 1
 510 955 l 2
 510 1035 575 1100 655 1100 c 0
 735 1100 800 1035 800 955 c 0
 800 875 735 810 655 810 c 2
 590 810 l 1
 590 610 l 1
 390 610 l 1
 390 500 l 1
 600 500 l 1
590 890 m 1
 655 890 l 2
 691 890 720 919 720 955 c 0
 720 991 691 1020 655 1020 c 0
 619 1020 590 991 590 955 c 2
 590 890 l 1
390 690 m 1
 510 690 l 1
 510 810 l 1
 390 810 l 1
 390 690 l 1
190 500 m 1
 310 500 l 1
 310 610 l 1
 190 610 l 1
 190 500 l 1
EndSplineSet
EndChar

StartChar: uniF087
Encoding: 61575 61575 365
Width: 600
VWidth: 0
Flags: HW
LayerCount: 2
Fore
SplineSet
250 620 m 0
 172 620 80 575 80 500 c 1
 0 500 l 1
 0 565 36 614 77 645 c 0
 124 680 185 700 250 700 c 0
 349 700 439 652 478 582 c 0
 492 556 500 528 500 500 c 0
 500 415 441 359 380 329 c 1
 417 294 440 245 440 190 c 0
 440 85 355 0 250 0 c 0
 203 0 158 17 123 48 c 1
 177 108 l 1
 197 90 223 80 250 80 c 0
 311 80 360 129 360 190 c 0
 360 251 311 300 250 300 c 1
 250 380 l 1
 328 380 420 425 420 500 c 0
 420 575 328 620 250 620 c 0
EndSplineSet
EndChar

StartChar: uniF088
Encoding: 61576 61576 366
Width: 600
VWidth: 0
Flags: HW
LayerCount: 2
Fore
SplineSet
342 460 m 2
 342 360 372 287 408 248 c 1
 352 192 l 1
 351 193 341 203 328 222 c 1
 305 208 278 200 250 200 c 0
 167 200 100 267 100 350 c 0
 100 433 167 500 250 500 c 2
 342 500 l 1
 342 460 l 2
250 420 m 2
 211 420 180 389 180 350 c 0
 180 311 211 280 250 280 c 0
 265 280 279 285 291 294 c 1
 278 328 268 369 264 420 c 1
 250 420 l 2
EndSplineSet
EndChar

StartChar: uniF089
Encoding: 61577 61577 367
Width: 600
VWidth: 0
Flags: HW
LayerCount: 2
Fore
SplineSet
310 750 m 2
 310 830 372 900 450 900 c 0
 530 900 590 840 590 760 c 0
 590 667 497 600 400 600 c 2
 390 600 l 1
 390 -0 l 1
 310 -0 l 1
 310 300 l 2
 310 305 308 319 303 335 c 1
 276 316 239 302 190 300 c 1
 190 -0 l 1
 110 -0 l 1
 110 307 l 1
 60 317 0 344 0 400 c 0
 0 456 60 483 110 493 c 1
 110 860 l 1
 190 860 l 1
 190 796 234 728 310 697 c 1
 310 750 l 2
85 400 m 1
 90 397 99 392 110 389 c 1
 110 411 l 1
 99 408 90 403 85 400 c 1
190 380 m 1
 216 381 238 388 256 400 c 1
 238 412 216 419 190 420 c 1
 190 380 l 1
303 465 m 1
 308 481 310 495 310 500 c 2
 310 613 l 1
 265 626 223 649 190 681 c 1
 190 500 l 1
 239 498 276 484 303 465 c 1
400 680 m 2
 452 680 510 710 510 760 c 0
 510 795 485 820 450 820 c 0
 417 820 390 789 390 750 c 2
 390 680 l 1
 400 680 l 2
EndSplineSet
EndChar

StartChar: uniF08A
Encoding: 61578 61578 368
Width: 600
VWidth: 0
Flags: HW
LayerCount: 2
Fore
SplineSet
250 620 m 0
 172 620 80 575 80 500 c 0
 80 425 156 405 217 383 c 0
 258 368 301 352 335 327 c 0
 378 295 400 253 400 200 c 0
 400 153 382 111 347 77 c 0
 319 49 284 29 253 12 c 0
 208 -13 180 -30 180 -50 c 0
 180 -58 192 -77 235 -101 c 0
 269 -120 303 -132 303 -132 c 1
 277 -208 l 1
 275 -207 235 -194 195 -171 c 0
 132 -135 100 -94 100 -50 c 0
 100 18 164 54 214 82 c 0
 280 119 320 145 320 200 c 0
 320 255 281 274 190 307 c 0
 147 322 103 338 67 365 c 0
 22 399 0 444 0 500 c 0
 0 565 36 614 77 645 c 0
 124 680 185 700 250 700 c 0
 349 700 439 652 478 582 c 0
 492 556 500 528 500 500 c 1
 420 500 l 1
 420 575 328 620 250 620 c 0
EndSplineSet
EndChar

StartChar: uniF08B
Encoding: 61579 61579 369
Width: 600
VWidth: 0
Flags: HW
LayerCount: 2
Fore
SplineSet
600 500 m 1
 600 420 l 1
 290 420 l 1
 290 -200 l 1
 210 -200 l 1
 210 420 l 1
 0 420 l 1
 0 500 l 1
 210 500 l 1
 210 700 l 1
 290 700 l 1
 290 500 l 1
 600 500 l 1
EndSplineSet
EndChar

